<?xml version="1.0" encoding="UTF-8"?>
<svg xmlns="http://www.w3.org/2000/svg" xmlns:xlink="http://www.w3.org/1999/xlink" width="50pt" height="50pt" viewBox="0 0 50 50" version="1.1">
<g id="surface1">
<path style=" stroke:none;fill-rule:nonzero;fill:#FFFFFF;fill-opacity:1;" d="M 33.984375 48.4375 L 16.015625 48.4375 L 14.0625 19.921875 L 35.9375 19.921875 Z "/>
<path style=" stroke:none;fill-rule:nonzero;fill:#FF5576;fill-opacity:1;" d="M 33.984375 48.4375 L 16.015625 48.4375 L 14.0625 19.921875 L 35.9375 19.921875 Z "/>
<path style=" stroke:none;fill-rule:nonzero;fill:#DB3E64;fill-opacity:1;" d="M 30.46875 19.921875 L 29.21875 41.015625 C 29.023438 43.007813 27.34375 44.53125 25.3125 44.53125 L 21.640625 44.53125 C 20.507813 44.53125 19.570313 45.507813 19.6875 46.679688 C 19.765625 47.695313 20.625 48.4375 21.640625 48.4375 L 33.984375 48.4375 L 35.9375 19.921875 Z "/>
<path style=" stroke:none;fill-rule:nonzero;fill:#FFFFFF;fill-opacity:1;" d="M 14.84375 26.367188 C 14.726563 26.367188 14.609375 26.367188 14.492188 26.367188 L 15.546875 41.914063 C 19.53125 41.5625 22.65625 38.242188 22.65625 34.179688 C 22.65625 29.882813 19.140625 26.367188 14.84375 26.367188 Z "/>
<path style=" stroke:none;fill-rule:nonzero;fill:#FFFFFF;fill-opacity:1;" d="M 12.109375 14.84375 L 37.890625 14.84375 L 37.890625 19.921875 L 12.109375 19.921875 Z "/>
<path style=" stroke:none;fill-rule:nonzero;fill:#C3DBEA;fill-opacity:1;" d="M 32.8125 14.84375 L 37.890625 14.84375 L 37.890625 19.921875 L 32.8125 19.921875 Z "/>
<path style=" stroke:none;fill-rule:nonzero;fill:#444B54;fill-opacity:1;" d="M 38.671875 5.46875 L 30.859375 5.46875 C 30.195313 5.46875 29.6875 4.960938 29.6875 4.296875 C 29.6875 3.632813 30.195313 3.125 30.859375 3.125 L 38.671875 3.125 C 39.335938 3.125 39.84375 3.632813 39.84375 4.296875 C 39.84375 4.960938 39.335938 5.46875 38.671875 5.46875 Z "/>
<path style=" stroke:none;fill-rule:nonzero;fill:#444B54;fill-opacity:1;" d="M 25 7.421875 C 24.335938 7.421875 23.828125 6.914063 23.828125 6.25 C 23.828125 4.53125 25.234375 3.125 26.953125 3.125 C 27.617188 3.125 28.125 3.632813 28.125 4.296875 C 28.125 4.960938 27.617188 5.46875 26.953125 5.46875 C 26.523438 5.46875 26.171875 5.820313 26.171875 6.25 C 26.171875 6.914063 25.664063 7.421875 25 7.421875 Z "/>
<path style=" stroke:none;fill-rule:nonzero;fill:#444B54;fill-opacity:1;" d="M 37.890625 13.671875 L 26.171875 13.671875 L 26.171875 10.15625 C 26.171875 9.492188 25.664063 8.984375 25 8.984375 C 24.335938 8.984375 23.828125 9.492188 23.828125 10.15625 L 23.828125 13.671875 L 12.109375 13.671875 C 11.445313 13.671875 10.9375 14.179688 10.9375 14.84375 L 10.9375 19.921875 C 10.9375 20.585938 11.445313 21.09375 12.109375 21.09375 L 34.6875 21.09375 L 32.890625 47.265625 L 17.109375 47.265625 L 15.507813 23.75 C 15.46875 23.085938 14.921875 22.617188 14.257813 22.65625 C 13.59375 22.695313 13.125 23.242188 13.164063 23.90625 L 14.84375 48.515625 C 14.882813 49.140625 15.390625 49.609375 16.015625 49.609375 L 33.984375 49.609375 C 34.609375 49.609375 35.117188 49.140625 35.15625 48.515625 L 37.03125 21.09375 L 37.890625 21.09375 C 38.554688 21.09375 39.0625 20.585938 39.0625 19.921875 L 39.0625 14.84375 C 39.0625 14.179688 38.554688 13.671875 37.890625 13.671875 Z M 13.28125 16.015625 L 36.71875 16.015625 L 36.71875 18.75 L 13.28125 18.75 Z "/>
</g>
</svg>
