<svg xmlns="http://www.w3.org/2000/svg" xmlns:xlink="http://www.w3.org/1999/xlink" width="50pt" height="50pt" version="1.1" viewBox="0 0 50 50"><g id="surface1"><path style="stroke:none;fill-rule:nonzero;fill:#000;fill-opacity:1" d="M 40.671875 36.632813 C 39.980469 36.632813 40.070313 37.703125 40.75 37.703125 C 41.453125 37.703125 41.367188 36.632813 40.671875 36.632813 Z"/><path style="stroke:none;fill-rule:nonzero;fill:#000;fill-opacity:1" d="M 41.953125 39.015625 C 41.835938 38.914063 41.710938 38.875 41.554688 38.875 L 41.453125 38.875 C 41.320313 38.875 41.179688 38.964844 41.09375 39.0625 C 40.996094 39.171875 40.945313 39.316406 40.957031 39.460938 C 40.96875 39.601563 41.035156 39.734375 41.140625 39.824219 C 41.257813 39.921875 41.386719 39.960938 41.542969 39.960938 L 41.640625 39.960938 C 41.777344 39.960938 41.914063 39.875 42 39.773438 C 42.101563 39.667969 42.148438 39.523438 42.140625 39.375 C 42.117188 39.238281 42.0625 39.101563 41.953125 39.015625 Z"/><path style="stroke:none;fill-rule:nonzero;fill:#ef4754;fill-opacity:1" d="M 29.382813 12.304688 C 28.496094 12.246094 27.890625 12.851563 27.34375 13.46875 C 27.03125 13.808594 26.71875 14.171875 26.378906 14.484375 C 26.582031 14.726563 26.796875 14.972656 27.011719 15.1875 C 27.089844 15.273438 27.140625 15.363281 27.160156 15.460938 C 27.179688 15.351563 27.1875 15.246094 27.1875 15.148438 C 27.199219 14.464844 28.261719 14.367188 28.261719 15.070313 L 28.261719 15.363281 C 28.261719 15.460938 28.242188 15.539063 28.203125 15.605469 C 27.976563 16.796875 27.117188 17.765625 25.761719 17.589844 C 25.078125 17.5 25.285156 16.445313 25.96875 16.53125 C 26.417969 16.59375 26.75 16.367188 26.945313 16.027344 C 26.769531 16.179688 26.503906 16.210938 26.289063 15.996094 C 26.007813 15.710938 25.734375 15.410156 25.46875 15.085938 C 25.410156 15.117188 25.351563 15.136719 25.292969 15.167969 C 24.835938 15.34375 24.347656 15.410156 23.867188 15.515625 C 23.507813 15.597656 23.007813 15.683594 22.734375 15.96875 C 22.246094 16.476563 22.238281 17.65625 22.902344 18 C 23.019531 17.988281 23.136719 18.007813 23.234375 18.085938 C 23.242188 18.085938 23.253906 18.085938 23.273438 18.085938 C 23.671875 18.105469 23.867188 18.484375 23.820313 18.78125 C 25.246094 20.226563 27.695313 20.28125 29.53125 19.617188 C 30.898438 19.121094 32.285156 18.125 32.636719 16.632813 C 33.144531 14.539063 31.53125 12.441406 29.382813 12.304688 Z"/><path style="stroke:none;fill-rule:nonzero;fill:#ef4823;fill-opacity:1" d="M 40.664063 34.511719 C 39.824219 34.875 38.945313 35.125 38.046875 35.28125 C 36.09375 35.625 34.042969 35.664063 32.070313 35.390625 C 30.984375 35.242188 29.902344 35.039063 28.808594 34.953125 C 27.804688 34.875 26.816406 34.773438 25.867188 34.382813 C 25.34375 34.757813 24.714844 34.960938 24.042969 34.875 C 23.339844 34.773438 22.753906 34.421875 22.335938 33.925781 C 22.273438 33.964844 22.195313 33.992188 22.109375 34.003906 C 21.269531 34.101563 20.429688 33.742188 19.601563 33.640625 C 18.730469 33.535156 17.890625 33.390625 17.0625 33.125 C 15.566406 32.65625 14.082031 32.128906 12.714844 31.355469 C 12.460938 32.285156 11.835938 33.210938 10.808594 33.289063 C 9.84375 33.359375 8.710938 32.636719 8.464844 31.648438 C 8.320313 31.054688 8.367188 30.429688 8.390625 29.8125 C 8.398438 29.667969 8.398438 29.519531 8.40625 29.375 C 8.390625 29.363281 8.378906 29.363281 8.359375 29.355469 C 7.539063 28.992188 6.671875 28.738281 5.867188 28.328125 C 5.554688 28.164063 5.203125 27.96875 4.902344 27.734375 C 4.875 27.742188 4.84375 27.742188 4.804688 27.753906 C 4.804688 27.773438 4.792969 27.800781 4.792969 27.820313 C 4.785156 27.976563 4.804688 28.144531 4.8125 28.300781 C 4.863281 28.71875 4.921875 28.964844 5.117188 29.375 C 5.710938 30.59375 6.828125 31.542969 7.871094 32.390625 C 9.902344 34.042969 12.546875 34.734375 15.078125 35.214844 C 17.859375 35.742188 20.625 36.074219 23.46875 36.132813 C 25.019531 36.160156 26.570313 36.160156 28.125 36.230469 C 29.640625 36.296875 31.140625 36.464844 32.65625 36.5625 C 34.160156 36.660156 35.78125 36.757813 37.265625 36.464844 C 38.066406 36.308594 38.867188 36.035156 39.609375 35.703125 C 40.644531 35.253906 42.101563 34.5 42.636719 33.386719 C 42.0625 33.859375 41.335938 34.21875 40.664063 34.511719 Z"/><path style="stroke:none;fill-rule:nonzero;fill:#c56528;fill-opacity:1" d="M 40.546875 43.28125 C 39.578125 43.71875 38.457031 43.828125 37.402344 43.835938 C 36.113281 43.847656 34.824219 43.710938 33.554688 43.523438 C 32.273438 43.339844 30.996094 43.117188 29.707031 43.015625 C 28.4375 42.910156 27.160156 43.027344 25.878906 42.960938 C 24.355469 42.871094 22.832031 42.558594 21.339844 42.285156 C 19.902344 42.023438 18.46875 41.816406 17.011719 41.632813 C 14.628906 41.335938 12.207031 41.074219 9.921875 40.3125 C 8.214844 39.746094 6.230469 38.90625 5.148438 37.390625 C 5.136719 37.609375 5.128906 37.820313 5.128906 38.039063 C 5.109375 39.074219 5.097656 40.195313 5.539063 41.164063 C 6.5625 43.429688 9.472656 43.566406 11.582031 43.984375 C 13.15625 44.296875 14.71875 44.65625 16.300781 44.914063 C 17.851563 45.167969 19.425781 45.320313 20.996094 45.410156 C 24.191406 45.59375 27.390625 45.578125 30.59375 45.664063 C 32.207031 45.714844 33.820313 45.773438 35.429688 45.800781 C 36.648438 45.820313 37.871094 45.871094 39.03125 45.460938 C 40.695313 44.882813 41.894531 43.671875 42.1875 42.042969 C 41.75 42.546875 41.210938 42.976563 40.546875 43.28125 Z"/><path style="stroke:none;fill-rule:nonzero;fill:#fcbf95;fill-opacity:1" d="M 23.984375 9.8125 C 24.015625 9.96875 24.054688 10.117188 24.09375 10.265625 C 24.394531 11.425781 24.988281 12.597656 25.722656 13.632813 C 25.734375 13.625 25.742188 13.613281 25.761719 13.601563 C 26.160156 13.210938 26.503906 12.78125 26.894531 12.382813 C 27.023438 12.253906 27.148438 12.136719 27.285156 12.03125 C 27.101563 10.605469 25.304688 9.980469 23.984375 9.8125 Z"/><path style="stroke:none;fill-rule:nonzero;fill:#d6e5e5;fill-opacity:1" d="M 42.675781 35.058594 C 41.5625 36.085938 39.941406 36.777344 38.71875 37.15625 C 37.03125 37.6875 35.265625 37.726563 33.507813 37.648438 C 31.933594 37.578125 30.371094 37.421875 28.800781 37.324219 C 29.042969 37.636719 28.945313 38.195313 28.445313 38.195313 C 27.921875 38.195313 27.753906 37.578125 28 37.273438 C 27.625 37.257813 27.265625 37.234375 26.894531 37.234375 C 24.695313 37.1875 22.492188 37.207031 20.300781 37.03125 C 20.332031 37.089844 20.351563 37.15625 20.351563 37.226563 L 20.351563 37.421875 C 20.351563 37.570313 20.320313 37.703125 20.214844 37.820313 C 20.125 37.929688 19.988281 37.988281 19.851563 38.007813 C 19.707031 38.015625 19.570313 37.96875 19.453125 37.871094 C 19.355469 37.78125 19.265625 37.648438 19.265625 37.507813 L 19.265625 37.3125 C 19.265625 37.179688 19.296875 37.0625 19.367188 36.960938 C 18.847656 36.90625 18.320313 36.84375 17.804688 36.757813 C 15.3125 36.355469 12.78125 35.976563 10.417969 35.046875 C 9.289063 34.609375 8.183594 34.042969 7.246094 33.273438 C 7.167969 33.210938 7.089844 33.144531 7.011719 33.078125 C 6.960938 33.261719 6.804688 33.40625 6.550781 33.40625 C 5.964844 33.40625 5.820313 32.625 6.210938 32.402344 C 5.605469 31.855469 5.027344 31.269531 4.578125 30.605469 C 4.363281 31.210938 4.707031 32.058594 4.851563 32.617188 C 5.058594 33.417969 5.136719 34.25 5.300781 35.058594 C 5.3125 35.109375 5.320313 35.15625 5.332031 35.203125 C 5.378906 35.1875 5.429688 35.164063 5.488281 35.164063 C 5.632813 35.15625 5.769531 35.203125 5.886719 35.304688 C 5.984375 35.390625 6.074219 35.527344 6.074219 35.664063 L 6.074219 35.761719 C 6.074219 35.90625 6.042969 36.046875 5.9375 36.164063 C 5.878906 36.230469 5.789063 36.289063 5.703125 36.320313 C 5.886719 36.710938 6.140625 37.0625 6.484375 37.34375 C 7.128906 37.882813 7.851563 38.320313 8.613281 38.671875 C 11.855469 40.15625 15.46875 40.285156 18.945313 40.78125 C 19.023438 40.792969 19.109375 40.8125 19.1875 40.820313 C 19.171875 40.8125 19.160156 40.800781 19.140625 40.792969 C 19.011719 40.683594 18.945313 40.507813 18.945313 40.34375 C 18.945313 40.195313 18.976563 40.058594 19.082031 39.941406 C 19.171875 39.835938 19.304688 39.773438 19.441406 39.757813 C 19.589844 39.746094 19.726563 39.796875 19.84375 39.890625 C 19.871094 39.914063 19.890625 39.941406 19.910156 39.96875 C 19.921875 39.980469 19.929688 39.980469 19.941406 39.992188 C 20.046875 40.078125 20.105469 40.214844 20.125 40.351563 C 20.136719 40.5 20.085938 40.632813 19.988281 40.75 C 19.929688 40.820313 19.84375 40.878906 19.746094 40.90625 C 20.984375 41.113281 22.214844 41.367188 23.457031 41.5625 C 23.40625 41.542969 23.367188 41.515625 23.328125 41.484375 C 23.230469 41.398438 23.144531 41.257813 23.144531 41.125 L 23.144531 41.023438 C 23.144531 40.878906 23.171875 40.742188 23.28125 40.625 C 23.367188 40.515625 23.503906 40.460938 23.640625 40.4375 C 23.789063 40.429688 23.925781 40.476563 24.042969 40.578125 C 24.140625 40.664063 24.226563 40.800781 24.226563 40.9375 L 24.226563 41.035156 C 24.226563 41.179688 24.199219 41.320313 24.089844 41.4375 C 24.003906 41.53125 23.886719 41.59375 23.757813 41.609375 C 24.480469 41.726563 25.195313 41.855469 25.9375 41.894531 C 26.003906 41.894531 26.0625 41.894531 26.132813 41.90625 C 26.035156 41.882813 25.945313 41.855469 25.867188 41.789063 C 25.761719 41.699219 25.703125 41.5625 25.683594 41.425781 C 25.671875 41.28125 25.722656 41.144531 25.820313 41.023438 C 25.839844 40.996094 25.867188 40.976563 25.898438 40.957031 C 25.90625 40.945313 25.90625 40.9375 25.917969 40.929688 C 26.003906 40.820313 26.140625 40.761719 26.277344 40.742188 C 26.425781 40.734375 26.5625 40.78125 26.679688 40.878906 C 26.777344 40.96875 26.863281 41.101563 26.863281 41.242188 C 26.863281 41.308594 26.863281 41.375 26.855469 41.445313 C 26.835938 41.554688 26.785156 41.640625 26.71875 41.71875 C 26.621094 41.835938 26.484375 41.894531 26.335938 41.90625 C 26.933594 41.921875 27.519531 41.921875 28.113281 41.914063 C 28.886719 41.90625 29.65625 41.964844 30.417969 42.042969 C 30.398438 41.992188 30.390625 41.953125 30.378906 41.894531 C 30.371094 41.75 30.417969 41.613281 30.515625 41.492188 C 30.605469 41.386719 30.742188 41.328125 30.878906 41.308594 C 31.015625 41.296875 31.171875 41.339844 31.277344 41.445313 C 31.328125 41.492188 31.375 41.554688 31.425781 41.609375 C 31.464844 41.660156 31.484375 41.71875 31.511719 41.769531 C 31.542969 41.835938 31.550781 41.925781 31.550781 42 C 31.550781 42.0625 31.542969 42.117188 31.53125 42.167969 C 33.328125 42.414063 35.117188 42.734375 36.933594 42.753906 C 38.015625 42.765625 39.285156 42.742188 40.261719 42.195313 C 40.253906 42.160156 40.242188 42.117188 40.242188 42.078125 C 40.234375 41.933594 40.28125 41.796875 40.378906 41.679688 C 40.46875 41.582031 40.605469 41.492188 40.742188 41.492188 L 40.839844 41.492188 C 40.9375 41.492188 41.023438 41.503906 41.101563 41.542969 C 41.503906 41.132813 41.824219 40.632813 42.050781 40.097656 C 42.742188 38.535156 42.832031 36.757813 42.675781 35.058594 Z M 7.167969 35.265625 C 6.476563 35.265625 6.398438 34.1875 7.089844 34.1875 C 7.773438 34.1875 7.859375 35.265625 7.167969 35.265625 Z M 8.601563 37.226563 L 8.507813 37.324219 C 8.40625 37.421875 8.289063 37.492188 8.144531 37.507813 C 7.996094 37.519531 7.859375 37.46875 7.742188 37.375 C 7.539063 37.1875 7.492188 36.828125 7.695313 36.609375 L 7.792969 36.515625 C 7.890625 36.414063 8.007813 36.347656 8.15625 36.328125 C 8.300781 36.320313 8.4375 36.367188 8.554688 36.464844 C 8.757813 36.660156 8.808594 37.023438 8.601563 37.226563 Z M 11.867188 35.851563 C 12.558594 35.851563 12.636719 36.921875 11.945313 36.921875 C 11.257813 36.921875 11.179688 35.851563 11.867188 35.851563 Z M 12.648438 38.5625 C 12.648438 39.257813 11.570313 39.335938 11.570313 38.640625 L 11.570313 38.574219 C 11.570313 37.882813 12.648438 37.804688 12.648438 38.496094 Z M 15.761719 37.703125 C 15.070313 37.703125 14.992188 36.632813 15.683594 36.632813 C 16.367188 36.632813 16.453125 37.703125 15.761719 37.703125 Z M 17.910156 39.367188 C 17.21875 39.367188 17.140625 38.289063 17.832031 38.289063 C 18.515625 38.289063 18.601563 39.367188 17.910156 39.367188 Z M 24.132813 38.886719 C 24.042969 38.984375 23.90625 39.070313 23.769531 39.070313 C 23.703125 39.070313 23.632813 39.070313 23.5625 39.0625 C 23.457031 39.042969 23.367188 38.992188 23.289063 38.925781 C 23.164063 38.816406 23.09375 38.640625 23.09375 38.476563 C 23.09375 38.328125 23.125 38.195313 23.234375 38.074219 C 23.320313 37.96875 23.457031 37.910156 23.59375 37.890625 C 23.742188 37.878906 23.875 37.929688 23.992188 38.027344 C 24.023438 38.046875 24.042969 38.074219 24.0625 38.105469 C 24.070313 38.113281 24.082031 38.113281 24.09375 38.125 C 24.199219 38.210938 24.257813 38.347656 24.277344 38.484375 C 24.277344 38.632813 24.226563 38.78125 24.132813 38.886719 Z M 31.261719 39.375 C 31.171875 39.484375 31.035156 39.539063 30.898438 39.5625 C 30.753906 39.570313 30.617188 39.523438 30.5 39.421875 C 30.46875 39.40625 30.449219 39.375 30.429688 39.34375 C 30.421875 39.335938 30.410156 39.335938 30.398438 39.328125 C 30.292969 39.238281 30.234375 39.101563 30.214844 38.964844 C 30.203125 38.820313 30.253906 38.679688 30.351563 38.5625 C 30.4375 38.46875 30.578125 38.378906 30.710938 38.378906 C 30.78125 38.378906 30.847656 38.378906 30.917969 38.390625 C 31.027344 38.40625 31.113281 38.457031 31.191406 38.523438 C 31.320313 38.632813 31.386719 38.808594 31.386719 38.976563 C 31.398438 39.132813 31.359375 39.265625 31.261719 39.375 Z M 32.765625 39.453125 C 32.753906 39.304688 32.804688 39.171875 32.898438 39.054688 C 32.988281 38.953125 33.125 38.867188 33.261719 38.867188 L 33.359375 38.867188 C 33.507813 38.867188 33.640625 38.898438 33.757813 39.003906 C 33.867188 39.089844 33.925781 39.226563 33.945313 39.367188 C 33.953125 39.511719 33.90625 39.648438 33.808594 39.765625 C 33.71875 39.863281 33.585938 39.953125 33.445313 39.953125 L 33.351563 39.953125 C 33.203125 39.953125 33.066406 39.921875 32.949219 39.8125 C 32.84375 39.726563 32.773438 39.589844 32.765625 39.453125 Z M 34.226563 41.71875 C 34.226563 41.867188 34.199219 42 34.09375 42.117188 C 34.003906 42.226563 33.867188 42.285156 33.730469 42.304688 C 33.585938 42.3125 33.449219 42.265625 33.328125 42.167969 C 33.234375 42.078125 33.144531 41.945313 33.144531 41.804688 L 33.144531 41.710938 C 33.144531 41.5625 33.175781 41.425781 33.28125 41.308594 C 33.367188 41.203125 33.507813 41.140625 33.640625 41.125 C 33.789063 41.113281 33.925781 41.164063 34.042969 41.257813 C 34.140625 41.347656 34.226563 41.484375 34.226563 41.621094 Z M 35.265625 38.59375 L 35.164063 38.691406 C 35.070313 38.789063 34.953125 38.859375 34.804688 38.875 C 34.65625 38.886719 34.523438 38.835938 34.40625 38.742188 C 34.199219 38.554688 34.148438 38.195313 34.355469 37.976563 L 34.453125 37.882813 C 34.550781 37.78125 34.667969 37.714844 34.8125 37.695313 C 34.960938 37.6875 35.097656 37.734375 35.214844 37.832031 C 35.421875 38.027344 35.46875 38.390625 35.265625 38.59375 Z M 37.039063 40.5 C 36.945313 40.410156 36.855469 40.273438 36.855469 40.136719 L 36.855469 40.039063 C 36.855469 39.890625 36.886719 39.757813 36.992188 39.640625 C 37.078125 39.53125 37.21875 39.472656 37.351563 39.453125 C 37.5 39.445313 37.636719 39.492188 37.753906 39.589844 C 37.851563 39.675781 37.9375 39.8125 37.9375 39.953125 L 37.9375 40.046875 C 37.9375 40.195313 37.910156 40.332031 37.804688 40.449219 C 37.714844 40.554688 37.578125 40.617188 37.441406 40.632813 C 37.296875 40.644531 37.148438 40.59375 37.039063 40.5 Z M 37.832031 42.585938 C 37.136719 42.585938 37.0625 41.515625 37.753906 41.515625 C 38.4375 41.515625 38.523438 42.585938 37.832031 42.585938 Z M 39.394531 38.484375 C 38.699219 38.484375 38.625 37.414063 39.316406 37.414063 C 40 37.414063 40.085938 38.484375 39.394531 38.484375 Z M 40.761719 37.703125 C 40.066406 37.703125 39.992188 36.632813 40.683594 36.632813 C 41.367188 36.632813 41.453125 37.703125 40.761719 37.703125 Z M 42 39.765625 C 41.914063 39.863281 41.777344 39.953125 41.640625 39.953125 L 41.542969 39.953125 C 41.398438 39.953125 41.261719 39.921875 41.140625 39.8125 C 41.035156 39.726563 40.976563 39.589844 40.957031 39.453125 C 40.945313 39.304688 40.996094 39.171875 41.09375 39.054688 C 41.179688 38.953125 41.320313 38.867188 41.453125 38.867188 L 41.554688 38.867188 C 41.699219 38.867188 41.835938 38.898438 41.953125 39.003906 C 42.0625 39.089844 42.117188 39.226563 42.140625 39.367188 C 42.148438 39.511719 42.101563 39.65625 42 39.765625 Z"/><path style="stroke:none;fill-rule:nonzero;fill:#fcbf95;fill-opacity:1" d="M 42.023438 23.507813 C 41.132813 22.421875 40.15625 21.414063 39.132813 20.460938 C 37.414063 18.859375 35.585938 17.363281 33.835938 15.800781 C 33.835938 15.898438 33.835938 15.988281 33.828125 16.085938 C 33.730469 17.703125 32.703125 19.109375 31.347656 19.941406 C 28.730469 21.542969 24.5625 21.691406 22.617188 18.976563 C 21.640625 18.546875 21.09375 17.402344 21.398438 16.289063 C 21.789063 14.890625 22.960938 14.640625 24.210938 14.355469 C 24.414063 14.304688 24.617188 14.257813 24.804688 14.191406 C 23.875 12.863281 23.164063 11.335938 22.898438 9.785156 C 22.898438 9.777344 22.898438 9.757813 22.890625 9.746094 C 22.011719 9.738281 21.152344 9.84375 20.3125 10.15625 C 19.023438 10.636719 17.820313 11.335938 16.609375 11.972656 C 14.238281 13.203125 11.785156 14.328125 9.460938 15.65625 C 8.429688 16.25 7.390625 16.90625 6.5625 17.765625 C 6.191406 18.144531 5.722656 18.625 5.644531 19.171875 C 5.546875 19.824219 6.074219 20 6.484375 20.351563 C 13.605469 22.492188 20.828125 24.265625 28.066406 25.988281 C 29.5625 26.339844 31.082031 26.652344 32.546875 27.121094 C 33.925781 27.558594 35.273438 28.085938 36.679688 28.4375 C 38 28.769531 39.285156 28.925781 40.632813 28.703125 C 41.609375 28.535156 43.203125 28.15625 43.46875 27.003906 C 43.75 25.703125 42.78125 24.445313 42.023438 23.507813 Z"/><path style="stroke:none;fill-rule:nonzero;fill:#c56528;fill-opacity:1" d="M 21.75 32.859375 C 21.4375 31.921875 21.386719 30.9375 21.074219 30 C 20.96875 29.6875 20.820313 29.101563 20.476563 28.964844 C 20.15625 28.835938 19.8125 29.277344 19.648438 29.480469 C 19.101563 30.125 18.46875 31.082031 17.507813 31.054688 C 16.523438 31.023438 15.984375 30.175781 15.722656 29.328125 C 15.496094 28.613281 15.222656 27.179688 14.160156 27.871094 C 13.679688 28.183594 13.320313 28.625 13.105469 29.152344 C 12.957031 29.492188 12.910156 29.863281 12.878906 30.226563 C 12.898438 30.234375 12.910156 30.246094 12.929688 30.253906 C 14.324219 31.074219 15.867188 31.652344 17.410156 32.121094 C 18.191406 32.355469 18.992188 32.480469 19.792969 32.589844 C 20.4375 32.667969 21.121094 32.941406 21.777344 32.949219 C 21.765625 32.910156 21.757813 32.882813 21.75 32.859375 Z"/><path style="stroke:none;fill-rule:nonzero;fill:#d6e5e5;fill-opacity:1" d="M 41.542969 29.601563 C 40.304688 29.882813 39.070313 29.972656 37.8125 29.765625 C 36.398438 29.53125 35.039063 29.070313 33.691406 28.613281 C 30.75 27.609375 27.703125 27 24.6875 26.28125 C 18.507813 24.796875 12.335938 23.222656 6.242188 21.398438 C 6.171875 21.378906 6.105469 21.339844 6.054688 21.300781 C 5.96875 21.289063 5.878906 21.242188 5.789063 21.171875 C 5.546875 20.957031 5.226563 20.839844 5.019531 20.578125 C 4.992188 20.539063 4.960938 20.5 4.933594 20.460938 C 4.804688 20.996094 4.707031 21.542969 4.648438 22.089844 C 4.648438 22.128906 4.640625 22.335938 4.640625 22.15625 C 4.640625 22.246094 4.628906 22.324219 4.617188 22.414063 C 4.601563 22.609375 4.570313 22.804688 4.550781 22.988281 C 4.5 23.445313 4.453125 23.90625 4.484375 24.367188 C 4.5 24.65625 4.511719 25.292969 4.824219 25.460938 C 5.253906 25.683594 5.65625 25.34375 5.996094 25.105469 C 6.660156 24.667969 7.527344 24.246094 8.300781 24.695313 C 9.601563 25.449219 9.523438 27.382813 9.484375 28.679688 C 9.460938 29.402344 9.394531 30.136719 9.433594 30.859375 C 9.453125 31.25 9.441406 31.367188 9.679688 31.671875 C 9.921875 31.984375 10.371094 32.34375 10.800781 32.195313 C 12 31.777344 11.710938 30.039063 11.992188 29.070313 C 12.273438 28.09375 13.117188 26.953125 14.148438 26.699219 C 15.253906 26.425781 16.0625 26.992188 16.4375 28.027344 C 16.59375 28.46875 16.808594 30.039063 17.519531 29.980469 C 17.921875 29.953125 18.242188 29.503906 18.476563 29.210938 C 18.761719 28.867188 19.023438 28.507813 19.375 28.234375 C 20.164063 27.628906 21.210938 27.84375 21.6875 28.710938 C 22.15625 29.5625 22.335938 30.5 22.5 31.433594 C 22.664063 32.382813 22.96875 33.640625 24.101563 33.796875 C 25.332031 33.964844 26.074219 32.753906 26.476563 31.765625 C 26.855469 30.839844 27.207031 29.832031 28.195313 29.402344 C 29.21875 28.964844 30.429688 28.964844 31.378906 29.589844 C 32.34375 30.234375 32.609375 31.277344 33.273438 32.167969 C 33.898438 33.015625 34.824219 32.851563 35.65625 32.332031 C 36.632813 31.726563 37.539063 30.898438 38.757813 30.945313 C 39.824219 30.996094 40.976563 31.589844 41.921875 30.800781 C 42.375 30.417969 42.664063 29.941406 42.890625 29.421875 C 42.898438 29.316406 42.9375 29.21875 43.007813 29.140625 C 43.027344 29.082031 43.054688 29.023438 43.078125 28.964844 C 42.625 29.257813 42.101563 29.460938 41.542969 29.601563 Z"/><path style="stroke:none;fill-rule:nonzero;fill:#c56528;fill-opacity:1" d="M 42.429688 31.777344 C 41.90625 32.128906 41.28125 32.324219 40.632813 32.296875 C 40.320313 32.273438 40.011719 32.257813 39.707031 32.195313 C 39.394531 32.140625 39.042969 32.011719 38.71875 32.023438 C 37.507813 32.050781 36.710938 33.164063 35.625 33.574219 C 34.71875 33.914063 33.652344 34.042969 32.882813 33.328125 C 32.53125 33.007813 32.257813 32.609375 32.03125 32.1875 C 31.777344 31.71875 31.582031 31.191406 31.191406 30.808594 C 30.8125 30.4375 30.3125 30.136719 29.765625 30.15625 C 29.304688 30.164063 28.652344 30.242188 28.308594 30.59375 C 27.597656 31.328125 27.449219 32.480469 26.894531 33.328125 C 26.84375 33.40625 26.785156 33.476563 26.738281 33.554688 C 27.480469 33.78125 28.25 33.828125 29.023438 33.898438 C 29.929688 33.976563 30.828125 34.121094 31.726563 34.257813 C 33.496094 34.519531 35.273438 34.5625 37.050781 34.34375 C 38.652344 34.148438 40.222656 33.699219 41.582031 32.800781 C 42.078125 32.46875 42.46875 32.039063 42.753906 31.53125 C 42.648438 31.621094 42.539063 31.699219 42.429688 31.777344 Z"/><path style="stroke:none;fill-rule:nonzero;fill:#000;fill-opacity:1" d="M 44.460938 27.273438 C 44.539063 27.023438 44.589844 26.75 44.589844 26.457031 C 44.628906 24.726563 43.136719 23.117188 42.070313 21.914063 C 39.484375 18.984375 36.296875 16.660156 33.457031 14.003906 C 33.445313 13.996094 33.429688 13.984375 33.40625 13.964844 C 32.792969 12.667969 31.570313 11.679688 30.125 11.328125 C 29.453125 11.164063 28.828125 11.210938 28.261719 11.4375 C 27.820313 9.894531 25.996094 9.09375 24.5 8.800781 C 24.277344 8.75 24.042969 8.722656 23.808594 8.691406 C 23.75 8.164063 23.742188 7.628906 23.769531 7.140625 C 23.789063 6.828125 23.859375 6.523438 23.925781 6.222656 C 23.953125 6.09375 23.992188 5.957031 24.042969 5.832031 C 24.101563 5.695313 24.265625 5.558594 24.089844 5.636719 C 24.734375 5.382813 24.382813 4.367188 23.738281 4.621094 C 23.066406 4.882813 22.898438 5.832031 22.773438 6.457031 C 22.636719 7.160156 22.65625 7.902344 22.734375 8.632813 C 22.175781 8.632813 21.628906 8.691406 21.101563 8.800781 C 19.746094 9.082031 18.542969 9.746094 17.324219 10.382813 C 14.695313 11.75 12.019531 13.039063 9.414063 14.445313 C 8.269531 15.058594 7.15625 15.753906 6.191406 16.621094 C 5.867188 16.914063 5.515625 17.246094 5.234375 17.628906 C 4.207031 17.65625 3.835938 20.382813 3.730469 20.988281 C 3.613281 21.640625 3.5625 22.179688 3.496094 22.773438 C 3.386719 23.703125 3.269531 24.746094 3.660156 25.625 C 3.789063 25.910156 3.964844 26.125 4.167969 26.28125 C 4.148438 26.339844 4.148438 26.398438 4.148438 26.457031 C 4.160156 26.554688 4.167969 26.640625 4.199219 26.738281 C 3.867188 26.972656 3.71875 27.511719 3.730469 28 C 3.730469 28.535156 3.847656 29.042969 4.050781 29.53125 C 4.03125 29.550781 4.011719 29.5625 4.003906 29.582031 C 3.210938 30.460938 3.542969 31.691406 3.816406 32.703125 C 3.964844 33.261719 4.0625 33.839844 4.148438 34.40625 C 4.082031 34.492188 4.050781 34.609375 4.0625 34.757813 C 4.316406 37.023438 3.601563 39.453125 4.578125 41.621094 C 5.691406 44.09375 8.464844 44.433594 10.820313 44.902344 C 13.953125 45.527344 17.039063 46.183594 20.234375 46.417969 C 23.390625 46.640625 26.5625 46.632813 29.726563 46.699219 C 31.59375 46.738281 33.46875 46.816406 35.332031 46.855469 C 36.765625 46.886719 38.152344 46.894531 39.519531 46.425781 C 41.953125 45.585938 43.515625 43.417969 43.328125 40.832031 C 43.320313 40.664063 43.242188 40.539063 43.144531 40.460938 C 43.90625 38.605469 43.9375 36.308594 43.71875 34.484375 C 43.699219 34.308594 43.613281 34.179688 43.496094 34.101563 C 43.855469 33.496094 44.042969 32.8125 43.914063 32.042969 C 43.90625 31.964844 43.875 31.894531 43.847656 31.835938 C 44.257813 31.054688 44.453125 30.148438 44.082031 29.40625 C 44.265625 28.917969 44.433594 28.410156 44.648438 27.929688 C 44.726563 27.6875 44.640625 27.429688 44.460938 27.273438 Z M 29.382813 12.304688 C 31.523438 12.441406 33.144531 14.539063 32.65625 16.621094 C 32.304688 18.117188 30.917969 19.109375 29.550781 19.609375 C 27.714844 20.273438 25.273438 20.214844 23.835938 18.769531 C 23.886719 18.46875 23.691406 18.085938 23.289063 18.078125 C 23.28125 18.078125 23.273438 18.078125 23.25 18.078125 C 23.152344 18 23.027344 17.96875 22.917969 17.988281 C 22.253906 17.648438 22.265625 16.464844 22.753906 15.957031 C 23.027344 15.671875 23.523438 15.59375 23.886719 15.507813 C 24.363281 15.398438 24.851563 15.332031 25.3125 15.15625 C 25.371094 15.136719 25.429688 15.105469 25.488281 15.078125 C 25.75 15.398438 26.023438 15.703125 26.308594 15.984375 C 26.523438 16.199219 26.785156 16.171875 26.960938 16.015625 C 26.757813 16.347656 26.4375 16.582031 25.984375 16.523438 C 25.300781 16.4375 25.097656 17.492188 25.78125 17.578125 C 27.128906 17.765625 27.996094 16.789063 28.222656 15.59375 C 28.261719 15.527344 28.28125 15.4375 28.28125 15.351563 L 28.28125 15.058594 C 28.28125 14.367188 27.226563 14.453125 27.207031 15.136719 C 27.207031 15.242188 27.195313 15.351563 27.175781 15.449219 C 27.15625 15.351563 27.109375 15.261719 27.03125 15.175781 C 26.816406 14.949219 26.601563 14.714844 26.394531 14.472656 C 26.746094 14.160156 27.058594 13.808594 27.363281 13.457031 C 27.890625 12.851563 28.503906 12.246094 29.382813 12.304688 Z M 27.273438 12.023438 C 27.140625 12.128906 27.011719 12.246094 26.882813 12.371094 C 26.492188 12.761719 26.152344 13.203125 25.75 13.59375 C 25.742188 13.601563 25.734375 13.613281 25.710938 13.625 C 24.980469 12.585938 24.394531 11.414063 24.082031 10.253906 C 24.042969 10.109375 24.015625 9.960938 23.976563 9.804688 C 25.304688 9.980469 27.101563 10.605469 27.273438 12.023438 Z M 39.023438 45.460938 C 37.851563 45.859375 36.632813 45.820313 35.421875 45.800781 C 33.808594 45.773438 32.199219 45.710938 30.585938 45.664063 C 27.382813 45.578125 24.179688 45.59375 20.988281 45.410156 C 19.414063 45.3125 17.84375 45.15625 16.289063 44.914063 C 14.707031 44.65625 13.136719 44.296875 11.574219 43.984375 C 9.464844 43.5625 6.542969 43.429688 5.527344 41.164063 C 5.089844 40.195313 5.097656 39.082031 5.117188 38.039063 C 5.117188 37.820313 5.128906 37.609375 5.136719 37.390625 C 6.230469 38.90625 8.203125 39.746094 9.914063 40.3125 C 12.199219 41.0625 14.621094 41.335938 17.003906 41.628906 C 18.457031 41.804688 19.890625 42.011719 21.328125 42.285156 C 22.832031 42.558594 24.347656 42.882813 25.871094 42.957031 C 27.140625 43.027344 28.429688 42.917969 29.699219 43.015625 C 30.984375 43.125 32.265625 43.347656 33.546875 43.523438 C 34.824219 43.710938 36.101563 43.847656 37.390625 43.835938 C 38.445313 43.828125 39.570313 43.730469 40.539063 43.28125 C 41.203125 42.976563 41.738281 42.546875 42.167969 42.039063 C 41.894531 43.671875 40.695313 44.882813 39.023438 45.460938 Z M 42.078125 40.117188 C 41.855469 40.664063 41.53125 41.152344 41.132813 41.5625 C 41.054688 41.523438 40.96875 41.515625 40.867188 41.515625 L 40.773438 41.515625 C 40.632813 41.515625 40.5 41.601563 40.410156 41.699219 C 40.3125 41.804688 40.265625 41.953125 40.273438 42.101563 C 40.273438 42.140625 40.285156 42.179688 40.292969 42.21875 C 39.304688 42.765625 38.046875 42.773438 36.960938 42.773438 C 35.148438 42.765625 33.359375 42.441406 31.5625 42.1875 C 31.570313 42.128906 31.582031 42.078125 31.582031 42.023438 C 31.582031 41.945313 31.570313 41.855469 31.542969 41.789063 C 31.523438 41.738281 31.492188 41.671875 31.457031 41.632813 C 31.40625 41.570313 31.359375 41.523438 31.308594 41.464844 C 31.210938 41.367188 31.046875 41.320313 30.90625 41.328125 C 30.773438 41.339844 30.632813 41.40625 30.546875 41.515625 C 30.449219 41.621094 30.398438 41.769531 30.410156 41.914063 C 30.410156 41.964844 30.429688 42.011719 30.449219 42.0625 C 29.6875 41.984375 28.917969 41.925781 28.144531 41.933594 C 27.546875 41.945313 26.960938 41.933594 26.367188 41.921875 C 26.515625 41.90625 26.648438 41.84375 26.746094 41.738281 C 26.816406 41.660156 26.863281 41.574219 26.882813 41.464844 C 26.894531 41.398438 26.894531 41.328125 26.894531 41.257813 C 26.894531 41.125 26.804688 40.984375 26.710938 40.898438 C 26.601563 40.800781 26.453125 40.75 26.308594 40.761719 C 26.171875 40.773438 26.035156 40.839844 25.945313 40.945313 C 25.9375 40.957031 25.9375 40.96875 25.929688 40.976563 C 25.898438 40.996094 25.867188 41.023438 25.851563 41.046875 C 25.75 41.152344 25.703125 41.296875 25.710938 41.445313 C 25.722656 41.582031 25.792969 41.71875 25.898438 41.804688 C 25.976563 41.875 26.0625 41.914063 26.160156 41.921875 C 26.09375 41.921875 26.035156 41.921875 25.964844 41.914063 C 25.234375 41.875 24.511719 41.75 23.789063 41.632813 C 23.914063 41.609375 24.03125 41.554688 24.121094 41.453125 C 24.21875 41.335938 24.257813 41.210938 24.257813 41.054688 L 24.257813 40.957031 C 24.257813 40.820313 24.167969 40.683594 24.070313 40.59375 C 23.964844 40.5 23.816406 40.449219 23.671875 40.460938 C 23.535156 40.46875 23.398438 40.539063 23.3125 40.644531 C 23.210938 40.761719 23.171875 40.890625 23.171875 41.046875 L 23.171875 41.140625 C 23.171875 41.28125 23.261719 41.414063 23.359375 41.503906 C 23.398438 41.53125 23.4375 41.5625 23.484375 41.582031 C 22.246094 41.398438 21.015625 41.132813 19.773438 40.929688 C 19.863281 40.898438 19.953125 40.839844 20.019531 40.773438 C 20.117188 40.664063 20.164063 40.515625 20.15625 40.371094 C 20.148438 40.234375 20.078125 40.097656 19.96875 40.007813 C 19.960938 40 19.953125 40 19.941406 39.992188 C 19.921875 39.960938 19.890625 39.929688 19.875 39.914063 C 19.765625 39.8125 19.617188 39.765625 19.472656 39.773438 C 19.335938 39.785156 19.199219 39.851563 19.109375 39.960938 C 19.015625 40.078125 18.976563 40.203125 18.976563 40.359375 C 18.976563 40.527344 19.03125 40.703125 19.171875 40.8125 C 19.179688 40.820313 19.199219 40.828125 19.21875 40.839844 C 19.140625 40.828125 19.054688 40.8125 18.976563 40.800781 C 15.5 40.304688 11.886719 40.175781 8.644531 38.691406 C 7.871094 38.339844 7.160156 37.898438 6.515625 37.363281 C 6.171875 37.082031 5.917969 36.71875 5.734375 36.335938 C 5.820313 36.308594 5.898438 36.257813 5.96875 36.179688 C 6.066406 36.0625 6.105469 35.9375 6.105469 35.78125 L 6.105469 35.683594 C 6.105469 35.546875 6.015625 35.410156 5.917969 35.320313 C 5.8125 35.226563 5.664063 35.175781 5.519531 35.1875 C 5.46875 35.1875 5.410156 35.203125 5.363281 35.226563 C 5.351563 35.175781 5.34375 35.125 5.332031 35.078125 C 5.167969 34.265625 5.089844 33.4375 4.882813 32.636719 C 4.738281 32.078125 4.394531 31.230469 4.609375 30.625 C 5.058594 31.289063 5.636719 31.875 6.242188 32.421875 C 5.839844 32.644531 5.988281 33.425781 6.582031 33.425781 C 6.835938 33.425781 6.984375 33.28125 7.042969 33.09375 C 7.121094 33.164063 7.199219 33.222656 7.277344 33.289063 C 8.222656 34.0625 9.328125 34.617188 10.449219 35.070313 C 12.8125 35.984375 15.34375 36.375 17.832031 36.777344 C 18.351563 36.863281 18.867188 36.921875 19.394531 36.984375 C 19.316406 37.089844 19.296875 37.207031 19.296875 37.335938 L 19.296875 37.53125 C 19.296875 37.664063 19.386719 37.804688 19.484375 37.890625 C 19.589844 37.988281 19.738281 38.039063 19.882813 38.027344 C 20.019531 38.015625 20.15625 37.949219 20.242188 37.84375 C 20.34375 37.726563 20.382813 37.597656 20.382813 37.441406 L 20.382813 37.246094 C 20.382813 37.179688 20.363281 37.117188 20.332031 37.050781 C 22.519531 37.21875 24.726563 37.207031 26.925781 37.257813 C 27.296875 37.265625 27.65625 37.273438 28.027344 37.296875 C 27.785156 37.597656 27.960938 38.210938 28.476563 38.210938 C 28.976563 38.210938 29.074219 37.65625 28.828125 37.34375 C 30.402344 37.441406 31.964844 37.597656 33.535156 37.664063 C 35.292969 37.742188 37.0625 37.703125 38.75 37.179688 C 39.972656 36.796875 41.59375 36.101563 42.707031 35.078125 C 42.832031 36.757813 42.742188 38.535156 42.078125 40.117188 Z M 5.859375 28.320313 C 6.660156 28.730469 7.519531 28.992188 8.351563 29.34375 C 8.367188 29.355469 8.378906 29.355469 8.398438 29.367188 C 8.390625 29.511719 8.390625 29.65625 8.378906 29.804688 C 8.359375 30.410156 8.3125 31.042969 8.457031 31.640625 C 8.691406 32.625 9.832031 33.351563 10.800781 33.28125 C 11.835938 33.210938 12.453125 32.273438 12.703125 31.347656 C 14.070313 32.109375 15.554688 32.648438 17.050781 33.117188 C 17.882813 33.378906 18.730469 33.515625 19.589844 33.632813 C 20.421875 33.742188 21.257813 34.09375 22.101563 33.992188 C 22.1875 33.984375 22.265625 33.957031 22.324219 33.914063 C 22.742188 34.421875 23.328125 34.773438 24.03125 34.863281 C 24.695313 34.953125 25.332031 34.746094 25.859375 34.375 C 26.796875 34.757813 27.78125 34.851563 28.800781 34.941406 C 29.894531 35.03125 30.976563 35.234375 32.0625 35.382813 C 34.023438 35.65625 36.074219 35.617188 38.039063 35.273438 C 38.9375 35.117188 39.8125 34.863281 40.65625 34.5 C 41.328125 34.210938 42.050781 33.847656 42.625 33.359375 C 42.089844 34.472656 40.644531 35.226563 39.601563 35.671875 C 38.847656 35.996094 38.054688 36.269531 37.257813 36.4375 C 35.773438 36.726563 34.148438 36.632813 32.648438 36.53125 C 31.132813 36.4375 29.628906 36.269531 28.117188 36.203125 C 26.5625 36.132813 25.011719 36.132813 23.457031 36.105469 C 20.625 36.046875 17.851563 35.714844 15.070313 35.1875 C 12.539063 34.707031 9.902344 34.023438 7.863281 32.363281 C 6.828125 31.523438 5.714844 30.566406 5.109375 29.347656 C 4.902344 28.9375 4.84375 28.683594 4.804688 28.273438 C 4.785156 28.117188 4.777344 27.949219 4.785156 27.792969 C 4.785156 27.773438 4.796875 27.746094 4.796875 27.726563 C 4.824219 27.726563 4.863281 27.714844 4.894531 27.707031 C 5.195313 27.960938 5.546875 28.15625 5.859375 28.320313 Z M 5.265625 26.574219 C 5.539063 26.542969 5.8125 26.464844 6.074219 26.328125 C 6.621094 26.054688 7.375 25.273438 7.910156 25.734375 C 8.320313 26.074219 8.359375 26.894531 8.398438 27.414063 C 8.417969 27.6875 8.429688 27.960938 8.429688 28.230469 C 7.871094 28.007813 7.304688 27.8125 6.757813 27.566406 C 6.375 27.382813 5.476563 27.050781 5.265625 26.574219 Z M 12.882813 30.214844 C 12.921875 29.84375 12.960938 29.480469 13.105469 29.140625 C 13.332031 28.613281 13.691406 28.171875 14.160156 27.859375 C 15.226563 27.167969 15.5 28.59375 15.722656 29.316406 C 15.988281 30.164063 16.523438 31.015625 17.511719 31.042969 C 18.46875 31.074219 19.101563 30.117188 19.648438 29.472656 C 19.824219 29.265625 20.15625 28.828125 20.480469 28.953125 C 20.820313 29.089844 20.96875 29.675781 21.074219 29.988281 C 21.386719 30.925781 21.4375 31.914063 21.75 32.851563 C 21.757813 32.878906 21.769531 32.898438 21.777344 32.929688 C 21.125 32.929688 20.441406 32.644531 19.796875 32.566406 C 18.984375 32.46875 18.195313 32.34375 17.414063 32.097656 C 15.871094 31.628906 14.328125 31.054688 12.929688 30.234375 C 12.910156 30.234375 12.898438 30.226563 12.882813 30.214844 Z M 41.570313 32.804688 C 40.214844 33.703125 38.640625 34.148438 37.039063 34.34375 C 35.265625 34.5625 33.484375 34.523438 31.71875 34.257813 C 30.820313 34.121094 29.921875 33.976563 29.015625 33.898438 C 28.242188 33.835938 27.46875 33.78125 26.730469 33.554688 C 26.789063 33.476563 26.835938 33.40625 26.886719 33.328125 C 27.441406 32.480469 27.589844 31.328125 28.300781 30.59375 C 28.644531 30.242188 29.296875 30.167969 29.757813 30.15625 C 30.3125 30.148438 30.800781 30.4375 31.183594 30.8125 C 31.5625 31.179688 31.769531 31.71875 32.023438 32.1875 C 32.246094 32.609375 32.519531 33 32.871094 33.328125 C 33.644531 34.042969 34.707031 33.914063 35.617188 33.574219 C 36.691406 33.164063 37.492188 32.050781 38.710938 32.023438 C 39.035156 32.011719 39.386719 32.140625 39.699219 32.199219 C 40.011719 32.257813 40.3125 32.277344 40.625 32.296875 C 41.269531 32.324219 41.886719 32.140625 42.421875 31.777344 C 42.539063 31.699219 42.648438 31.621094 42.746094 31.535156 C 42.460938 32.039063 42.070313 32.46875 41.570313 32.804688 Z M 43.027344 29.140625 C 42.960938 29.21875 42.910156 29.316406 42.910156 29.421875 C 42.6875 29.941406 42.390625 30.417969 41.945313 30.800781 C 40.996094 31.601563 39.855469 30.996094 38.78125 30.945313 C 37.558594 30.898438 36.640625 31.726563 35.675781 32.335938 C 34.84375 32.851563 33.917969 33.015625 33.292969 32.167969 C 32.636719 31.277344 32.375 30.234375 31.398438 29.589844 C 30.449219 28.964844 29.238281 28.953125 28.214844 29.40625 C 27.21875 29.835938 26.867188 30.839844 26.496094 31.765625 C 26.09375 32.742188 25.351563 33.964844 24.121094 33.796875 C 22.980469 33.640625 22.6875 32.382813 22.519531 31.4375 C 22.355469 30.488281 22.179688 29.550781 21.710938 28.710938 C 21.230469 27.84375 20.1875 27.628906 19.394531 28.234375 C 19.042969 28.507813 18.769531 28.867188 18.496094 29.210938 C 18.261719 29.492188 17.949219 29.941406 17.539063 29.980469 C 16.828125 30.039063 16.621094 28.46875 16.457031 28.027344 C 16.085938 27.003906 15.273438 26.4375 14.171875 26.699219 C 13.136719 26.953125 12.296875 28.097656 12.011719 29.074219 C 11.730469 30.039063 12.03125 31.777344 10.820313 32.199219 C 10.390625 32.34375 9.941406 31.984375 9.699219 31.671875 C 9.464844 31.367188 9.464844 31.242188 9.453125 30.859375 C 9.425781 30.136719 9.492188 29.40625 9.503906 28.683594 C 9.542969 27.382813 9.621094 25.460938 8.320313 24.699219 C 7.539063 24.238281 6.679688 24.660156 6.015625 25.109375 C 5.664063 25.34375 5.265625 25.683594 4.84375 25.460938 C 4.53125 25.292969 4.523438 24.660156 4.503906 24.367188 C 4.472656 23.90625 4.523438 23.449219 4.570313 22.988281 C 4.589844 22.792969 4.621094 22.597656 4.640625 22.414063 C 4.648438 22.324219 4.660156 22.246094 4.660156 22.160156 C 4.660156 22.34375 4.667969 22.128906 4.667969 22.089844 C 4.726563 21.542969 4.835938 20.996094 4.953125 20.460938 C 4.980469 20.5 5.011719 20.539063 5.039063 20.578125 C 5.246094 20.839844 5.566406 20.957031 5.8125 21.171875 C 5.898438 21.242188 5.988281 21.289063 6.074219 21.300781 C 6.125 21.339844 6.191406 21.367188 6.261719 21.398438 C 12.355469 23.234375 18.527344 24.796875 24.707031 26.28125 C 27.726563 27.003906 30.773438 27.609375 33.710938 28.613281 C 35.070313 29.074219 36.414063 29.53125 37.832031 29.765625 C 39.09375 29.972656 40.320313 29.894531 41.5625 29.601563 C 42.117188 29.472656 42.65625 29.269531 43.117188 28.976563 C 43.066406 29.023438 43.046875 29.082031 43.027344 29.140625 Z M 43.457031 26.984375 C 43.195313 28.136719 41.609375 28.527344 40.625 28.679688 C 39.277344 28.90625 37.988281 28.75 36.671875 28.417969 C 35.265625 28.066406 33.914063 27.539063 32.539063 27.101563 C 31.074219 26.632813 29.550781 26.328125 28.054688 25.964844 C 20.820313 24.257813 13.605469 22.480469 6.476563 20.332031 C 6.054688 19.980469 5.539063 19.8125 5.636719 19.148438 C 5.714844 18.601563 6.191406 18.125 6.554688 17.742188 C 7.382813 16.882813 8.429688 16.230469 9.453125 15.632813 C 11.769531 14.296875 14.230469 13.183594 16.601563 11.953125 C 17.8125 11.320313 19.015625 10.613281 20.304688 10.136719 C 21.140625 9.824219 22 9.707031 22.882813 9.726563 C 22.882813 9.734375 22.882813 9.753906 22.890625 9.765625 C 23.144531 11.308594 23.859375 12.832031 24.796875 14.171875 C 24.609375 14.238281 24.414063 14.296875 24.199219 14.335938 C 22.949219 14.617188 21.777344 14.871094 21.386719 16.269531 C 21.074219 17.382813 21.621094 18.523438 22.609375 18.953125 C 24.550781 21.671875 28.722656 21.523438 31.335938 19.921875 C 32.695313 19.09375 33.71875 17.6875 33.816406 16.0625 C 33.828125 15.96875 33.828125 15.878906 33.828125 15.78125 C 35.585938 17.34375 37.402344 18.835938 39.121094 20.4375 C 40.148438 21.398438 41.132813 22.402344 42.011719 23.484375 C 42.78125 24.445313 43.75 25.703125 43.457031 26.984375 Z"/><path style="stroke:none;fill-rule:nonzero;fill:#000;fill-opacity:1" d="M 15.671875 36.632813 C 14.980469 36.632813 15.070313 37.703125 15.753906 37.703125 C 16.453125 37.703125 16.367188 36.632813 15.671875 36.632813 Z"/><path style="stroke:none;fill-rule:nonzero;fill:#000;fill-opacity:1" d="M 11.570313 38.574219 L 11.570313 38.652344 C 11.570313 39.34375 12.648438 39.257813 12.648438 38.574219 L 12.648438 38.496094 C 12.648438 37.804688 11.570313 37.890625 11.570313 38.574219 Z"/><path style="stroke:none;fill-rule:nonzero;fill:#000;fill-opacity:1" d="M 11.867188 35.851563 C 11.171875 35.851563 11.257813 36.921875 11.945313 36.921875 C 12.648438 36.921875 12.558594 35.851563 11.867188 35.851563 Z"/><path style="stroke:none;fill-rule:nonzero;fill:#000;fill-opacity:1" d="M 8.554688 36.476563 C 8.445313 36.375 8.300781 36.328125 8.15625 36.335938 C 8.007813 36.347656 7.890625 36.414063 7.792969 36.523438 L 7.695313 36.621094 C 7.492188 36.828125 7.539063 37.195313 7.742188 37.382813 C 7.851563 37.480469 7.996094 37.53125 8.144531 37.519531 C 8.289063 37.507813 8.40625 37.441406 8.507813 37.335938 L 8.601563 37.234375 C 8.808594 37.023438 8.757813 36.660156 8.554688 36.476563 Z"/><path style="stroke:none;fill-rule:nonzero;fill:#000;fill-opacity:1" d="M 31.203125 38.535156 C 31.125 38.46875 31.035156 38.417969 30.929688 38.398438 C 30.859375 38.390625 30.789063 38.390625 30.722656 38.390625 C 30.585938 38.390625 30.449219 38.476563 30.359375 38.574219 C 30.261719 38.679688 30.214844 38.828125 30.226563 38.976563 C 30.234375 39.109375 30.304688 39.25 30.410156 39.335938 C 30.421875 39.34375 30.429688 39.34375 30.4375 39.355469 C 30.457031 39.382813 30.488281 39.414063 30.507813 39.433594 C 30.617188 39.53125 30.761719 39.578125 30.90625 39.570313 C 31.042969 39.5625 31.179688 39.492188 31.269531 39.382813 C 31.367188 39.265625 31.40625 39.140625 31.40625 38.984375 C 31.398438 38.820313 31.328125 38.640625 31.203125 38.535156 Z"/><path style="stroke:none;fill-rule:nonzero;fill:#000;fill-opacity:1" d="M 34.042969 41.257813 C 33.9375 41.164063 33.789063 41.113281 33.640625 41.125 C 33.507813 41.132813 33.367188 41.203125 33.28125 41.308594 C 33.183594 41.425781 33.144531 41.554688 33.144531 41.710938 L 33.144531 41.804688 C 33.144531 41.945313 33.234375 42.078125 33.328125 42.167969 C 33.4375 42.265625 33.585938 42.3125 33.730469 42.304688 C 33.867188 42.296875 34.003906 42.226563 34.09375 42.117188 C 34.1875 42 34.226563 41.875 34.226563 41.71875 L 34.226563 41.621094 C 34.226563 41.484375 34.140625 41.347656 34.042969 41.257813 Z"/><path style="stroke:none;fill-rule:nonzero;fill:#000;fill-opacity:1" d="M 37.753906 39.601563 C 37.648438 39.5 37.5 39.453125 37.351563 39.460938 C 37.21875 39.472656 37.078125 39.539063 36.992188 39.648438 C 36.894531 39.765625 36.855469 39.890625 36.855469 40.046875 L 36.855469 40.148438 C 36.855469 40.28125 36.945313 40.421875 37.039063 40.507813 C 37.148438 40.605469 37.296875 40.65625 37.441406 40.644531 C 37.578125 40.632813 37.714844 40.566406 37.804688 40.460938 C 37.898438 40.34375 37.9375 40.214844 37.9375 40.058594 L 37.9375 39.960938 C 37.9375 39.824219 37.851563 39.6875 37.753906 39.601563 Z"/><path style="stroke:none;fill-rule:nonzero;fill:#000;fill-opacity:1" d="M 39.304688 37.414063 C 38.613281 37.414063 38.703125 38.484375 39.382813 38.484375 C 40.085938 38.484375 40 37.414063 39.304688 37.414063 Z"/><path style="stroke:none;fill-rule:nonzero;fill:#000;fill-opacity:1" d="M 24.082031 38.132813 C 24.070313 38.125 24.0625 38.125 24.054688 38.117188 C 24.03125 38.085938 24.003906 38.054688 23.984375 38.039063 C 23.875 37.9375 23.730469 37.890625 23.585938 37.898438 C 23.445313 37.910156 23.3125 37.976563 23.222656 38.085938 C 23.125 38.203125 23.085938 38.328125 23.085938 38.484375 C 23.085938 38.652344 23.144531 38.828125 23.28125 38.9375 C 23.359375 39.003906 23.445313 39.054688 23.554688 39.070313 C 23.625 39.082031 23.691406 39.082031 23.757813 39.082031 C 23.898438 39.082031 24.035156 38.996094 24.121094 38.898438 C 24.21875 38.789063 24.265625 38.644531 24.257813 38.496094 C 24.25 38.359375 24.1875 38.222656 24.082031 38.132813 Z"/><path style="stroke:none;fill-rule:nonzero;fill:#000;fill-opacity:1" d="M 17.820313 38.289063 C 17.128906 38.289063 17.21875 39.367188 17.898438 39.367188 C 18.601563 39.367188 18.515625 38.289063 17.820313 38.289063 Z"/><path style="stroke:none;fill-rule:nonzero;fill:#000;fill-opacity:1" d="M 35.214844 37.84375 C 35.109375 37.742188 34.960938 37.695313 34.8125 37.703125 C 34.667969 37.714844 34.550781 37.78125 34.453125 37.890625 L 34.355469 37.988281 C 34.148438 38.195313 34.199219 38.5625 34.40625 38.75 C 34.511719 38.847656 34.65625 38.898438 34.804688 38.886719 C 34.953125 38.875 35.070313 38.808594 35.164063 38.703125 L 35.265625 38.601563 C 35.46875 38.390625 35.421875 38.027344 35.214844 37.84375 Z"/><path style="stroke:none;fill-rule:nonzero;fill:#000;fill-opacity:1" d="M 37.742188 41.515625 C 37.050781 41.515625 37.140625 42.585938 37.820313 42.585938 C 38.523438 42.585938 38.4375 41.515625 37.742188 41.515625 Z"/><path style="stroke:none;fill-rule:nonzero;fill:#000;fill-opacity:1" d="M 33.75 39.015625 C 33.632813 38.914063 33.507813 38.875 33.351563 38.875 L 33.25 38.875 C 33.117188 38.875 32.976563 38.964844 32.890625 39.0625 C 32.792969 39.171875 32.742188 39.316406 32.753906 39.460938 C 32.765625 39.601563 32.832031 39.734375 32.9375 39.824219 C 33.054688 39.921875 33.183594 39.960938 33.339844 39.960938 L 33.4375 39.960938 C 33.574219 39.960938 33.710938 39.875 33.796875 39.773438 C 33.898438 39.667969 33.945313 39.523438 33.9375 39.375 C 33.914063 39.238281 33.859375 39.101563 33.75 39.015625 Z"/></g></svg>