<?xml version="1.0" encoding="utf-8"?>
<!-- Generator: Adobe Illustrator 16.0.0, SVG Export Plug-In . SVG Version: 6.00 Build 0)  -->
<!DOCTYPE svg PUBLIC "-//W3C//DTD SVG 1.1//EN" "http://www.w3.org/Graphics/SVG/1.1/DTD/svg11.dtd">
<svg version="1.1" id="dessert" xmlns="http://www.w3.org/2000/svg" xmlns:xlink="http://www.w3.org/1999/xlink" x="0px" y="0px"
	 width="512px" height="512px" viewBox="0 0 512 512" enable-background="new 0 0 512 512" xml:space="preserve">
<path d="M276.498,138.125c19.021,0,34.496-15.477,34.496-34.501s-15.475-34.499-34.496-34.499
	c-19.024,0-34.503,15.476-34.503,34.499C241.995,122.648,257.471,138.125,276.498,138.125z"/>
<path d="M442.162,329.586h-0.394c8.345-11.097,15.672-25.998,15.387-43.918c-0.396-24.22-14.663-47.916-42.421-70.43
	c3.471-10.571,4.207-20.994,2.171-31.205c-8.07-40.451-51.344-56.607-91.05-65.587c1.408-4.757,2.178-9.792,2.178-15.01
	c0-19.741-10.863-36.953-26.84-45.82c15.896-32.742,37.091-36.36,45.616-36.36c10.863,0,17.692,2.358,21.644,4.484
	c3.078,1.654,6.8,1.388,9.571-0.747c5.154-3.976,4.49-12.017-1.229-15.103c-6.36-3.438-16.032-6.631-29.986-6.631
	c-17.006,0-32.953,7.937-46.125,22.953c-4.432,5.056-10.843,13.577-16.436,25.618c-2.502-0.38-5.062-0.583-7.66-0.583
	c-19.295,0-36.131,10.835-44.938,26.817c-3.22-3.612-6.78-8.336-9.29-13.687c-1.055-2.249-2.982-3.954-5.321-4.71
	c-2.341-0.752-4.887-0.49-7.027,0.73c-26.519,15.089-45.88,35.194-57.55,59.753c-9.978,21.004-11.823,40.356-11.859,51.608
	c-0.749,0.295-1.49,0.59-2.185,0.892c-22.959,9.982-36.199,28.985-38.289,54.954c-0.835,10.38,0.319,19.853,1.554,26.352
	c-18.271,6.642-30.979,19.339-35.559,35.978c-3.617,13.135-1.75,27.387,4.657,39.655h-7.077c-2.695,0-5.247,1.245-6.931,3.386
	c-1.685,2.142-2.315,4.938-1.717,7.607l43.958,146.215c2.894,12.921,14.038,21.945,27.103,21.945h253.629
	c13.062,0,24.208-9.024,27.103-21.945l43.959-146.215c0.6-2.671-0.033-5.467-1.716-7.607
	C447.411,330.835,444.859,329.586,442.162,329.586z M276.59,69.243c18.584,0,33.703,15.338,33.703,34.192
	c0,18.855-15.119,34.194-33.703,34.194c-18.59,0-33.709-15.339-33.709-34.194C242.88,84.581,258.003,69.243,276.59,69.243z
	 M126.12,490.745c-4.726,0-8.756-3.267-9.805-7.939L74.82,347.585h28.708l31.709,138.725c0.259,1.539,0.621,3.013,1.064,4.437
	L126.12,490.745L126.12,490.745z M157.824,490.745c-1.61,0-4.278-2.593-5.097-7.457l-31.203-135.703h9.116h19.763l21.085,138.231
	c0.192,1.715,0.475,3.36,0.837,4.929H157.824L157.824,490.745z M191.131,490.745c-0.618-1.021-1.6-3.245-2.015-6.963
	l-20.857-136.197h26.232h2.757l10.515,137.728c0.107,1.929,0.274,3.735,0.493,5.434L191.131,490.745L191.131,490.745z
	 M244.065,490.745h-17.833c-0.301-1.544-0.601-3.67-0.758-6.457l-10.457-136.703h28.431c0.008,0,0.02,0.002,0.032,0.002
	c0.016,0,0.028-0.002,0.044-0.002h0.542L244.065,490.745L244.065,490.745z M280.398,484.288c-0.162,2.787-0.459,4.915-0.765,6.457
	h-17.831v-143.16h29.051L280.398,484.288z M314.739,490.745h-17.127c0.222-1.695,0.387-3.505,0.494-5.434l10.516-137.728h28.991
	l-20.858,136.197C316.34,487.5,315.355,489.726,314.739,490.745z M348.049,490.745h-14.505c0.365-1.567,0.646-3.214,0.838-4.929
	l21.083-138.231h28.88l-31.208,135.703C352.325,488.152,349.658,490.745,348.049,490.745z M389.552,482.806
	c-1.046,4.677-5.076,7.939-9.803,7.939h-10.184c0.44-1.424,0.803-2.896,1.062-4.437l31.711-138.725h18.8
	c0.006,0,0.015,0.002,0.024,0.002c0.009,0,0.016-0.002,0.026-0.002h9.858L389.552,482.806z M417.796,329.586H281.789
	c19.944-10.566,45.776-25.383,70.117-42.707c4.012-2.854,4.982-8.464,2.166-12.531c-2.812-4.07-8.342-5.053-12.354-2.199
	c-42.253,30.07-90.63,53.028-100.16,57.438h-59.648H130.64H92.363c-8.816-9.651-12.405-22.981-9.15-34.812
	C86.9,281.379,98.812,272,116.748,268.359c16.85-3.418,61.398-12.935,111.092-27.429c4.708-1.374,7.428-6.359,6.074-11.135
	c-1.353-4.774-6.263-7.536-10.976-6.162c-44.297,12.923-84.442,21.833-104.064,25.926c-2.712-14.811-4.503-46.875,26.535-60.37
	c11.981-5.207,36.256-9.692,61.959-14.441l8.585-1.589c4.818-0.896,8.008-5.585,7.125-10.473c-0.887-4.887-5.507-8.125-10.327-7.227
	l-8.562,1.587c-16.595,3.064-32.617,6.025-45.688,9.267c1.206-20.966,9.962-57.997,52.666-85.653
	c3.204,4.857,6.648,8.857,9.389,11.721c1.911,1.999,3.542,3.564,4.967,4.822c-0.242,2.046-0.38,4.124-0.38,6.235
	c0,28.777,23.08,52.188,51.448,52.188c16.667,0,31.505-8.091,40.912-20.598c17.495,3.774,31.971,8.138,43.661,13.24
	c2.218,3.404,1.912,5.849,1.299,7.804c-2.203,7.002-15.944,26.26-95.763,53.737c-4.638,1.597-7.121,6.708-5.546,11.414
	c1.251,3.747,4.699,6.108,8.398,6.108c0.941,0,1.903-0.156,2.852-0.479c28.606-9.85,51.815-19.685,68.979-29.233
	c21.724-12.084,34.146-23.886,37.979-36.076c0.286-0.898,0.511-1.795,0.698-2.695c10.906,8.036,17.216,17.509,19.462,28.757
	c3.264,16.354-4.068,34.407-21.778,53.665c-3.342,3.632-3.146,9.326,0.435,12.716c1.709,1.619,3.879,2.422,6.05,2.422
	c2.371,0,4.736-0.961,6.483-2.86c6.629-7.202,12.047-14.372,16.268-21.49c21.241,18.086,32.157,36.211,32.442,53.908
	C439.734,305.604,426.952,321.062,417.796,329.586z"/>
</svg>
