<svg xmlns="http://www.w3.org/2000/svg" xmlns:xlink="http://www.w3.org/1999/xlink" width="50pt" height="50pt" version="1.1" viewBox="0 0 50 50"><g id="surface1"><path style="stroke:none;fill-rule:nonzero;fill:#6ec7b0;fill-opacity:1" d="M 21.015625 37.539063 L 21.523438 37.539063 C 26.210938 37.539063 30 33.75 30 29.0625 C 30 27.734375 29.6875 26.445313 29.101563 25.273438 C 27.460938 21.992188 27.460938 18.164063 29.101563 14.882813 L 30 13.085938 L 12.539063 13.085938 L 13.4375 14.882813 C 15.078125 18.164063 15.078125 21.992188 13.4375 25.273438 C 12.851563 26.445313 12.539063 27.734375 12.539063 29.0625 C 12.539063 33.75 16.328125 37.539063 21.015625 37.539063 Z"/><path style="stroke:none;fill-rule:nonzero;fill:#63b39e;fill-opacity:1" d="M 27.890625 20.078125 C 27.890625 19.101563 28.007813 18.125 28.242188 17.1875 L 24.765625 17.1875 C 24.0625 19.882813 24.375 22.734375 25.625 25.273438 C 26.210938 26.445313 26.523438 27.734375 26.523438 29.0625 C 26.523438 33.242188 23.515625 36.71875 19.53125 37.421875 C 20 37.5 20.507813 37.539063 21.015625 37.539063 L 21.523438 37.539063 C 26.210938 37.539063 30 33.75 30 29.0625 C 30 27.734375 29.6875 26.445313 29.101563 25.273438 C 28.28125 23.632813 27.851563 21.835938 27.890625 20.078125 Z"/><path style="stroke:none;fill-rule:nonzero;fill:#fff;fill-opacity:1" d="M 14.179688 17.148438 L 28.320313 17.148438 L 30 13.046875 L 12.539063 13.046875 Z"/><path style="stroke:none;fill-rule:nonzero;fill:#e6e6e6;fill-opacity:1" d="M 24.765625 17.148438 L 28.242188 17.148438 C 28.4375 16.367188 28.710938 15.585938 29.101563 14.84375 L 30 13.046875 L 26.523438 13.046875 L 25.625 14.84375 C 25.234375 15.585938 24.960938 16.367188 24.765625 17.148438 Z"/><path style="stroke:none;fill-rule:nonzero;fill:#fff;fill-opacity:1" d="M 19.140625 28.28125 C 19.140625 28.757813 18.757813 29.140625 18.28125 29.140625 C 17.804688 29.140625 17.421875 28.757813 17.421875 28.28125 C 17.421875 27.804688 17.804688 27.421875 18.28125 27.421875 C 18.757813 27.421875 19.140625 27.804688 19.140625 28.28125 Z"/><path style="stroke:none;fill-rule:nonzero;fill:#fff;fill-opacity:1" d="M 19.140625 31.757813 C 19.140625 32.234375 18.757813 32.617188 18.28125 32.617188 C 17.804688 32.617188 17.421875 32.234375 17.421875 31.757813 C 17.421875 31.28125 17.804688 30.898438 18.28125 30.898438 C 18.757813 30.898438 19.140625 31.28125 19.140625 31.757813 Z"/><path style="stroke:none;fill-rule:nonzero;fill:#fff;fill-opacity:1" d="M 22.65625 31.757813 C 22.65625 32.234375 22.273438 32.617188 21.796875 32.617188 C 21.320313 32.617188 20.9375 32.234375 20.9375 31.757813 C 20.9375 31.28125 21.320313 30.898438 21.796875 30.898438 C 22.273438 30.898438 22.65625 31.28125 22.65625 31.757813 Z"/><path style="stroke:none;fill-rule:nonzero;fill:#fff;fill-opacity:1" d="M 17.96875 21.5625 C 17.304688 21.5625 16.796875 21.015625 16.835938 20.390625 C 16.914063 18.007813 16.328125 15.898438 15.078125 14.101563 C 14.726563 13.59375 14.84375 12.851563 15.390625 12.5 C 15.898438 12.148438 16.640625 12.265625 16.992188 12.8125 C 18.515625 15.039063 19.21875 17.617188 19.140625 20.46875 C 19.101563 21.054688 18.59375 21.5625 17.96875 21.5625 Z"/><path style="stroke:none;fill-rule:nonzero;fill:#454b54;fill-opacity:1" d="M 28.242188 43.359375 L 22.695313 43.359375 L 22.695313 38.632813 C 27.460938 38.046875 31.171875 33.984375 31.171875 29.023438 C 31.171875 27.539063 30.820313 26.054688 30.15625 24.6875 C 28.710938 21.757813 28.710938 18.242188 30.15625 15.3125 L 31.054688 13.515625 C 31.25 13.164063 31.210938 12.734375 31.015625 12.382813 C 30.820313 12.03125 30.429688 11.835938 30 11.835938 L 18.242188 11.835938 L 15.859375 5.585938 C 15.703125 5.117188 15.234375 4.84375 14.765625 4.84375 L 10.9375 4.84375 C 10.273438 4.84375 9.765625 5.351563 9.765625 6.015625 C 9.765625 6.679688 10.273438 7.1875 10.9375 7.1875 L 13.945313 7.1875 L 15.703125 11.835938 L 12.5 11.835938 C 12.109375 11.835938 11.71875 12.03125 11.484375 12.382813 C 11.289063 12.734375 11.25 13.164063 11.445313 13.515625 L 12.34375 15.3125 C 13.789063 18.242188 13.789063 21.757813 12.34375 24.6875 C 11.679688 26.015625 11.328125 27.5 11.328125 29.023438 C 11.328125 34.140625 15.3125 38.320313 20.3125 38.671875 L 20.3125 43.359375 L 14.296875 43.359375 C 13.632813 43.359375 13.125 43.867188 13.125 44.53125 C 13.125 45.195313 13.632813 45.703125 14.296875 45.703125 L 28.28125 45.703125 C 28.945313 45.703125 29.453125 45.195313 29.453125 44.53125 C 29.453125 43.867188 28.90625 43.359375 28.242188 43.359375 Z M 13.710938 29.023438 C 13.710938 27.890625 13.984375 26.757813 14.492188 25.742188 C 16.289063 22.148438 16.289063 17.890625 14.492188 14.296875 L 14.453125 14.179688 L 28.125 14.179688 L 28.085938 14.296875 C 26.289063 17.890625 26.289063 22.148438 28.085938 25.742188 C 28.59375 26.757813 28.867188 27.890625 28.867188 29.023438 C 28.867188 33.046875 25.585938 36.328125 21.5625 36.328125 L 21.054688 36.328125 C 16.992188 36.367188 13.710938 33.085938 13.710938 29.023438 Z"/><path style="stroke:none;fill-rule:nonzero;fill:#faf290;fill-opacity:1" d="M 39.375 14.101563 L 31.367188 6.054688 L 20 6.09375 C 19.0625 8.320313 22.65625 11.914063 28.007813 14.140625 C 33.359375 16.367188 38.4375 16.328125 39.375 14.101563 Z"/><path style="stroke:none;fill-rule:nonzero;fill:#e1d981;fill-opacity:1" d="M 31.09375 6.523438 L 33.90625 15.703125 C 36.679688 16.015625 38.828125 15.46875 39.375 14.101563 Z"/><path style="stroke:none;fill-rule:nonzero;fill:#454b54;fill-opacity:1" d="M 35.820313 16.953125 C 33.4375 17.070313 30.507813 16.445313 27.539063 15.234375 C 22.304688 13.085938 17.539063 8.984375 18.90625 5.664063 C 19.101563 5.234375 19.492188 4.960938 20 4.921875 L 31.367188 4.882813 C 31.679688 4.882813 31.992188 5 32.1875 5.234375 L 40.195313 13.28125 C 40.546875 13.632813 40.625 14.101563 40.429688 14.570313 C 39.84375 15.976563 38.203125 16.835938 35.820313 16.953125 Z M 21.09375 7.226563 C 21.523438 8.710938 24.0625 11.210938 28.476563 13.046875 C 31.09375 14.140625 33.710938 14.6875 35.742188 14.609375 C 36.601563 14.570313 37.304688 14.414063 37.773438 14.179688 L 30.859375 7.226563 Z"/></g></svg>