<?xml version="1.0" encoding="utf-8"?>
<!-- Generator: Adobe Illustrator 16.0.0, SVG Export Plug-In . SVG Version: 6.00 Build 0)  -->
<!DOCTYPE svg PUBLIC "-//W3C//DTD SVG 1.1//EN" "http://www.w3.org/Graphics/SVG/1.1/DTD/svg11.dtd">
<svg version="1.1" id="drinks" xmlns="http://www.w3.org/2000/svg" xmlns:xlink="http://www.w3.org/1999/xlink" x="0px" y="0px"
	 width="512px" height="512px" viewBox="0 0 512 512" enable-background="new 0 0 512 512" xml:space="preserve">
<line fill="none" stroke="#000000" stroke-width="18" stroke-miterlimit="10" x1="346.049" y1="231.764" x2="100.139" y2="231.764"/>
<polygon fill="none" stroke="#000000" stroke-width="18" stroke-linecap="round" stroke-linejoin="round" stroke-miterlimit="10" points="
	360.139,160.536 90.139,160.536 125.139,503 325.139,503 "/>
<polyline fill="none" stroke="#000000" stroke-width="18" stroke-linecap="round" stroke-linejoin="round" stroke-miterlimit="10" points="
	100.139,9 170.139,9 200.139,160.536 "/>
<rect x="155.139" y="304.924" fill="none" stroke="#000000" stroke-width="18" stroke-linecap="round" stroke-linejoin="round" stroke-miterlimit="10" width="60" height="60"/>
<rect x="222.143" y="392.835" transform="matrix(-0.7071 -0.7071 0.7071 -0.7071 131.4452 900.1153)" fill="none" stroke="#000000" stroke-width="18" stroke-linecap="round" stroke-linejoin="round" stroke-miterlimit="10" width="59.999" height="60"/>
<path fill="none" d="M352.139,125.489V56.662c-18.35,1.81-35.114,9.092-48.639,20.189L352.139,125.489z"/>
<path fill="none" d="M451.693,138.217c-1.811-18.35-9.093-35.115-20.188-48.638l-48.638,48.638H451.693z"/>
<path fill="none" d="M370.139,56.662v68.827l48.64-48.638C405.254,65.754,388.488,58.472,370.139,56.662z"/>
<path fill="none" d="M270.584,138.217h68.826L290.771,89.58C279.676,103.103,272.395,119.868,270.584,138.217z"/>
<path fill="none" d="M370.139,237.773c18.351-1.811,35.115-9.093,48.64-20.19l-48.64-48.638V237.773z"/>
<path fill="none" d="M431.505,204.855c11.097-13.523,18.379-30.288,20.188-48.638h-68.826L431.505,204.855z"/>
<path d="M430.621,84.37c-0.213-0.267-0.438-0.527-0.686-0.774c-0.246-0.247-0.507-0.472-0.773-0.685
	C409.486,63.6,382.543,51.67,352.861,51.67c-29.683,0-56.625,11.931-76.303,31.242c-0.267,0.212-0.525,0.438-0.772,0.684
	c-0.247,0.247-0.472,0.507-0.685,0.774c-17.34,17.667-28.721,41.194-30.866,67.3h18.071c1.81-18.35,9.092-35.115,20.188-48.638
	l48.638,48.638h28c2.498,0,4.883,1.038,6.586,2.866s2.568,4.281,2.393,6.773l-1.815,25.523l44.205,44.204
	c-13.523,11.098-33.289,18.38-51.639,20.19l-1.439,18.176c26.68-1.838,53.75-13.315,71.741-30.973
	c0.267-0.213,0.525-0.438,0.772-0.685s0.473-0.507,0.686-0.773c19.311-19.677,31.24-46.62,31.24-76.301
	S449.932,104.046,430.621,84.37z M343.861,138.942l-48.639-48.638c13.522-11.097,30.288-18.38,48.639-20.189V138.942z
	 M443.416,151.67H374.59l48.638-48.638C434.324,116.555,441.606,133.32,443.416,151.67z M361.861,138.942V70.115
	c18.35,1.81,35.114,9.092,48.639,20.189L361.861,138.942z M423.228,218.308L374.59,169.67h68.826
	C441.606,188.02,434.324,204.785,423.228,218.308z"/>
</svg>
