<?xml version="1.0" encoding="UTF-8"?>
<svg xmlns="http://www.w3.org/2000/svg" xmlns:xlink="http://www.w3.org/1999/xlink" width="50pt" height="50pt" viewBox="0 0 50 50" version="1.1">
<g id="surface1">
<path style=" stroke:none;fill-rule:nonzero;fill:#EBF4FB;fill-opacity:1;" d="M 21.523438 27.148438 C 21.523438 32.109375 25.664063 36.132813 30.703125 36.132813 C 35.742188 36.132813 39.882813 32.109375 39.882813 27.148438 C 39.882813 24.492188 38.710938 22.109375 36.875 20.507813 L 24.609375 20.507813 C 22.695313 22.148438 21.523438 24.53125 21.523438 27.148438 "/>
<path style=" stroke:none;fill-rule:nonzero;fill:#C6D935;fill-opacity:1;" d="M 30.742188 36.132813 C 35.820313 36.132813 39.921875 32.109375 39.921875 27.148438 L 21.523438 27.148438 C 21.523438 32.148438 25.664063 36.132813 30.742188 36.132813 "/>
<path style=" stroke:none;fill-rule:nonzero;fill:#BEC6CD;fill-opacity:1;" d="M 31.992188 20.507813 L 24.609375 20.507813 C 22.695313 22.148438 21.5625 24.53125 21.5625 27.148438 L 31.816406 27.148438 C 32.136719 25.980469 32.304688 24.75 32.304688 23.476563 C 32.304688 22.460938 32.1875 21.484375 31.992188 20.507813 "/>
<path style=" stroke:none;fill-rule:nonzero;fill:#A1B12E;fill-opacity:1;" d="M 31.816406 27.148438 L 21.5625 27.148438 C 21.5625 30.507813 23.476563 33.476563 26.289063 35 C 28.953125 33.109375 30.945313 30.359375 31.816406 27.148438 "/>
<path style=" stroke:none;fill-rule:nonzero;fill:#D7D8E3;fill-opacity:1;" d="M 36.875 20.507813 L 34.101563 20.507813 C 35.976563 22.148438 37.109375 24.53125 37.109375 27.148438 L 39.882813 27.148438 C 39.882813 24.492188 38.710938 22.109375 36.875 20.507813 "/>
<path style=" stroke:none;fill-rule:nonzero;fill:#B7C13B;fill-opacity:1;" d="M 39.921875 27.148438 L 37.109375 27.148438 C 37.109375 31.640625 33.75 35.351563 29.335938 36.015625 C 29.800781 36.09375 30.269531 36.132813 30.734375 36.132813 C 30.738281 36.132813 30.742188 36.132813 30.742188 36.132813 C 35.820313 36.132813 39.921875 32.109375 39.921875 27.148438 "/>
<path style=" stroke:none;fill-rule:nonzero;fill:#454B54;fill-opacity:1;" d="M 30.742188 37.304688 C 25.039063 37.304688 20.390625 32.734375 20.390625 27.148438 C 20.390625 24.257813 21.640625 21.484375 23.867188 19.609375 C 24.0625 19.414063 24.335938 19.335938 24.648438 19.335938 L 36.953125 19.335938 C 37.226563 19.335938 37.5 19.453125 37.734375 19.609375 C 39.921875 21.523438 41.171875 24.257813 41.171875 27.148438 C 41.09375 32.773438 36.445313 37.304688 30.742188 37.304688 Z M 25.039063 21.679688 C 23.554688 23.125 22.695313 25.078125 22.695313 27.148438 C 22.695313 31.445313 26.289063 34.960938 30.703125 34.960938 C 35.117188 34.960938 38.710938 31.445313 38.710938 27.148438 C 38.710938 25.078125 37.890625 23.085938 36.40625 21.679688 Z "/>
<path style=" stroke:none;fill-rule:nonzero;fill:#454B54;fill-opacity:1;" d="M 30.742188 46.71875 C 30.078125 46.71875 29.570313 46.210938 29.570313 45.546875 L 29.570313 36.40625 C 29.570313 35.742188 30.078125 35.234375 30.742188 35.234375 C 31.40625 35.234375 31.914063 35.742188 31.914063 36.40625 L 31.914063 45.507813 C 31.914063 46.171875 31.367188 46.71875 30.742188 46.71875 Z "/>
<path style=" stroke:none;fill-rule:nonzero;fill:#454B54;fill-opacity:1;" d="M 36.40625 46.71875 L 25.078125 46.71875 C 24.414063 46.71875 23.90625 46.210938 23.90625 45.546875 C 23.90625 44.882813 24.414063 44.375 25.078125 44.375 L 36.40625 44.375 C 37.070313 44.375 37.578125 44.882813 37.578125 45.546875 C 37.578125 46.210938 37.03125 46.71875 36.40625 46.71875 Z "/>
<path style=" stroke:none;fill-rule:nonzero;fill:#F4F7D7;fill-opacity:1;" d="M 11.527344 23.476563 L 9.171875 23.476563 C 9.152344 23.746094 9.140625 24.023438 9.140625 24.296875 C 9.140625 24.960938 9.648438 25.46875 10.3125 25.46875 C 10.976563 25.46875 11.484375 24.960938 11.484375 24.296875 C 11.484375 24.023438 11.5 23.746094 11.527344 23.476563 "/>
<path style=" stroke:none;fill-rule:nonzero;fill:#454B54;fill-opacity:1;" d="M 18.007813 46.71875 C 17.34375 46.71875 16.835938 46.210938 16.835938 45.546875 L 16.835938 34.609375 C 16.835938 33.945313 17.34375 33.4375 18.007813 33.4375 C 18.671875 33.4375 19.179688 33.945313 19.179688 34.609375 L 19.179688 45.546875 C 19.179688 46.171875 18.632813 46.71875 18.007813 46.71875 Z "/>
<path style=" stroke:none;fill-rule:nonzero;fill:#454B54;fill-opacity:1;" d="M 24.6875 46.71875 L 11.289063 46.71875 C 10.625 46.71875 10.117188 46.210938 10.117188 45.546875 C 10.117188 44.882813 10.625 44.375 11.289063 44.375 L 24.6875 44.375 C 25.351563 44.375 25.859375 44.882813 25.859375 45.546875 C 25.859375 46.210938 25.351563 46.71875 24.6875 46.71875 Z "/>
<path style=" stroke:none;fill-rule:nonzero;fill:#E780B3;fill-opacity:1;" d="M 34.84375 5.078125 C 35.195313 5.078125 35.46875 5.234375 35.664063 5.46875 C 35.859375 5.234375 36.171875 5.078125 36.484375 5.078125 C 37.109375 5.078125 37.617188 5.546875 37.617188 6.171875 C 37.617188 6.523438 37.460938 6.835938 37.226563 7.03125 L 35.664063 8.242188 L 34.140625 7.070313 C 33.867188 6.875 33.710938 6.5625 33.710938 6.210938 C 33.710938 5.546875 34.21875 5.078125 34.84375 5.078125 Z "/>
<path style=" stroke:none;fill-rule:nonzero;fill:#E780B3;fill-opacity:1;" d="M 18.75 5.039063 C 19.609375 5.039063 20.351563 5.390625 20.820313 5.976563 C 21.328125 5.390625 22.070313 5.039063 22.890625 5.039063 C 24.414063 5.039063 25.703125 6.25 25.703125 7.773438 C 25.703125 8.632813 25.3125 9.375 24.6875 9.882813 L 20.820313 12.890625 L 17.03125 9.960938 C 16.367188 9.453125 15.9375 8.671875 15.9375 7.8125 C 15.9375 6.289063 17.1875 5.039063 18.75 5.039063 Z "/>
<path style=" stroke:none;fill-rule:nonzero;fill:#E780B3;fill-opacity:1;" d="M 30.390625 12.539063 C 30.78125 12.539063 31.171875 12.695313 31.40625 12.96875 C 31.640625 12.695313 32.03125 12.539063 32.421875 12.539063 C 33.164063 12.539063 33.75 13.125 33.75 13.867188 C 33.75 14.296875 33.554688 14.648438 33.242188 14.882813 L 31.40625 16.328125 L 29.570313 14.921875 C 29.257813 14.6875 29.0625 14.296875 29.0625 13.867188 C 29.023438 13.164063 29.648438 12.539063 30.390625 12.539063 Z "/>
<path style=" stroke:none;fill-rule:nonzero;fill:#EBF4FB;fill-opacity:1;" d="M 7.109375 23.476563 C 7.109375 29.414063 11.992188 34.257813 18.007813 34.257813 C 24.023438 34.257813 28.90625 29.414063 28.90625 23.476563 C 28.90625 20.3125 27.539063 17.460938 25.3125 15.46875 L 10.742188 15.46875 C 8.476563 17.460938 7.109375 20.3125 7.109375 23.476563 "/>
<path style=" stroke:none;fill-rule:nonzero;fill:#D7D8E3;fill-opacity:1;" d="M 25.3125 15.507813 L 21.953125 15.507813 C 24.171875 17.453125 25.535156 20.328125 25.546875 23.476563 L 28.90625 23.476563 C 28.90625 23.464844 28.90625 23.453125 28.90625 23.4375 C 28.894531 20.289063 27.53125 17.453125 25.3125 15.507813 "/>
<path style=" stroke:none;fill-rule:nonzero;fill:#C6D935;fill-opacity:1;" d="M 18.007813 34.257813 C 23.984375 34.257813 28.90625 29.414063 28.90625 23.476563 L 7.109375 23.476563 C 7.109375 29.453125 11.992188 34.257813 18.007813 34.257813 "/>
<path style=" stroke:none;fill-rule:nonzero;fill:#FBFDFE;fill-opacity:1;" d="M 12.730469 17.144531 C 12.425781 17.144531 12.113281 17.261719 11.875 17.5 C 10.304688 19.105469 9.359375 21.207031 9.171875 23.476563 L 11.527344 23.476563 C 11.703125 21.824219 12.414063 20.277344 13.554688 19.101563 C 13.984375 18.671875 13.945313 17.890625 13.515625 17.460938 C 13.304688 17.25 13.019531 17.144531 12.730469 17.144531 "/>
<path style=" stroke:none;fill-rule:nonzero;fill:#B7C13B;fill-opacity:1;" d="M 28.90625 23.476563 L 25.546875 23.476563 C 25.546875 23.488281 25.546875 23.503906 25.546875 23.515625 C 25.546875 28.855469 21.578125 33.339844 16.359375 34.136719 C 16.898438 34.214844 17.449219 34.257813 18.007813 34.257813 C 23.984375 34.257813 28.90625 29.414063 28.90625 23.476563 "/>
<path style=" stroke:none;fill-rule:nonzero;fill:#454B54;fill-opacity:1;" d="M 18.007813 35.429688 C 11.367188 35.429688 5.9375 30.078125 5.9375 23.476563 C 5.9375 20.078125 7.421875 16.835938 9.960938 14.609375 C 10.15625 14.414063 10.429688 14.335938 10.742188 14.335938 L 25.3125 14.335938 C 25.585938 14.335938 25.859375 14.453125 26.09375 14.648438 C 28.632813 16.875 30.078125 20.117188 30.078125 23.515625 C 30.078125 30.078125 24.648438 35.429688 18.007813 35.429688 Z M 11.171875 16.679688 C 9.335938 18.4375 8.28125 20.898438 8.28125 23.515625 C 8.28125 28.828125 12.65625 33.125 18.007813 33.125 C 23.359375 33.125 27.734375 28.828125 27.734375 23.515625 C 27.734375 20.9375 26.679688 18.476563 24.84375 16.679688 C 24.84375 16.679688 11.171875 16.679688 11.171875 16.679688 Z "/>
</g>
</svg>
