<svg xmlns="http://www.w3.org/2000/svg" xmlns:xlink="http://www.w3.org/1999/xlink" width="50pt" height="50pt" version="1.1" viewBox="0 0 50 50"><g id="surface1"><path style="stroke:none;fill-rule:nonzero;fill:#fff;fill-opacity:1" d="M 25.050781 0.867188 L 23.25 2.171875 C 23.25 2.171875 16.863281 6.664063 16.863281 14.882813 L 18.847656 14.882813 C 18.847656 9.753906 21.171875 6.988281 22.785156 5.425781 C 22.785156 5.855469 22.714844 5.882813 22.753906 6.355469 C 22.828125 7.242188 23.003906 8.148438 23.40625 8.960938 C 23.808594 9.769531 24.65625 10.539063 25.730469 10.539063 C 27.007813 10.539063 28.101563 9.957031 28.957031 9.425781 C 29.160156 9.296875 29.125 9.265625 29.296875 9.144531 C 29.480469 9.574219 29.5625 9.695313 29.824219 10.449219 C 30.304688 11.839844 30.753906 13.585938 30.753906 14.882813 L 32.738281 14.882813 C 32.738281 13.152344 32.195313 11.289063 31.683594 9.796875 C 31.171875 8.304688 30.660156 7.191406 30.660156 7.191406 L 30.101563 5.984375 L 29.109375 6.851563 C 29.109375 6.851563 28.601563 7.28125 27.902344 7.71875 C 27.199219 8.15625 26.320313 8.554688 25.730469 8.554688 C 25.453125 8.554688 25.382813 8.480469 25.171875 8.058594 C 24.964844 7.640625 24.800781 6.921875 24.738281 6.167969 C 24.613281 4.660156 24.800781 3.101563 24.800781 3.101563 Z M 23.46875 10.914063 C 23.46875 10.914063 21.824219 12.3125 21.824219 14.882813 L 27.777344 14.882813 C 27.777344 13.875 25.792969 12.898438 25.792969 12.898438 C 25.792969 12.898438 25.421875 13.890625 24.800781 13.890625 C 23.898438 13.890625 23.46875 10.914063 23.46875 10.914063 Z M 5.953125 15.871094 L 5.953125 16.863281 C 5.953125 23.683594 9.597656 29.644531 15.035156 32.957031 L 9.082031 42.132813 C 8.863281 42.429688 8.824219 42.828125 8.992188 43.164063 C 9.15625 43.5 9.496094 43.710938 9.867188 43.714844 C 10.238281 43.71875 10.582031 43.515625 10.757813 43.1875 L 16.773438 33.886719 C 18.929688 34.910156 21.300781 35.519531 23.808594 35.652344 L 23.808594 46.628906 C 23.804688 46.984375 23.992188 47.316406 24.300781 47.5 C 24.613281 47.675781 24.992188 47.675781 25.300781 47.5 C 25.613281 47.316406 25.796875 46.984375 25.792969 46.628906 L 25.792969 30.753906 C 25.800781 30.449219 25.664063 30.15625 25.429688 29.964844 C 25.195313 29.769531 24.882813 29.695313 24.585938 29.761719 C 24.125 29.867188 23.796875 30.28125 23.808594 30.753906 L 23.808594 33.667969 C 15.296875 33.171875 8.464844 26.367188 7.96875 17.855469 L 41.636719 17.855469 C 41.179688 25.691406 35.347656 32.09375 27.777344 33.449219 L 27.777344 35.464844 C 29.542969 35.183594 31.234375 34.652344 32.800781 33.917969 L 38.84375 43.1875 C 39.019531 43.515625 39.363281 43.71875 39.738281 43.714844 C 40.109375 43.710938 40.445313 43.5 40.613281 43.164063 C 40.777344 42.828125 40.742188 42.429688 40.519531 42.132813 L 34.535156 32.957031 C 39.984375 29.652344 43.652344 23.6875 43.652344 16.863281 L 43.652344 15.871094 Z"/></g></svg>