<?xml version="1.0" encoding="UTF-8"?>
<svg xmlns="http://www.w3.org/2000/svg" xmlns:xlink="http://www.w3.org/1999/xlink" width="50pt" height="50pt" viewBox="0 0 50 50" version="1.1">
<g id="surface1">
<path style=" stroke:none;fill-rule:nonzero;fill:#DD2C00;fill-opacity:1;" d="M 33.332031 15.625 C 33.332031 20.207031 29.582031 23.957031 25 23.957031 C 20.417969 23.957031 16.667969 20.207031 16.667969 15.625 C 16.667969 11.042969 23.75 7.292969 22.917969 3.125 C 24.582031 3.125 33.332031 8.957031 33.332031 15.625 Z "/>
<path style=" stroke:none;fill-rule:nonzero;fill:#FF5722;fill-opacity:1;" d="M 30.207031 17.707031 C 30.207031 13.542969 25 8.332031 25 8.332031 C 25 11.667969 19.792969 14.375 19.792969 17.707031 C 19.792969 20.417969 22.1875 22.917969 25 22.917969 C 27.8125 22.917969 30.207031 20.417969 30.207031 17.707031 Z "/>
<path style=" stroke:none;fill-rule:nonzero;fill:#FFC107;fill-opacity:1;" d="M 22.917969 18.855469 C 22.917969 17.5 25 15.832031 25 14.582031 C 25 14.582031 27.082031 16.980469 27.082031 18.855469 C 27.082031 19.894531 26.144531 20.832031 25 20.832031 C 23.855469 20.832031 22.917969 20 22.917969 18.855469 Z "/>
<path style=" stroke:none;fill-rule:nonzero;fill:#B0BEC5;fill-opacity:1;" d="M 11.457031 43.75 C 11.25 43.75 11.042969 43.644531 10.832031 43.542969 C 10.3125 43.230469 10.207031 42.605469 10.519531 42.082031 L 18.855469 29.582031 C 19.167969 29.0625 19.792969 28.957031 20.3125 29.269531 C 20.832031 29.582031 20.9375 30.207031 20.625 30.730469 L 12.292969 43.230469 C 12.082031 43.542969 11.769531 43.75 11.457031 43.75 Z "/>
<path style=" stroke:none;fill-rule:nonzero;fill:#B0BEC5;fill-opacity:1;" d="M 38.542969 43.75 C 38.230469 43.75 37.917969 43.542969 37.707031 43.332031 L 29.375 30.832031 C 29.0625 30.3125 29.167969 29.6875 29.6875 29.375 C 30.207031 29.0625 30.832031 29.167969 31.144531 29.6875 L 39.480469 42.1875 C 39.792969 42.707031 39.6875 43.332031 39.167969 43.644531 C 38.957031 43.644531 38.75 43.75 38.542969 43.75 Z "/>
<path style=" stroke:none;fill-rule:nonzero;fill:#455A64;fill-opacity:1;" d="M 42.707031 17.707031 C 42.707031 27.5 34.792969 35.417969 25 35.417969 C 15.207031 35.417969 7.292969 27.5 7.292969 17.707031 Z "/>
<path style=" stroke:none;fill-rule:nonzero;fill:#B0BEC5;fill-opacity:1;" d="M 25 46.875 C 24.375 46.875 23.957031 46.457031 23.957031 45.832031 L 23.957031 31.25 C 23.957031 30.625 24.375 30.207031 25 30.207031 C 25.625 30.207031 26.042969 30.625 26.042969 31.25 L 26.042969 45.832031 C 26.042969 46.457031 25.625 46.875 25 46.875 Z "/>
<path style=" stroke:none;fill-rule:nonzero;fill:#B0BEC5;fill-opacity:1;" d="M 25 46.875 C 24.375 46.875 23.957031 46.457031 23.957031 45.832031 L 23.957031 31.25 C 23.957031 30.625 24.375 30.207031 25 30.207031 C 25.625 30.207031 26.042969 30.625 26.042969 31.25 L 26.042969 45.832031 C 26.042969 46.457031 25.625 46.875 25 46.875 Z "/>
</g>
</svg>
