<svg xmlns="http://www.w3.org/2000/svg" xmlns:xlink="http://www.w3.org/1999/xlink" width="50pt" height="50pt" version="1.1" viewBox="0 0 50 50"><g id="surface1"><path style="stroke:none;fill-rule:nonzero;fill:#ef4823;fill-opacity:1" d="M 28.339844 33.183594 C 28.066406 32.421875 27.722656 31.660156 27.285156 30.976563 C 27.136719 31.035156 26.992188 31.140625 26.863281 31.203125 C 26.6875 31.28125 26.511719 31.347656 26.335938 31.40625 C 26.601563 32.117188 26.789063 32.859375 27.070313 33.566406 C 27.117188 33.679688 27.1875 33.867188 27.273438 34.070313 C 27.628906 33.828125 28.046875 33.691406 28.476563 33.59375 C 28.429688 33.429688 28.378906 33.28125 28.339844 33.183594 Z"/><path style="stroke:none;fill-rule:nonzero;fill:#ef4823;fill-opacity:1" d="M 28.46875 34.726563 C 28.289063 34.773438 28.007813 34.851563 27.890625 34.953125 C 27.871094 34.96875 27.851563 34.980469 27.832031 35 C 28.007813 35.1875 28.210938 35.292969 28.417969 35.207031 C 28.613281 35.128906 28.679688 34.921875 28.679688 34.667969 C 28.613281 34.679688 28.535156 34.695313 28.46875 34.726563 Z"/><path style="stroke:none;fill-rule:nonzero;fill:#bcbcbc;fill-opacity:1" d="M 38.085938 47.226563 C 38.007813 47.101563 37.929688 46.972656 37.832031 46.855469 C 37.636719 46.59375 37.429688 46.347656 37.234375 46.09375 C 36.667969 45.390625 36.230469 44.5625 35.78125 43.789063 C 35.039063 42.492188 34.140625 40.847656 34.851563 39.40625 C 34.824219 39.226563 34.890625 39.042969 35.097656 38.925781 C 35.605469 38.632813 35.574219 37.863281 35.539063 37.351563 C 35.476563 36.554688 35.3125 35.773438 35.085938 35 C 34.550781 33.132813 33.703125 31.367188 33.054688 29.53125 C 32.9375 29.453125 32.839844 29.324219 32.8125 29.148438 C 32.761719 28.867188 32.695313 28.429688 32.402344 28.332031 C 32.285156 28.292969 32.097656 28.339844 31.914063 28.398438 C 32.050781 28.585938 32.148438 28.800781 32.21875 28.953125 C 32.460938 29.539063 32.644531 30.148438 32.910156 30.734375 C 33.300781 31.609375 33.757813 32.609375 33.4375 33.574219 C 33.261719 34.121094 32.832031 34.679688 32.234375 34.765625 C 31.132813 34.921875 30.359375 33.535156 29.953125 32.726563 C 29.53125 31.90625 29.132813 31.035156 28.894531 30.125 C 28.875 30.125 28.769531 30.148438 28.789063 30.136719 C 28.75 30.148438 28.71875 30.15625 28.679688 30.167969 C 28.554688 30.203125 28.4375 30.253906 28.320313 30.3125 C 28.320313 30.3125 28.242188 30.363281 28.203125 30.382813 C 28.769531 31.269531 29.238281 32.285156 29.519531 33.300781 C 29.558594 33.4375 29.597656 33.585938 29.628906 33.742188 C 29.667969 33.808594 29.6875 33.875 29.695313 33.945313 C 29.695313 33.992188 29.695313 34.03125 29.6875 34.070313 C 29.804688 34.902344 29.707031 35.8125 28.847656 36.164063 C 26.660156 37.0625 25.867188 33.300781 25.28125 31.621094 C 25.15625 31.640625 25.027344 31.660156 24.902344 31.679688 C 24.902344 31.679688 24.902344 31.691406 24.902344 31.691406 C 25.046875 33.730469 26.425781 35.546875 27.273438 37.34375 C 27.695313 38.234375 28.113281 39.140625 28.71875 39.921875 C 29.296875 40.671875 30.019531 41.203125 30.886719 41.5625 C 32.714844 41.972656 33.554688 44.257813 34.109375 45.8125 C 34.265625 46.242188 34.433594 46.660156 34.550781 47.101563 C 34.628906 47.390625 34.765625 48.46875 35.007813 48.703125 C 35.019531 48.679688 35.117188 48.671875 35.183594 48.640625 C 35.300781 48.59375 35.410156 48.546875 35.527344 48.496094 C 35.847656 48.367188 36.160156 48.222656 36.472656 48.074219 C 37.03125 47.800781 37.578125 47.507813 38.113281 47.214844 C 38.09375 47.246094 38.085938 47.234375 38.085938 47.226563 Z"/><path style="stroke:none;fill-rule:nonzero;fill:#ef4823;fill-opacity:1" d="M 6.679688 24.382813 C 6.503906 24.132813 6.296875 23.78125 6.023438 23.601563 C 6.007813 23.640625 5.996094 23.691406 5.976563 23.730469 C 5.878906 23.976563 5.742188 24.238281 5.558594 24.421875 C 5.34375 24.648438 5.089844 24.835938 4.84375 25.03125 C 5.585938 25.539063 6.132813 26.25 5.65625 27.238281 C 5.46875 27.617188 5.527344 27.871094 5.929688 28.039063 C 6.132813 28.125 6.339844 28.183594 6.554688 28.25 C 6.554688 28.117188 6.5625 27.988281 6.574219 27.851563 C 6.632813 27.039063 6.757813 25.984375 7.03125 24.929688 C 6.914063 24.726563 6.789063 24.539063 6.679688 24.382813 Z"/><path style="stroke:none;fill-rule:nonzero;fill:#ef4823;fill-opacity:1" d="M 46.921875 19.628906 C 46.777344 18.769531 46.515625 17.929688 46.242188 17.109375 C 46.0625 17.050781 45.929688 16.90625 45.90625 16.671875 C 45.898438 16.542969 45.878906 16.394531 45.859375 16.25 C 45.59375 16.121094 45.4375 15.75 45.605469 15.46875 C 44.980469 14.804688 44.003906 14.335938 43.164063 14.179688 C 41.960938 13.953125 40.984375 14.550781 40.117188 15.320313 C 38.125 17.097656 36.007813 18.71875 33.625 19.929688 C 32.382813 20.566406 31.085938 21.054688 29.785156 21.542969 C 28.367188 22.070313 26.933594 22.546875 25.460938 22.871094 C 22.519531 23.503906 19.34375 23.320313 16.394531 22.820313 C 14.902344 22.566406 13.417969 22.265625 11.941406 21.921875 C 11.503906 21.824219 11.042969 21.84375 10.613281 21.699219 C 10.546875 21.679688 10.476563 21.648438 10.410156 21.609375 C 9.40625 21.933594 8.796875 23.132813 8.445313 24.082031 C 8.351563 24.335938 8.261719 24.609375 8.183594 24.871094 C 8.242188 25.039063 8.289063 25.203125 8.320313 25.371094 C 8.390625 25.703125 8.164063 25.886719 7.910156 25.917969 C 7.6875 26.921875 7.578125 27.96875 7.636719 28.953125 C 7.753906 30.984375 8.796875 32.714844 10.539063 33.78125 C 12.390625 34.921875 14.582031 35.429688 16.738281 35.605469 C 19.453125 35.828125 22.179688 35.546875 24.835938 34.980469 C 24.394531 34.082031 24.035156 33.164063 23.898438 32.1875 C 23.671875 32.140625 23.546875 31.992188 23.496094 31.796875 C 22.609375 31.710938 21.757813 31.367188 20.867188 31.210938 C 20.1875 31.082031 20.390625 30.027344 21.074219 30.15625 C 22.148438 30.351563 23.117188 30.78125 24.199219 30.710938 C 24.539063 30.585938 24.929688 30.535156 25.226563 30.535156 C 25.273438 30.535156 25.320313 30.546875 25.371094 30.554688 C 25.644531 30.507813 25.917969 30.4375 26.183594 30.339844 C 26.523438 30.214844 26.847656 29.988281 27.207031 29.890625 C 27.53125 29.402344 28.339844 29.089844 28.847656 29.070313 C 29.003906 29.0625 29.132813 29.121094 29.226563 29.207031 C 29.511719 29.160156 29.84375 29.304688 29.914063 29.667969 C 29.882813 29.519531 29.929688 29.726563 29.929688 29.753906 C 29.953125 29.832031 29.96875 29.910156 30 29.988281 C 30.046875 30.15625 30.109375 30.320313 30.164063 30.476563 C 30.320313 30.90625 30.488281 31.328125 30.683594 31.738281 C 30.964844 32.351563 31.414063 33.367188 32.011719 33.671875 C 32.117188 33.71875 32.070313 33.710938 32.128906 33.71875 C 32.140625 33.71875 32.148438 33.71875 32.15625 33.710938 C 32.148438 33.710938 32.285156 33.613281 32.324219 33.535156 C 32.703125 32.890625 32.390625 32.15625 32.117188 31.53125 C 31.90625 31.042969 31.699219 30.566406 31.523438 30.066406 C 31.433594 29.824219 31.335938 29.578125 31.238281 29.335938 C 31.210938 29.257813 31.171875 29.167969 31.132813 29.089844 C 31.121094 29.070313 31.113281 29.0625 31.113281 29.050781 C 30.90625 28.886719 30.800781 28.59375 30.984375 28.339844 C 30.859375 28.074219 30.90625 27.703125 31.25 27.546875 C 31.386719 27.488281 31.53125 27.429688 31.679688 27.382813 C 31.667969 27.304688 31.6875 27.214844 31.726563 27.128906 C 31.953125 26.589844 32.585938 26.113281 32.996094 25.710938 C 33.25 25.46875 33.503906 25.222656 33.769531 24.988281 C 33.914063 24.863281 34.082031 24.667969 34.277344 24.617188 C 34.941406 24.421875 35.292969 25.4375 34.628906 25.632813 C 34.8125 25.574219 34.675781 25.613281 34.597656 25.683594 C 34.558594 25.722656 34.453125 25.808594 34.375 25.886719 C 34.140625 26.101563 33.90625 26.328125 33.671875 26.5625 C 33.4375 26.785156 33.210938 27.019531 32.996094 27.253906 C 32.957031 27.292969 32.929688 27.332031 32.890625 27.371094 C 32.9375 27.390625 32.988281 27.421875 33.035156 27.449219 C 33.476563 27.734375 33.699219 28.144531 33.828125 28.613281 C 33.894531 28.671875 33.953125 28.75 33.992188 28.855469 C 34.335938 29.882813 34.753906 30.878906 35.15625 31.875 C 37.265625 31.074219 39.316406 30.125 41.210938 28.894531 C 43.308594 27.519531 45.507813 25.75 46.511719 23.378906 C 46.960938 22.1875 47.140625 20.90625 46.921875 19.628906 Z"/><path style="stroke:none;fill-rule:nonzero;fill:#ef4823;fill-opacity:1" d="M 48.828125 18.46875 C 48.554688 17.988281 48.117188 17.507813 48.132813 16.933594 C 48.144531 16.542969 48.261719 16.210938 48.320313 15.839844 C 48.378906 15.488281 48.144531 15.214844 47.851563 15.03125 C 47.3125 14.695313 47.019531 14.230469 46.789063 13.710938 C 46.707031 14.035156 46.726563 14.40625 46.75 14.695313 C 46.757813 14.902344 46.789063 15.105469 46.804688 15.3125 C 46.867188 15.421875 46.875 15.539063 46.855469 15.644531 C 47.117188 16.417969 47.390625 17.1875 47.617188 17.980469 C 47.726563 17.980469 47.84375 18.007813 47.949219 18.085938 C 48.203125 18.273438 48.523438 18.703125 48.847656 18.742188 C 49.015625 18.75 48.90625 18.601563 48.828125 18.46875 Z"/><path style="stroke:none;fill-rule:nonzero;fill:#010101;fill-opacity:1" d="M 22.453125 18.09375 C 21.386719 17.636719 22.15625 16.171875 22.414063 15.402344 C 22.78125 14.269531 22.714844 13.125 22.1875 12.0625 C 21.699219 11.066406 20.867188 10.292969 20.03125 9.582031 C 19.648438 9.25 19.226563 8.925781 19.0625 8.4375 C 18.953125 8.105469 19.082031 7.285156 19.460938 7.167969 C 20.125 6.964844 19.765625 5.957031 19.109375 6.152344 C 17.890625 6.523438 17.773438 8.292969 18.261719 9.25 C 18.546875 9.796875 19.101563 10.195313 19.550781 10.578125 C 20.039063 10.996094 20.507813 11.445313 20.898438 11.964844 C 21.28125 12.492188 21.503906 13.085938 21.59375 13.730469 C 21.679688 14.40625 21.398438 15.078125 21.191406 15.703125 C 20.78125 16.921875 20.554688 18.4375 21.992188 19.054688 C 22.609375 19.335938 23.085938 18.367188 22.453125 18.09375 Z"/><path style="stroke:none;fill-rule:nonzero;fill:#010101;fill-opacity:1" d="M 27.5 12.871094 C 27.273438 11.886719 26.554688 11.113281 25.859375 10.421875 C 25.164063 9.738281 24.394531 9.101563 23.847656 8.28125 C 23.320313 7.480469 23.46875 6.738281 24.074219 6.035156 C 24.53125 5.507813 23.722656 4.804688 23.261719 5.324219 C 22.546875 6.144531 22.195313 7.148438 22.597656 8.203125 C 22.96875 9.171875 23.796875 9.933594 24.53125 10.632813 C 25.214844 11.289063 26.054688 11.972656 26.386719 12.890625 C 26.710938 13.789063 26.613281 14.777344 26.222656 15.625 C 25.851563 16.425781 25.714844 17.1875 26.152344 17.988281 C 26.484375 18.59375 27.375 17.988281 27.042969 17.382813 C 26.671875 16.699219 27.335938 15.867188 27.511719 15.203125 C 27.722656 14.453125 27.675781 13.640625 27.5 12.871094 Z"/><path style="stroke:none;fill-rule:nonzero;fill:#010101;fill-opacity:1" d="M 30.34375 12.53125 C 30.476563 11.90625 30.75 11.308594 30.839844 10.675781 C 30.9375 10 31.074219 9.394531 31.035156 8.703125 C 30.96875 7.648438 30.515625 6.769531 29.902344 5.9375 C 29.53125 5.429688 28.867188 4.394531 28.125 4.472656 C 27.46875 4.542969 27.507813 5.519531 28.113281 5.546875 C 28.132813 5.558594 28.164063 5.578125 28.203125 5.617188 C 28.320313 5.714844 28.425781 5.832031 28.535156 5.949219 C 28.808594 6.242188 29.03125 6.574219 29.265625 6.90625 C 29.832031 7.726563 30.046875 8.652344 29.941406 9.660156 C 29.824219 10.800781 29.265625 11.847656 29.1875 12.988281 C 29.101563 14.171875 29.941406 15.207031 29.96875 16.386719 C 29.988281 17.078125 31.0625 16.992188 31.042969 16.308594 C 31.015625 14.992188 30.066406 13.828125 30.34375 12.53125 Z"/><path style="stroke:none;fill-rule:nonzero;fill:#010101;fill-opacity:1" d="M 49.414063 17.363281 C 49.21875 17.050781 49.179688 16.914063 49.25 16.554688 C 49.335938 16.125 49.5 15.710938 49.355469 15.273438 C 49.179688 14.746094 48.78125 14.367188 48.328125 14.070313 C 47.8125 13.730469 47.648438 13 47.421875 12.453125 C 47.285156 12.109375 46.921875 12.011719 46.609375 12.1875 C 45.890625 12.585938 45.664063 13.328125 45.632813 14.128906 C 45.148438 13.796875 44.609375 13.535156 44.082031 13.347656 C 42.988281 12.949219 41.828125 12.96875 40.792969 13.515625 C 39.648438 14.109375 38.742188 15.125 37.753906 15.925781 C 36.726563 16.757813 35.65625 17.527344 34.523438 18.210938 C 32.109375 19.675781 29.355469 20.671875 26.660156 21.464844 C 23.671875 22.34375 20.566406 22.3125 17.5 21.914063 C 16.171875 21.738281 14.84375 21.492188 13.542969 21.199219 C 12.976563 21.074219 12.351563 20.839844 11.777344 20.789063 C 11.71875 20.644531 11.589844 20.527344 11.386719 20.496094 C 9.375 20.222656 8.164063 21.707031 7.460938 23.535156 C 7.167969 23.144531 6.824219 22.800781 6.445313 22.585938 C 5.808594 22.234375 5.292969 22.480469 5.066406 23.132813 C 4.804688 23.894531 4.050781 24.1875 3.554688 24.765625 C 3.328125 25.027344 3.40625 25.4375 3.71875 25.605469 C 3.992188 25.742188 4.921875 26.152344 4.773438 26.570313 C 4.617188 27.03125 4.394531 27.410156 4.5 27.929688 C 4.707031 28.925781 5.75 29.089844 6.582031 29.363281 C 6.738281 30.867188 7.304688 32.253906 8.378906 33.425781 C 9.765625 34.929688 11.785156 35.742188 13.71875 36.21875 C 17.558594 37.167969 21.484375 36.804688 25.304688 35.957031 C 25.675781 36.640625 26.054688 37.324219 26.378906 37.996094 C 27.257813 39.84375 28.242188 41.542969 30.109375 42.441406 C 30.203125 42.566406 30.351563 42.65625 30.546875 42.65625 L 30.632813 42.65625 C 31.492188 42.851563 32 43.796875 32.375 44.511719 C 32.8125 45.359375 33.09375 46.277344 33.417969 47.175781 C 33.703125 47.976563 33.808594 50.046875 35.125 49.824219 C 35.703125 49.726563 36.289063 49.382813 36.804688 49.128906 C 37.460938 48.816406 38.09375 48.476563 38.730469 48.125 C 38.914063 48.144531 39.101563 48.066406 39.1875 47.820313 C 39.394531 47.234375 39.054688 46.726563 38.71875 46.257813 C 38.308594 45.691406 37.871094 45.175781 37.5 44.578125 C 36.980469 43.769531 36.464844 42.9375 36.054688 42.058594 C 35.742188 41.375 35.390625 40.410156 35.886719 39.734375 C 35.90625 39.707031 35.925781 39.675781 35.945313 39.648438 C 37.078125 38.671875 36.5625 36.492188 36.257813 35.273438 C 36.0625 34.453125 35.789063 33.660156 35.496094 32.871094 C 38.855469 31.582031 42.058594 29.929688 44.71875 27.46875 C 46.296875 26.003906 47.578125 24.179688 47.976563 22.019531 C 48.132813 21.132813 48.105469 20.273438 47.960938 19.421875 C 48.476563 19.785156 49.03125 20.007813 49.628906 19.511719 C 50.382813 18.898438 49.8125 18 49.414063 17.363281 Z M 6.5625 27.84375 C 6.554688 27.976563 6.542969 28.117188 6.542969 28.242188 C 6.328125 28.183594 6.125 28.117188 5.917969 28.027344 C 5.527344 27.863281 5.460938 27.609375 5.644531 27.226563 C 6.125 26.25 5.585938 25.539063 4.835938 25.019531 C 5.078125 24.824219 5.332031 24.640625 5.546875 24.414063 C 5.734375 24.21875 5.867188 23.964844 5.964844 23.722656 C 5.984375 23.683594 5.996094 23.632813 6.015625 23.59375 C 6.289063 23.769531 6.492188 24.121094 6.671875 24.375 C 6.777344 24.542969 6.90625 24.726563 7 24.914063 C 6.746094 25.976563 6.609375 27.03125 6.5625 27.84375 Z M 35.539063 37.363281 C 35.574219 37.871094 35.605469 38.644531 35.097656 38.9375 C 34.890625 39.054688 34.824219 39.238281 34.851563 39.414063 C 34.140625 40.851563 35.03125 42.5 35.78125 43.796875 C 36.230469 44.578125 36.671875 45.410156 37.234375 46.101563 C 37.441406 46.359375 37.644531 46.601563 37.832031 46.867188 C 37.917969 46.984375 38.007813 47.109375 38.085938 47.238281 C 38.09375 47.246094 38.09375 47.257813 38.105469 47.265625 C 37.570313 47.570313 37.023438 47.863281 36.464844 48.125 C 36.152344 48.273438 35.839844 48.417969 35.515625 48.546875 C 35.398438 48.59375 35.292969 48.644531 35.175781 48.691406 C 35.109375 48.722656 35 48.730469 35 48.75 C 34.757813 48.515625 34.617188 47.441406 34.539063 47.148438 C 34.421875 46.710938 34.257813 46.28125 34.101563 45.859375 C 33.546875 44.308594 32.703125 42.023438 30.878906 41.613281 C 30.007813 41.25 29.285156 40.714844 28.710938 39.972656 C 28.105469 39.191406 27.695313 38.273438 27.265625 37.394531 C 26.40625 35.597656 25.039063 33.78125 24.890625 31.738281 C 24.890625 31.738281 24.890625 31.730469 24.890625 31.730469 C 25.019531 31.710938 25.148438 31.691406 25.273438 31.671875 C 25.859375 33.351563 26.648438 37.109375 28.835938 36.210938 C 29.695313 35.859375 29.792969 34.953125 29.675781 34.121094 C 29.6875 34.082031 29.6875 34.035156 29.6875 33.996094 C 29.675781 33.925781 29.65625 33.847656 29.617188 33.789063 C 29.589844 33.632813 29.550781 33.488281 29.511719 33.351563 C 29.238281 32.34375 28.757813 31.320313 28.195313 30.429688 C 28.230469 30.410156 28.308594 30.363281 28.308594 30.363281 C 28.425781 30.304688 28.554688 30.253906 28.671875 30.214844 C 28.710938 30.207031 28.738281 30.195313 28.78125 30.1875 C 28.75 30.195313 28.867188 30.175781 28.886719 30.175781 C 29.121094 31.074219 29.523438 31.953125 29.941406 32.773438 C 30.351563 33.585938 31.132813 34.960938 32.226563 34.816406 C 32.832031 34.726563 33.25 34.171875 33.429688 33.625 C 33.742188 32.65625 33.289063 31.660156 32.898438 30.78125 C 32.636719 30.207031 32.453125 29.601563 32.207031 29.003906 C 32.140625 28.847656 32.039063 28.632813 31.90625 28.449219 C 32.089844 28.378906 32.273438 28.339844 32.390625 28.378906 C 32.6875 28.476563 32.753906 28.917969 32.804688 29.199219 C 32.832031 29.375 32.929688 29.503906 33.046875 29.582031 C 33.691406 31.417969 34.539063 33.175781 35.078125 35.050781 C 35.3125 35.78125 35.476563 36.5625 35.539063 37.363281 Z M 27.285156 34.082031 C 27.195313 33.875 27.117188 33.691406 27.078125 33.574219 C 26.796875 32.871094 26.601563 32.128906 26.347656 31.414063 C 26.53125 31.355469 26.707031 31.289063 26.875 31.210938 C 27 31.152344 27.148438 31.042969 27.292969 30.984375 C 27.734375 31.667969 28.074219 32.429688 28.347656 33.195313 C 28.386719 33.289063 28.4375 33.4375 28.496094 33.613281 C 28.054688 33.703125 27.636719 33.835938 27.285156 34.082031 Z M 28.679688 34.65625 C 28.679688 34.914063 28.601563 35.117188 28.417969 35.195313 C 28.203125 35.28125 28.007813 35.183594 27.832031 34.988281 C 27.851563 34.96875 27.871094 34.960938 27.890625 34.941406 C 28.007813 34.832031 28.292969 34.765625 28.46875 34.714844 C 28.535156 34.695313 28.613281 34.679688 28.679688 34.65625 Z M 46.464844 23.367188 C 45.460938 25.742188 43.273438 27.519531 41.164063 28.886719 C 39.277344 30.125 37.21875 31.066406 35.109375 31.867188 C 34.707031 30.859375 34.289063 29.863281 33.945313 28.847656 C 33.90625 28.742188 33.847656 28.652344 33.78125 28.605469 C 33.652344 28.136719 33.429688 27.726563 32.988281 27.441406 C 32.9375 27.414063 32.890625 27.382813 32.84375 27.363281 C 32.882813 27.324219 32.910156 27.285156 32.949219 27.246094 C 33.164063 27.011719 33.398438 26.777344 33.625 26.554688 C 33.859375 26.328125 34.09375 26.101563 34.328125 25.878906 C 34.414063 25.800781 34.511719 25.714844 34.550781 25.675781 C 34.640625 25.605469 34.765625 25.566406 34.578125 25.625 C 35.242188 25.429688 34.890625 24.414063 34.226563 24.609375 C 34.03125 24.667969 33.867188 24.855469 33.71875 24.980469 C 33.457031 25.214844 33.203125 25.460938 32.949219 25.703125 C 32.539063 26.105469 31.90625 26.574219 31.679688 27.121094 C 31.640625 27.207031 31.632813 27.296875 31.632813 27.375 C 31.476563 27.421875 31.328125 27.480469 31.203125 27.539063 C 30.859375 27.695313 30.800781 28.066406 30.9375 28.332031 C 30.753906 28.59375 30.859375 28.878906 31.066406 29.042969 C 31.074219 29.054688 31.085938 29.074219 31.085938 29.082031 C 31.125 29.160156 31.152344 29.25 31.191406 29.328125 C 31.289063 29.570313 31.386719 29.816406 31.476563 30.058594 C 31.660156 30.558594 31.867188 31.035156 32.070313 31.523438 C 32.34375 32.148438 32.65625 32.882813 32.277344 33.527344 C 32.226563 33.605469 32.101563 33.703125 32.109375 33.703125 C 32.101563 33.703125 32.089844 33.710938 32.082031 33.710938 C 32.023438 33.703125 32.070313 33.722656 31.964844 33.664063 C 31.359375 33.359375 30.917969 32.34375 30.636719 31.730469 C 30.441406 31.320313 30.273438 30.890625 30.117188 30.46875 C 30.058594 30.304688 30.011719 30.148438 29.953125 29.980469 C 29.933594 29.902344 29.902344 29.824219 29.882813 29.746094 C 29.875 29.71875 29.835938 29.511719 29.863281 29.660156 C 29.796875 29.296875 29.453125 29.152344 29.179688 29.199219 C 29.09375 29.113281 28.964844 29.0625 28.800781 29.0625 C 28.292969 29.082031 27.480469 29.394531 27.160156 29.882813 C 26.796875 29.980469 26.484375 30.195313 26.132813 30.332031 C 25.871094 30.429688 25.597656 30.5 25.324219 30.546875 C 25.273438 30.539063 25.226563 30.527344 25.175781 30.527344 C 24.875 30.527344 24.484375 30.578125 24.152344 30.703125 C 23.058594 30.773438 22.101563 30.34375 21.027344 30.148438 C 20.34375 30.019531 20.136719 31.074219 20.820313 31.203125 C 21.710938 31.359375 22.558594 31.699219 23.449219 31.789063 C 23.496094 31.984375 23.625 32.128906 23.847656 32.179688 C 23.984375 33.15625 24.347656 34.074219 24.785156 34.972656 C 22.128906 35.539063 19.394531 35.820313 16.691406 35.597656 C 14.542969 35.421875 12.34375 34.902344 10.488281 33.769531 C 8.75 32.707031 7.695313 30.976563 7.589844 28.945313 C 7.53125 27.960938 7.648438 26.925781 7.863281 25.910156 C 8.125 25.878906 8.339844 25.695313 8.273438 25.363281 C 8.242188 25.207031 8.195313 25.03125 8.136719 24.863281 C 8.214844 24.589844 8.3125 24.328125 8.398438 24.074219 C 8.75 23.125 9.367188 21.925781 10.363281 21.601563 C 10.429688 21.640625 10.5 21.671875 10.566406 21.691406 C 10.996094 21.828125 11.464844 21.808594 11.894531 21.914063 C 13.371094 22.257813 14.855469 22.558594 16.347656 22.8125 C 19.296875 23.300781 22.472656 23.496094 25.410156 22.863281 C 26.886719 22.539063 28.320313 22.0625 29.738281 21.535156 C 31.035156 21.054688 32.335938 20.558594 33.574219 19.921875 C 35.957031 18.710938 38.078125 17.082031 40.070313 15.3125 C 40.9375 14.542969 41.914063 13.945313 43.117188 14.171875 C 43.964844 14.328125 44.941406 14.796875 45.558594 15.460938 C 45.390625 15.742188 45.546875 16.113281 45.8125 16.242188 C 45.832031 16.386719 45.851563 16.523438 45.859375 16.660156 C 45.878906 16.894531 46.027344 17.042969 46.191406 17.101563 C 46.476563 17.929688 46.738281 18.761719 46.875 19.621094 C 47.140625 20.90625 46.960938 22.1875 46.464844 23.367188 Z M 48.859375 18.730469 C 48.523438 18.691406 48.210938 18.261719 47.960938 18.078125 C 47.851563 18 47.734375 17.96875 47.628906 17.96875 C 47.402344 17.1875 47.128906 16.40625 46.867188 15.636719 C 46.882813 15.527344 46.867188 15.410156 46.816406 15.304688 C 46.789063 15.097656 46.765625 14.894531 46.757813 14.6875 C 46.738281 14.394531 46.71875 14.023438 46.796875 13.703125 C 47.03125 14.21875 47.335938 14.6875 47.859375 15.019531 C 48.15625 15.207031 48.398438 15.476563 48.328125 15.832031 C 48.261719 16.203125 48.144531 16.53125 48.144531 16.921875 C 48.132813 17.5 48.574219 17.988281 48.835938 18.457031 C 48.90625 18.601563 49.015625 18.75 48.859375 18.730469 Z"/></g></svg>