<svg width="512" height="512" xmlns="http://www.w3.org/2000/svg">

 <g>
  <title>background</title>
  <rect fill="none" id="canvas_background" height="402" width="582" y="-1" x="-1"/>
 </g>
 <g>
  <title>Layer 1</title>
  <g id="Layer_1_1_">
   <path fill="#ffffff" id="svg_1" d="m464.289,134.265c-3.743,-4.633 -7.667,-9.178 -11.757,-13.631l-13.75,11.688l-12.341,10.49l-13.74,11.679l-120.401,102.342l120.286,107.399l13.448,12.009l13.119,11.713l13.453,12.012c4.012,-4.512 7.857,-9.125 11.532,-13.834c29.591,-37.909 47.862,-82.034 47.862,-129.132c0,-44.472 -18.27,-86.293 -47.711,-122.735zm-144.589,122.901l104.396,-88.737c3.902,5.202 7.491,10.478 10.711,15.805c14.726,24.366 22.193,49.521 22.193,74.766c0,25.277 -7.477,50.553 -22.222,75.129c-3.257,5.428 -6.889,10.807 -10.839,16.109l-104.239,-93.072zm130.955,116.926l-13.223,-11.805c23.281,-30.844 37.568,-66.062 37.568,-103.287c0,-36.998 -14.121,-71.82 -37.15,-102.262l12.7,-10.795c5.588,6.929 10.685,13.972 15.215,21.083c18.735,29.402 28.235,59.674 28.235,89.974c0,30.752 -8.589,61.256 -25.527,90.662c-5.166,8.969 -11.143,17.809 -17.818,26.43z"/>
   <path id="svg_2" d="m258,59c-26.813,0 -53.04,5.248 -77.953,15.597c-24.159,10.036 -45.946,24.367 -64.756,42.594c-18.866,18.281 -33.691,39.476 -44.066,62.996c-10.767,24.407 -16.225,50.251 -16.225,76.813c0,26.593 5.465,52.557 16.244,77.169c10.401,23.752 25.249,45.188 44.129,63.72c18.847,18.496 40.641,33.046 64.775,43.244c24.917,10.528 51.11,15.867 77.852,15.867c26.666,0 52.561,-5.323 76.963,-15.821c20.854,-8.972 39.848,-21.372 56.579,-36.909l-147.27,-147.271l146.707,-146.705c-16.546,-15.026 -35.312,-27.029 -55.913,-35.742c-24.4,-10.32 -50.33,-15.552 -77.066,-15.552z" fill="#ffffff"/>
   <path fill="#ffffff" id="svg_3" d="m430.525,417.797l-14.605,-14.605l-12.736,-12.735l-134.455,-134.458l134.015,-134.015l12.733,-12.733l15.05,-15.049l12.733,-12.733c-4.094,-4.39 -8.338,-8.635 -12.729,-12.728c-45.728,-42.638 -107.076,-68.741 -174.531,-68.741c-141.385,0 -256,114.615 -256,256s114.615,256 256,256c67.456,0 128.805,-26.103 174.532,-68.741c4.391,-4.093 8.635,-8.338 12.729,-12.728l-12.736,-12.734zm-187.253,-161.798l147.271,147.271c-16.732,15.537 -35.725,27.938 -56.58,36.909c-24.402,10.498 -50.297,15.821 -76.963,15.821c-26.741,0 -52.935,-5.339 -77.852,-15.867c-24.134,-10.198 -45.928,-24.748 -64.775,-43.244c-18.88,-18.529 -33.728,-39.968 -44.129,-63.72c-10.779,-24.612 -16.244,-50.576 -16.244,-77.169c0,-26.562 5.458,-52.406 16.225,-76.812c10.375,-23.52 25.201,-44.715 44.066,-62.996c18.81,-18.227 40.597,-32.558 64.756,-42.594c24.913,-10.35 51.14,-15.598 77.953,-15.598c26.739,0 52.667,5.232 77.065,15.552c20.602,8.713 39.368,20.716 55.913,35.742l-146.706,146.705zm105.363,219.305c-29.33,12.406 -60.496,18.696 -92.635,18.696c-32.137,0 -63.304,-6.29 -92.634,-18.696c-28.339,-11.984 -53.793,-29.148 -75.657,-51.013c-21.864,-21.864 -39.026,-47.316 -51.013,-75.656c-12.406,-29.33 -18.696,-60.496 -18.696,-92.635c0,-32.138 6.29,-63.305 18.696,-92.635c11.986,-28.339 29.149,-53.793 51.013,-75.657c21.863,-21.863 47.318,-39.026 75.657,-51.013c29.329,-12.405 60.496,-18.695 92.634,-18.695c32.139,0 63.305,6.29 92.635,18.696c25.582,10.82 48.804,25.872 69.162,44.778l-15.084,15.084c-38.414,-35.125 -89.559,-56.558 -145.713,-56.558c-119.293,0 -221,96.707 -221,216s101.707,218 221,218c56.43,0 107.797,-22.096 146.274,-58l14.524,14.525c-20.36,18.907 -43.581,33.959 -69.163,44.779z"/>
  </g>
  <g id="Layer_2">
   <path fill="#4C261D" id="svg_4" d="m242.847,142.475c-18.748,0 -34,-15.253 -34,-34.001c0,-18.747 15.252,-33.999 34,-33.999c18.747,0 33.999,15.252 33.999,33.999c0,18.748 -15.252,34.001 -33.999,34.001zm0,-50c-8.822,0 -16,7.177 -16,15.999c0,8.823 7.178,16.001 16,16.001c8.822,0 15.999,-7.178 15.999,-16.001c0,-8.822 -7.178,-15.999 -15.999,-15.999z"/>
   <path fill="#4C261D" id="svg_5" d="m416.514,324.711c-18.748,0 -34,-15.252 -34,-34c0,-18.747 15.252,-33.999 34,-33.999s34,15.252 34,33.999c0,18.748 -15.252,34 -34,34zm0,-49.999c-8.821,0 -16,7.177 -16,15.999s7.179,16 16,16c8.822,0 16,-7.178 16,-16s-7.178,-15.999 -16,-15.999z"/>
   <path fill="#4C261D" id="svg_6" d="m286.236,420.168c-18.748,0 -34,-15.252 -34,-34c0,-18.746 15.252,-33.998 34,-33.998s34,15.252 34,33.998c0,18.748 -15.252,34 -34,34zm0,-49.998c-8.822,0 -16,7.178 -16,15.998c0,8.822 7.178,16 16,16s16,-7.178 16,-16c0,-8.82 -7.177,-15.998 -16,-15.998z"/>
   <path fill="#4C261D" id="svg_7" d="m164.745,394.168c-18.748,0 -34,-15.252 -34,-34c0,-18.746 15.252,-33.998 34,-33.998s34,15.252 34,33.998c0,18.748 -15.253,34 -34,34zm0,-49.998c-8.822,0 -16,7.178 -16,15.998c0,8.822 7.178,16 16,16c8.822,0 16,-7.178 16,-16c0,-8.82 -7.178,-15.998 -16,-15.998z"/>
   <path fill="#4C261D" id="svg_8" d="m104,299.677c-18.748,0 -34,-15.252 -34,-34c0,-18.747 15.252,-33.998 34,-33.998s34,15.251 34,33.998c0,18.748 -15.252,34 -34,34zm0,-49.998c-8.822,0 -16,7.176 -16,15.998c0,8.822 7.178,16 16,16s16,-7.178 16,-16c0,-8.822 -7.178,-15.998 -16,-15.998z"/>
   <path fill="#4C261D" id="svg_9" d="m138.712,185.863c-18.748,0 -34,-15.252 -34,-34c0,-18.747 15.252,-33.998 34,-33.998s34,15.251 34,33.998c0,18.748 -15.252,34 -34,34zm0,-49.998c-8.823,0 -16,7.177 -16,15.998c0,8.822 7.178,16 16,16c8.822,0 16,-7.178 16,-16c0,-8.821 -7.177,-15.998 -16,-15.998z"/>
   <path fill="#4C261D" id="svg_10" d="m381.688,229.936c-9.08,0 -17.618,-3.537 -24.041,-9.958l12.729,-12.728c6.237,6.238 16.389,6.237 22.626,0c6.238,-6.239 6.239,-16.389 0.002,-22.626l12.729,-12.728c13.255,13.255 13.254,34.825 -0.002,48.082c-6.423,6.421 -14.961,9.958 -24.043,9.958z"/>
   <path fill="#4C261D" id="svg_11" d="m324.657,174.646c-13.255,-13.255 -13.254,-34.825 0.002,-48.082c6.422,-6.422 14.96,-9.959 24.041,-9.959c9.082,0 17.619,3.537 24.041,9.959l-12.729,12.728c-6.236,-6.238 -16.387,-6.239 -22.626,0c-6.237,6.239 -6.238,16.39 -0.002,22.627l-12.727,12.727z"/>
  </g>
  <g id="Layer_4"/>
  <g id="Layer_3">
   <path fill="#CC7C65" id="svg_12" d="m415.542,248.327c4.791,0 8.679,-3.879 8.679,-8.679c0,-9.572 7.784,-17.356 17.355,-17.356c4.79,0 8.678,-3.879 8.678,-8.678c0,-4.799 -3.888,-8.678 -8.678,-8.678c-19.146,0 -34.712,15.568 -34.712,34.712c0,4.8 3.888,8.679 8.678,8.679z"/>
   <path fill="#CC7C65" id="svg_13" d="m130.169,221.292c0,4.799 3.888,8.678 8.678,8.678s8.678,-3.879 8.678,-8.678c0,-9.572 7.784,-17.356 17.356,-17.356c4.79,0 8.678,-3.879 8.678,-8.678c0,-4.799 -3.888,-8.678 -8.678,-8.678c-19.143,0.001 -34.712,15.569 -34.712,34.712z"/>
   <path fill="#CC7C65" id="svg_14" d="m223.232,382.645c-3.905,-2.777 -9.329,-1.851 -12.105,2.047c-2.777,3.904 -1.857,9.328 2.048,12.104c7.801,5.545 9.65,16.402 4.113,24.203c-2.777,3.914 -1.857,9.328 2.057,12.104c1.519,1.084 3.271,1.604 5.016,1.604c2.716,0 5.397,-1.268 7.081,-3.654c11.081,-15.615 7.393,-37.328 -8.21,-48.408z"/>
   <path fill="#CC7C65" id="svg_15" d="m251.661,169.224c-4.791,0 -8.678,3.879 -8.678,8.678c0,1.197 -0.972,2.169 -2.169,2.169c-10.769,0 -19.525,8.765 -19.525,19.525c0,1.198 -0.972,2.169 -2.169,2.169c-10.77,0 -19.525,8.765 -19.525,19.525c0,4.799 3.888,8.678 8.678,8.678c4.791,0 8.678,-3.879 8.678,-8.678c0,-1.197 0.972,-2.169 2.169,-2.169c10.77,0 19.525,-8.765 19.525,-19.525c0,-1.198 0.972,-2.169 2.169,-2.169c10.77,0 19.525,-8.765 19.525,-19.525c0,-4.798 -3.888,-8.678 -8.678,-8.678z"/>
   <path fill="#CC7C65" id="svg_16" d="m219.5,295.896c3.358,0 6.673,-0.877 9.659,-2.586c4.157,-2.369 5.606,-7.68 3.228,-11.836c-2.369,-4.158 -7.654,-5.604 -11.837,-3.229c-0.642,0.373 -1.258,0.32 -1.648,0.207c-0.391,-0.113 -0.938,-0.373 -1.311,-1.023c-5.346,-9.346 -17.304,-12.627 -26.641,-7.264c-1.042,0.59 -2.361,0.217 -2.959,-0.807c-2.586,-4.529 -6.786,-7.785 -11.819,-9.164c-5.033,-1.381 -10.292,-0.703 -14.822,1.891c-4.157,2.369 -5.606,7.682 -3.229,11.838c2.378,4.166 7.671,5.631 11.837,3.229c0.651,-0.373 1.258,-0.312 1.649,-0.209c0.39,0.113 0.937,0.373 1.31,1.023c5.346,9.348 17.295,12.609 26.642,7.266c1.042,-0.606 2.36,-0.227 2.959,0.808c2.586,4.528 6.786,7.782 11.819,9.164c1.71,0.459 3.436,0.692 5.163,0.692z"/>
   <path fill="#CC7C65" id="svg_17" d="m237.125,332.866c-0.338,0.225 -0.885,0.477 -1.631,0.303c-5.103,-1.103 -10.327,-0.096 -14.692,2.752c-4.365,2.847 -7.359,7.229 -8.435,12.33c-0.989,4.694 2.013,9.295 6.708,10.283c0.599,0.131 1.198,0.184 1.796,0.184c4.018,0 7.619,-2.805 8.487,-6.891c0.156,-0.729 0.59,-1.154 0.937,-1.371c0.347,-0.228 0.911,-0.451 1.631,-0.306c5.085,1.086 10.318,0.111 14.692,-2.741c4.365,-2.847 7.368,-7.229 8.444,-12.341c0.156,-0.729 0.59,-1.146 0.928,-1.36c0.347,-0.228 0.91,-0.442 1.64,-0.306c10.527,2.179 20.906,-4.547 23.127,-15.082c0.99,-4.688 -2.013,-9.284 -6.698,-10.282c-4.692,-0.974 -9.295,2.004 -10.283,6.698c-0.252,1.162 -1.438,1.937 -2.566,1.675c-5.111,-1.093 -10.327,-0.111 -14.692,2.741c-4.365,2.849 -7.368,7.229 -8.444,12.332c-0.168,0.73 -0.61,1.157 -0.949,1.382z"/>
  </g>
 </g>
</svg>