<svg xmlns="http://www.w3.org/2000/svg" xmlns:xlink="http://www.w3.org/1999/xlink" id="pizza" width="512" height="512" x="0" y="0" enable-background="new 0 0 512 512" version="1.1" viewBox="0 0 512 512" xml:space="preserve"><g id="Layer_1_1_"><path d="M464.289,134.265c-3.743-4.633-7.667-9.178-11.757-13.631l-13.75,11.688l-12.341,10.49l-13.74,11.679L292.3,256.833 l120.286,107.399l13.448,12.009l13.119,11.713l13.453,12.012c4.012-4.512,7.857-9.125,11.532-13.834 C493.729,348.223,512,304.098,512,257C512,212.528,493.73,170.707,464.289,134.265z M319.7,257.166l104.396-88.737 c3.902,5.202,7.491,10.478,10.711,15.805C449.533,208.6,457,233.755,457,259c0,25.277-7.477,50.553-22.222,75.129 c-3.257,5.428-6.889,10.807-10.839,16.109L319.7,257.166z M450.655,374.092l-13.223-11.805C460.713,331.443,475,296.225,475,259 c0-36.998-14.121-71.82-37.15-102.262l12.7-10.795c5.588,6.929,10.685,13.972,15.215,21.083C484.5,196.428,494,226.7,494,257 c0,30.752-8.589,61.256-25.527,90.662C463.307,356.631,457.33,365.471,450.655,374.092z"/><path fill="none" d="M258,59c-26.813,0-53.04,5.248-77.953,15.597c-24.159,10.036-45.946,24.367-64.756,42.594 c-18.866,18.281-33.691,39.476-44.066,62.996C60.458,204.594,55,230.438,55,257c0,26.593,5.465,52.557,16.244,77.169 c10.401,23.752,25.249,45.188,44.129,63.72c18.847,18.496,40.641,33.046,64.775,43.244C205.065,451.661,231.258,457,258,457 c26.666,0,52.561-5.323,76.963-15.821c20.854-8.972,39.848-21.372,56.579-36.909l-147.27-147.271l146.707-146.705 c-16.546-15.026-35.312-27.029-55.913-35.742C310.666,64.232,284.736,59,258,59z"/><path d="M430.525,417.797l-14.605-14.605l-12.736-12.735L268.729,255.999l134.015-134.015l12.733-12.733l15.05-15.049 l12.733-12.733c-4.094-4.39-8.338-8.635-12.729-12.728C384.803,26.103,323.455,0,256,0C114.615,0,0,114.615,0,256 s114.615,256,256,256c67.456,0,128.805-26.103,174.532-68.741c4.391-4.093,8.635-8.338,12.729-12.728L430.525,417.797z M243.272,255.999L390.543,403.27c-16.732,15.537-35.725,27.938-56.58,36.909C309.561,450.677,283.666,456,257,456 c-26.741,0-52.935-5.339-77.852-15.867c-24.134-10.198-45.928-24.748-64.775-43.244c-18.88-18.529-33.728-39.968-44.129-63.72 C59.465,308.557,54,282.593,54,256c0-26.562,5.458-52.406,16.225-76.812c10.375-23.52,25.201-44.715,44.066-62.996 c18.81-18.227,40.597-32.558,64.756-42.594C203.96,63.248,230.187,58,257,58c26.739,0,52.667,5.232,77.065,15.552 c20.602,8.713,39.368,20.716,55.913,35.742L243.272,255.999z M348.635,475.304C319.305,487.71,288.139,494,256,494 c-32.137,0-63.304-6.29-92.634-18.696c-28.339-11.984-53.793-29.148-75.657-51.013c-21.864-21.864-39.026-47.316-51.013-75.656 C24.29,319.305,18,288.139,18,256c0-32.138,6.29-63.305,18.696-92.635c11.986-28.339,29.149-53.793,51.013-75.657 c21.863-21.863,47.318-39.026,75.657-51.013C192.695,24.29,223.862,18,256,18c32.139,0,63.305,6.29,92.635,18.696 c25.582,10.82,48.804,25.872,69.162,44.778l-15.084,15.084C364.299,61.433,313.154,40,257,40C137.707,40,36,136.707,36,256 s101.707,218,221,218c56.43,0,107.797-22.096,146.274-58l14.524,14.525C397.438,449.432,374.217,464.484,348.635,475.304z"/></g><g id="Layer_2"><path d="M242.847,142.475c-18.748,0-34-15.253-34-34.001c0-18.747,15.252-33.999,34-33.999c18.747,0,33.999,15.252,33.999,33.999 C276.846,127.222,261.594,142.475,242.847,142.475z M242.847,92.475c-8.822,0-16,7.177-16,15.999c0,8.823,7.178,16.001,16,16.001 c8.822,0,15.999-7.178,15.999-16.001C258.846,99.652,251.668,92.475,242.847,92.475z"/><path d="M416.514,324.711c-18.748,0-34-15.252-34-34c0-18.747,15.252-33.999,34-33.999s34,15.252,34,33.999 C450.514,309.459,435.262,324.711,416.514,324.711z M416.514,274.712c-8.821,0-16,7.177-16,15.999s7.179,16,16,16 c8.822,0,16-7.178,16-16S425.336,274.712,416.514,274.712z"/><path d="M286.236,420.168c-18.748,0-34-15.252-34-34c0-18.746,15.252-33.998,34-33.998s34,15.252,34,33.998 C320.236,404.916,304.984,420.168,286.236,420.168z M286.236,370.17c-8.822,0-16,7.178-16,15.998c0,8.822,7.178,16,16,16 s16-7.178,16-16C302.236,377.348,295.059,370.17,286.236,370.17z"/><path d="M164.745,394.168c-18.748,0-34-15.252-34-34c0-18.746,15.252-33.998,34-33.998s34,15.252,34,33.998 C198.745,378.916,183.492,394.168,164.745,394.168z M164.745,344.17c-8.822,0-16,7.178-16,15.998c0,8.822,7.178,16,16,16 c8.822,0,16-7.178,16-16C180.745,351.348,173.567,344.17,164.745,344.17z"/><path d="M104,299.677c-18.748,0-34-15.252-34-34c0-18.747,15.252-33.998,34-33.998s34,15.251,34,33.998 C138,284.425,122.748,299.677,104,299.677z M104,249.679c-8.822,0-16,7.176-16,15.998c0,8.822,7.178,16,16,16s16-7.178,16-16 C120,256.855,112.822,249.679,104,249.679z"/><path d="M138.712,185.863c-18.748,0-34-15.252-34-34c0-18.747,15.252-33.998,34-33.998s34,15.251,34,33.998 C172.712,170.611,157.46,185.863,138.712,185.863z M138.712,135.865c-8.823,0-16,7.177-16,15.998c0,8.822,7.178,16,16,16 c8.822,0,16-7.178,16-16C154.712,143.042,147.535,135.865,138.712,135.865z"/><path d="M381.688,229.936c-9.08,0-17.618-3.537-24.041-9.958l12.729-12.728c6.237,6.238,16.389,6.237,22.626,0 c6.238-6.239,6.239-16.389,0.002-22.626l12.729-12.728c13.255,13.255,13.254,34.825-0.002,48.082 C399.308,226.399,390.77,229.936,381.688,229.936z"/><path d="M324.657,174.646c-13.255-13.255-13.254-34.825,0.002-48.082c6.422-6.422,14.96-9.959,24.041-9.959 c9.082,0,17.619,3.537,24.041,9.959l-12.729,12.728c-6.236-6.238-16.387-6.239-22.626,0c-6.237,6.239-6.238,16.39-0.002,22.627 L324.657,174.646z"/></g><g id="Layer_3"><path d="M415.542,248.327c4.791,0,8.679-3.879,8.679-8.679c0-9.572,7.784-17.356,17.355-17.356c4.79,0,8.678-3.879,8.678-8.678 c0-4.799-3.888-8.678-8.678-8.678c-19.146,0-34.712,15.568-34.712,34.712C406.864,244.448,410.752,248.327,415.542,248.327z"/><path d="M130.169,221.292c0,4.799,3.888,8.678,8.678,8.678s8.678-3.879,8.678-8.678c0-9.572,7.784-17.356,17.356-17.356 c4.79,0,8.678-3.879,8.678-8.678c0-4.799-3.888-8.678-8.678-8.678C145.738,186.581,130.169,202.149,130.169,221.292z"/><path d="M223.232,382.645c-3.905-2.777-9.329-1.851-12.105,2.047c-2.777,3.904-1.857,9.328,2.048,12.104 c7.801,5.545,9.65,16.402,4.113,24.203c-2.777,3.914-1.857,9.328,2.057,12.104c1.519,1.084,3.271,1.604,5.016,1.604 c2.716,0,5.397-1.268,7.081-3.654C242.523,415.438,238.835,393.725,223.232,382.645z"/><path d="M251.661,169.224c-4.791,0-8.678,3.879-8.678,8.678c0,1.197-0.972,2.169-2.169,2.169c-10.769,0-19.525,8.765-19.525,19.525 c0,1.198-0.972,2.169-2.169,2.169c-10.77,0-19.525,8.765-19.525,19.525c0,4.799,3.888,8.678,8.678,8.678 c4.791,0,8.678-3.879,8.678-8.678c0-1.197,0.972-2.169,2.169-2.169c10.77,0,19.525-8.765,19.525-19.525 c0-1.198,0.972-2.169,2.169-2.169c10.77,0,19.525-8.765,19.525-19.525C260.339,173.104,256.451,169.224,251.661,169.224z"/><path d="M219.5,295.896c3.358,0,6.673-0.877,9.659-2.586c4.157-2.369,5.606-7.68,3.228-11.836 c-2.369-4.158-7.654-5.604-11.837-3.229c-0.642,0.373-1.258,0.32-1.648,0.207c-0.391-0.113-0.938-0.373-1.311-1.023 c-5.346-9.346-17.304-12.627-26.641-7.264c-1.042,0.59-2.361,0.217-2.959-0.807c-2.586-4.529-6.786-7.785-11.819-9.164 c-5.033-1.381-10.292-0.703-14.822,1.891c-4.157,2.369-5.606,7.682-3.229,11.838c2.378,4.166,7.671,5.631,11.837,3.229 c0.651-0.373,1.258-0.312,1.649-0.209c0.39,0.113,0.937,0.373,1.31,1.023c5.346,9.348,17.295,12.609,26.642,7.266 c1.042-0.606,2.36-0.227,2.959,0.808c2.586,4.528,6.786,7.782,11.819,9.164C216.047,295.663,217.773,295.896,219.5,295.896z"/><path d="M237.125,332.866c-0.338,0.225-0.885,0.477-1.631,0.303c-5.103-1.103-10.327-0.096-14.692,2.752 c-4.365,2.847-7.359,7.229-8.435,12.33c-0.989,4.694,2.013,9.295,6.708,10.283c0.599,0.131,1.198,0.184,1.796,0.184 c4.018,0,7.619-2.805,8.487-6.891c0.156-0.729,0.59-1.154,0.937-1.371c0.347-0.228,0.911-0.451,1.631-0.306 c5.085,1.086,10.318,0.111,14.692-2.741c4.365-2.847,7.368-7.229,8.444-12.341c0.156-0.729,0.59-1.146,0.928-1.36 c0.347-0.228,0.91-0.442,1.64-0.306c10.527,2.179,20.906-4.547,23.127-15.082c0.99-4.688-2.013-9.284-6.698-10.282 c-4.692-0.974-9.295,2.004-10.283,6.698c-0.252,1.162-1.438,1.937-2.566,1.675c-5.111-1.093-10.327-0.111-14.692,2.741 c-4.365,2.849-7.368,7.229-8.444,12.332C237.906,332.214,237.464,332.641,237.125,332.866z"/></g></svg>