<?xml version="1.0" encoding="UTF-8"?>
<svg xmlns="http://www.w3.org/2000/svg" xmlns:xlink="http://www.w3.org/1999/xlink" width="50pt" height="50pt" viewBox="0 0 50 50" version="1.1">
<g id="surface1">
<path style=" stroke:none;fill-rule:nonzero;fill:#EF4823;fill-opacity:1;" d="M 16.113281 36.074219 C 15.4375 35.957031 15.03125 36.425781 15.085938 37.078125 C 15.117188 37.480469 14.785156 37.675781 14.484375 37.636719 C 15.019531 38.484375 16.59375 38.546875 16.972656 37.5 C 17.167969 36.921875 16.6875 36.171875 16.113281 36.074219 Z "/>
<path style=" stroke:none;fill-rule:nonzero;fill:#EF4823;fill-opacity:1;" d="M 20.664063 38.367188 C 20.460938 38.390625 20.265625 38.417969 20.058594 38.445313 C 20.046875 38.9375 20.03125 39.433594 20.070313 39.921875 C 20.304688 39.875 20.585938 39.863281 20.828125 39.796875 C 20.78125 39.316406 20.695313 38.847656 20.664063 38.367188 Z "/>
<path style=" stroke:none;fill-rule:nonzero;fill:#EF4823;fill-opacity:1;" d="M 17.820313 30.421875 C 16.953125 29.199219 16.035156 31.492188 16.230469 32.246094 C 16.320313 32.304688 16.394531 32.402344 16.425781 32.539063 C 16.445313 32.625 16.40625 32.636719 16.554688 32.664063 C 16.710938 32.695313 16.855469 32.703125 17.023438 32.6875 C 17.285156 32.648438 17.492188 32.597656 17.648438 32.375 C 17.976563 31.894531 18.183594 30.929688 17.820313 30.421875 Z "/>
<path style=" stroke:none;fill-rule:nonzero;fill:#EF4823;fill-opacity:1;" d="M 25.585938 38.679688 C 25.304688 38.289063 24.667969 37.976563 24.316406 38.4375 C 24.082031 38.742188 23.964844 39.132813 23.914063 39.53125 C 24.304688 39.734375 24.757813 39.796875 25.15625 39.5625 C 25.4375 39.394531 25.839844 39.042969 25.585938 38.679688 Z "/>
<path style=" stroke:none;fill-rule:nonzero;fill:#EF4823;fill-opacity:1;" d="M 16.453125 13.523438 C 16.445313 13.46875 16.445313 13.417969 16.445313 13.367188 C 16.074219 13.507813 15.703125 13.652344 15.351563 13.828125 C 15.363281 13.847656 15.382813 13.867188 15.390625 13.886719 C 15.644531 14.367188 15.910156 14.84375 16.164063 15.332031 C 16.417969 15.226563 16.679688 15.125 16.945313 15.03125 C 16.726563 14.539063 16.5625 14.054688 16.453125 13.523438 Z "/>
<path style=" stroke:none;fill-rule:nonzero;fill:#F6851F;fill-opacity:1;" d="M 36.476563 34.03125 C 34.765625 33.625 33.054688 33.171875 31.414063 32.507813 C 31.140625 32.390625 30.867188 32.273438 30.59375 32.148438 C 30.578125 32.234375 30.546875 32.3125 30.480469 32.402344 C 30.136719 32.820313 29.84375 33.289063 29.335938 33.535156 C 28.828125 33.78125 28.203125 33.71875 27.695313 33.496094 C 26.640625 33.027344 25.859375 31.90625 25.917969 30.722656 C 25.929688 30.507813 26.035156 30.363281 26.183594 30.265625 C 24.660156 29.667969 23.136719 29.0625 21.71875 28.234375 C 21.574219 28.144531 21.484375 28.019531 21.457031 27.882813 C 21.171875 27.851563 20.898438 27.617188 20.9375 27.257813 C 21.027344 26.535156 21.28125 25.851563 21.574219 25.1875 C 21.425781 25.117188 21.320313 24.972656 21.320313 24.765625 C 21.289063 23.613281 20.773438 22.570313 20.839844 21.398438 C 20.851563 21.171875 21.113281 20.96875 21.328125 20.96875 C 21.972656 20.949219 22.550781 20.714844 23.144531 20.507813 C 23.242188 20.46875 23.339844 20.46875 23.429688 20.488281 C 23.671875 19.816406 23.925781 19.152344 24.21875 18.507813 C 24.023438 18.566406 23.808594 18.515625 23.664063 18.292969 C 23.078125 17.375 23.214844 16.046875 23.75 15.136719 C 24.003906 14.699219 24.328125 14.308594 24.785156 14.082031 C 25.011719 13.976563 25.246094 13.917969 25.480469 13.878906 C 25.625 13.859375 25.753906 13.828125 25.90625 13.828125 C 26.015625 13.820313 26.054688 13.820313 26.054688 13.847656 C 26.25 13.722656 26.484375 13.75 26.652344 13.867188 C 26.882813 13.351563 27.089844 12.8125 27.257813 12.277344 C 24.785156 12.882813 22.109375 12.453125 19.589844 12.707031 C 18.808594 12.785156 18.039063 12.921875 17.304688 13.117188 C 17.402344 13.195313 17.492188 13.3125 17.519531 13.457031 C 17.636719 14.0625 17.910156 14.628906 18.171875 15.175781 C 18.300781 15.441406 18.09375 15.773438 17.84375 15.859375 C 17.246094 16.054688 16.648438 16.269531 16.085938 16.542969 C 15.800781 16.679688 15.515625 16.457031 15.398438 16.210938 C 15.214844 15.839844 15.027344 15.460938 14.824219 15.097656 C 14.773438 15.011719 14.695313 14.863281 14.617188 14.738281 C 14.492188 14.667969 14.40625 14.550781 14.394531 14.367188 C 13.886719 14.6875 13.398438 15.070313 12.9375 15.5 C 11.21875 17.140625 9.929688 19.191406 9.003906 21.378906 C 8.171875 23.351563 7.644531 25.390625 7.585938 27.519531 C 7.675781 27.53125 7.773438 27.570313 7.859375 27.636719 C 8.671875 28.25 9.394531 28.976563 10.105469 29.6875 C 10.332031 29.914063 10.339844 30.195313 10.15625 30.449219 C 9.910156 30.789063 9.695313 31.164063 9.472656 31.515625 C 9.277344 31.804688 9.089844 32.1875 8.789063 32.390625 C 8.210938 32.78125 7.617188 31.894531 8.183594 31.503906 C 8.066406 31.582031 8.183594 31.492188 8.210938 31.453125 C 8.261719 31.386719 8.308594 31.328125 8.359375 31.257813 C 8.476563 31.09375 8.582031 30.917969 8.691406 30.742188 C 8.816406 30.546875 8.933594 30.351563 9.0625 30.15625 C 8.59375 29.6875 8.113281 29.226563 7.597656 28.796875 C 7.683594 31.101563 8.113281 33.398438 8.90625 35.566406 C 9.667969 37.664063 10.710938 39.695313 12.578125 41.015625 C 14.324219 42.246094 16.464844 42.8125 18.574219 43.015625 C 20.78125 43.234375 23.066406 43.09375 25.234375 42.648438 C 30.371094 41.59375 34.550781 38.457031 37.773438 34.421875 C 37.792969 34.40625 37.8125 34.375 37.832031 34.367188 C 37.382813 34.25 36.933594 34.140625 36.476563 34.03125 Z M 22.421875 31.699219 C 23.144531 31.699219 24.148438 31.777344 24.335938 32.648438 C 24.394531 32.929688 24.304688 33.222656 24.003906 33.328125 C 23.75 33.417969 23.378906 33.289063 23.320313 33 C 23.320313 33 23.289063 32.929688 23.28125 32.898438 C 23.273438 32.890625 23.261719 32.871094 23.289063 32.890625 C 23.183594 32.832031 23.210938 32.84375 23.085938 32.8125 C 22.851563 32.765625 22.726563 32.773438 22.492188 32.773438 C 22.195313 32.773438 21.933594 32.589844 21.914063 32.273438 C 21.90625 32 22.128906 31.699219 22.421875 31.699219 Z M 20.9375 28.574219 C 20.984375 28.613281 20.996094 28.613281 20.945313 28.585938 C 20.976563 28.605469 21.007813 28.625 21.035156 28.632813 C 21.09375 28.664063 21.164063 28.691406 21.230469 28.722656 C 21.503906 28.820313 21.59375 29.199219 21.476563 29.445313 C 21.335938 29.726563 21.023438 29.785156 20.75 29.6875 C 20.421875 29.570313 20.148438 29.316406 19.851563 29.121094 C 19.609375 28.953125 19.628906 28.5625 19.804688 28.359375 C 20.019531 28.113281 20.324219 28.144531 20.566406 28.308594 C 20.695313 28.398438 20.820313 28.496094 20.9375 28.574219 Z M 20.070313 14.714844 C 20.226563 14.480469 20.515625 14.375 20.789063 14.5 C 21.015625 14.609375 21.132813 14.875 21.085938 15.117188 C 21.0625 15.207031 21.023438 15.292969 20.996094 15.382813 C 20.957031 15.476563 20.878906 15.558594 20.789063 15.605469 C 20.78125 15.636719 20.761719 15.664063 20.75 15.695313 C 20.75 15.703125 20.75 15.710938 20.75 15.722656 C 20.75 15.734375 20.75 15.734375 20.75 15.722656 C 20.75 15.714844 20.75 15.714844 20.75 15.695313 C 20.75 15.695313 20.75 15.703125 20.75 15.703125 C 20.742188 15.800781 20.703125 15.898438 20.632813 15.976563 C 20.546875 16.085938 20.410156 16.140625 20.273438 16.164063 C 20.011719 16.179688 19.6875 15.957031 19.695313 15.664063 C 19.695313 15.3125 19.875 15.007813 20.070313 14.714844 Z M 19.875 23.25 C 20.125 23.378906 20.253906 23.710938 20.117188 23.976563 C 19.992188 24.21875 19.8125 24.414063 19.609375 24.601563 C 19.492188 24.707031 19.367188 24.8125 19.238281 24.914063 C 19.199219 24.941406 19.171875 24.96875 19.132813 25 C 19.140625 25 19.0625 25.070313 19.0625 25.070313 C 18.859375 25.273438 18.535156 25.320313 18.300781 25.117188 C 18.09375 24.929688 18.039063 24.5625 18.25 24.355469 C 18.429688 24.179688 18.625 24.03125 18.820313 23.867188 C 18.914063 23.777344 19.101563 23.59375 19.160156 23.496094 C 19.289063 23.242188 19.601563 23.125 19.875 23.25 Z M 18.742188 17.929688 C 19.484375 18.703125 19.5 19.953125 18.71875 20.703125 C 17.898438 21.484375 16.757813 21.242188 16.164063 20.320313 C 16.027344 20.109375 16.054688 19.882813 16.179688 19.726563 C 15.507813 18.507813 17.609375 16.757813 18.742188 17.929688 Z M 13.339844 18.222656 C 13.847656 18.222656 14.355469 18.234375 14.851563 18.328125 C 15.539063 18.457031 15.332031 19.511719 14.648438 19.382813 C 14.367188 19.328125 14.082031 19.304688 13.789063 19.296875 C 13.710938 19.355469 13.625 19.394531 13.515625 19.382813 C 13.144531 19.375 12.851563 19.1875 12.839844 18.789063 C 12.84375 18.523438 13.039063 18.222656 13.339844 18.222656 Z M 9.902344 25.898438 C 9.648438 25.683594 9.679688 25.390625 9.835938 25.183594 C 9.863281 24.707031 9.765625 24.207031 9.992188 23.769531 C 10.253906 23.261719 10.671875 22.910156 11.242188 22.800781 C 12.226563 22.605469 13.289063 23.152344 13.730469 24.0625 C 14.199219 25.039063 13.796875 26.296875 12.8125 26.765625 C 11.757813 27.273438 10.695313 26.574219 9.902344 25.898438 Z M 12.078125 37.507813 C 12.070313 37.539063 12.070313 37.570313 12.070313 37.597656 C 12.070313 37.609375 12.070313 37.617188 12.070313 37.636719 C 12.070313 37.675781 12.070313 37.722656 12.070313 37.765625 C 12.070313 38.054688 11.882813 38.320313 11.574219 38.339844 C 11.300781 38.359375 10.996094 38.132813 10.996094 37.839844 C 10.996094 37.507813 10.996094 37.128906 11.230469 36.855469 C 11.425781 36.628906 11.769531 36.609375 11.992188 36.804688 C 12.1875 36.980469 12.226563 37.265625 12.101563 37.480469 C 12.089844 37.480469 12.089844 37.492188 12.078125 37.507813 Z M 12.546875 31.699219 C 12.539063 31.992188 12.375 32.257813 12.050781 32.273438 C 11.789063 32.296875 11.464844 32.070313 11.476563 31.777344 C 11.515625 30.90625 12.1875 30.351563 12.882813 29.921875 C 13.46875 29.5625 14.070313 30.449219 13.484375 30.8125 C 13.203125 30.984375 12.566406 31.347656 12.546875 31.699219 Z M 18.054688 37.53125 C 17.882813 38.5625 16.914063 39.25 15.90625 39.335938 C 14.785156 39.433594 13.769531 38.859375 13.367188 37.78125 C 13.195313 37.324219 13.652344 37.011719 14.023438 37.101563 C 13.953125 35.867188 14.871094 34.84375 16.152344 34.992188 C 17.324219 35.125 18.25 36.335938 18.054688 37.53125 Z M 18.15625 33.398438 C 17.441406 33.984375 15.664063 33.992188 15.421875 32.898438 C 15.421875 32.898438 15.421875 32.890625 15.421875 32.890625 C 15.332031 32.832031 15.265625 32.742188 15.226563 32.609375 C 14.953125 31.609375 15.273438 30.261719 16.0625 29.550781 C 16.953125 28.738281 18.273438 28.894531 18.835938 30.027344 C 19.335938 31.054688 19.054688 32.664063 18.15625 33.398438 Z M 21.6875 40.585938 C 21.28125 40.820313 20.851563 40.839844 20.390625 40.9375 C 20.300781 40.957031 20.226563 40.957031 20.148438 40.9375 C 20 41.367188 19.199219 41.328125 19.089844 40.761719 C 18.914063 39.894531 18.984375 39.015625 18.992188 38.125 C 18.992188 38.058594 19.003906 38 19.023438 37.941406 C 19.054688 37.714844 19.199219 37.492188 19.492188 37.453125 C 20.046875 37.355469 20.59375 37.265625 21.152344 37.257813 C 21.523438 37.246094 21.75 37.539063 21.71875 37.890625 C 21.648438 38.625 21.90625 39.355469 21.921875 40.089844 C 21.933594 40.28125 21.855469 40.5 21.6875 40.585938 Z M 22.128906 36.328125 C 21.777344 36.171875 21.320313 36.28125 20.945313 36.289063 C 20.253906 36.300781 20.175781 35.226563 20.867188 35.214844 C 21.464844 35.203125 22.058594 35.117188 22.617188 35.371094 C 23.242188 35.644531 22.765625 36.601563 22.128906 36.328125 Z M 25.671875 40.5 C 24.960938 40.867188 24.179688 40.851563 23.496094 40.527344 C 23.183594 40.632813 22.792969 40.507813 22.800781 40.085938 C 22.800781 40.078125 22.800781 40.078125 22.800781 40.070313 C 22.800781 40.070313 22.792969 40.058594 22.78125 40.058594 C 22.46875 39.773438 22.605469 39.375 22.871094 39.199219 C 22.988281 38.496094 23.273438 37.78125 23.859375 37.402344 C 24.792969 36.796875 26.09375 37.324219 26.570313 38.28125 C 27.011719 39.140625 26.453125 40.085938 25.671875 40.5 Z M 32.34375 37.765625 C 31.824219 38.484375 30.632813 38.523438 29.835938 38.535156 C 29.539063 38.535156 29.285156 38.351563 29.257813 38.035156 C 29.179688 37.148438 29.433594 36.277344 29.453125 35.398438 C 29.464844 34.929688 29.960938 34.746094 30.285156 34.890625 C 30.773438 34.746094 31.296875 34.8125 31.808594 34.824219 C 32.03125 34.824219 32.296875 34.929688 32.355469 35.183594 C 32.519531 35.898438 32.8125 37.101563 32.34375 37.765625 Z "/>
<path style=" stroke:none;fill-rule:nonzero;fill:#EF4823;fill-opacity:1;" d="M 17.96875 18.691406 C 17.8125 18.574219 17.480469 18.679688 17.304688 18.875 C 17.1875 18.992188 17.109375 19.109375 17.101563 19.210938 C 17.101563 19.199219 17.078125 19.21875 17.140625 19.257813 C 17.429688 19.445313 17.453125 19.777344 17.335938 20.019531 C 17.960938 20.390625 18.632813 19.1875 17.96875 18.691406 Z "/>
<path style=" stroke:none;fill-rule:nonzero;fill:#EF4823;fill-opacity:1;" d="M 21.914063 21.972656 C 21.953125 22.53125 22.117188 23.085938 22.257813 23.632813 C 22.382813 23.3125 22.507813 22.988281 22.636719 22.675781 C 22.765625 22.34375 22.890625 22.011719 23.007813 21.679688 C 22.65625 21.804688 22.296875 21.914063 21.914063 21.972656 Z "/>
<path style=" stroke:none;fill-rule:nonzero;fill:#EF4823;fill-opacity:1;" d="M 28.953125 31.367188 C 28.308594 31.085938 27.664063 30.820313 27.011719 30.566406 C 27.011719 30.585938 27.011719 30.605469 27.011719 30.625 C 26.972656 31.417969 27.433594 32.234375 28.195313 32.519531 C 28.964844 32.804688 29.25 32.21875 29.679688 31.699219 C 29.421875 31.582031 29.1875 31.476563 28.953125 31.367188 Z "/>
<path style=" stroke:none;fill-rule:nonzero;fill:#EF4823;fill-opacity:1;" d="M 25.722656 14.890625 C 25.359375 14.953125 25.097656 15.070313 24.882813 15.363281 C 24.445313 15.957031 24.132813 16.992188 24.570313 17.664063 C 24.578125 17.6875 24.601563 17.714844 24.609375 17.734375 C 25.097656 16.789063 25.664063 15.839844 26.171875 14.863281 C 26.035156 14.875 25.890625 14.875 25.722656 14.890625 Z "/>
<path style=" stroke:none;fill-rule:nonzero;fill:#FEBF10;fill-opacity:1;" d="M 39.109375 34.648438 C 38.953125 34.609375 38.808594 34.578125 38.652344 34.539063 C 38.742188 34.71875 38.75 34.929688 38.59375 35.125 C 36.621094 37.609375 34.289063 39.84375 31.515625 41.40625 C 28.808594 42.929688 25.851563 43.796875 22.765625 44.070313 C 18.679688 44.433594 13.769531 43.945313 10.75 40.839844 C 9.148438 39.199219 8.195313 36.960938 7.546875 34.785156 C 6.835938 32.375 6.445313 29.835938 6.550781 27.3125 C 6.648438 24.988281 7.246094 22.765625 8.183594 20.632813 C 9.140625 18.484375 10.429688 16.394531 12.15625 14.785156 C 14.042969 13.027344 16.28125 12.019531 18.835938 11.6875 C 20.304688 11.503906 21.777344 11.472656 23.253906 11.472656 C 24.699219 11.472656 26.152344 11.492188 27.539063 11.054688 C 27.578125 10.75 27.609375 10.4375 27.609375 10.125 C 27.597656 10.085938 27.597656 10.046875 27.597656 10 L 27.597656 9.667969 C 24.941406 8.664063 22.011719 8.5625 19.246094 9.109375 C 16.746094 9.609375 14.226563 10.578125 12.097656 11.992188 C 8.378906 14.472656 5.886719 18.367188 4.804688 22.6875 C 3.691406 27.148438 3.679688 32.246094 5.339844 36.570313 C 6.179688 38.75 7.480469 40.742188 9.277344 42.246094 C 11.230469 43.886719 13.621094 45 16.082031 45.625 C 21.023438 46.867188 26.472656 46.484375 31.210938 44.617188 C 33.390625 43.757813 35.46875 42.570313 37.195313 40.96875 C 38.066406 40.167969 38.859375 39.289063 39.539063 38.320313 C 39.914063 37.804688 40.253906 37.265625 40.566406 36.710938 C 40.859375 36.183594 41.085938 35.632813 41.367188 35.109375 C 40.617188 34.921875 39.851563 34.824219 39.109375 34.648438 Z "/>
<path style=" stroke:none;fill-rule:nonzero;fill:#EF4823;fill-opacity:1;" d="M 31.40625 35.867188 C 31.085938 35.851563 30.761719 35.839844 30.480469 35.957031 C 30.421875 36.453125 30.332031 36.945313 30.3125 37.441406 C 30.488281 37.429688 30.664063 37.414063 30.839844 37.375 C 30.996094 37.34375 31.152344 37.304688 31.289063 37.246094 C 31.375 37.207031 31.464844 37.089844 31.457031 37.167969 C 31.53125 36.757813 31.484375 36.289063 31.40625 35.867188 Z "/>
<path style=" stroke:none;fill-rule:nonzero;fill:#EF4823;fill-opacity:1;" d="M 12.0625 37.507813 C 12.0625 37.519531 12.050781 37.519531 12.050781 37.53125 C 12.0625 37.519531 12.0625 37.507813 12.070313 37.5 C 12.070313 37.5 12.070313 37.492188 12.070313 37.492188 C 12.070313 37.5 12.070313 37.507813 12.0625 37.507813 Z "/>
<path style=" stroke:none;fill-rule:nonzero;fill:#EF4823;fill-opacity:1;" d="M 12.714844 24.433594 C 12.421875 24.042969 11.746094 23.601563 11.242188 23.925781 C 10.78125 24.21875 10.898438 24.835938 10.878906 25.332031 C 11.289063 25.664063 11.855469 26.046875 12.3125 25.820313 C 12.8125 25.585938 13.054688 24.882813 12.714844 24.433594 Z "/>
<path style=" stroke:none;fill-rule:nonzero;fill:#F6851F;fill-opacity:1;" d="M 40.957031 29.71875 C 39.882813 29.601563 38.691406 29.015625 38.503906 27.859375 C 38.308594 26.6875 39.335938 25.429688 40.539063 25.4375 C 40.449219 24.328125 40.117188 23.3125 39.851563 22.226563 C 39.84375 22.207031 39.84375 22.179688 39.835938 22.15625 C 39.375 22.519531 38.847656 23.046875 38.300781 22.871094 C 37.492188 22.625 37.207031 21.632813 36.757813 21.007813 C 36.59375 20.761719 36.671875 20.421875 36.90625 20.265625 C 37.546875 19.824219 38.125 19.277344 38.886719 19.035156 C 38.953125 19.015625 39.015625 19.003906 39.070313 19.003906 C 39.0625 18.964844 39.054688 18.925781 39.042969 18.886719 C 38.476563 16.855469 37.546875 15.070313 35.976563 13.632813 C 35 12.734375 34.03125 11.738281 33.992188 10.460938 C 33.3125 11.378906 32.910156 12.539063 32.421875 13.554688 C 31.757813 14.929688 30.984375 16.25 30.214844 17.570313 C 29.980469 17.960938 29.746094 18.359375 29.519531 18.75 C 30.203125 19.316406 30.195313 20.710938 29.988281 21.464844 C 29.8125 22.117188 29.460938 22.804688 28.835938 23.132813 C 28.191406 23.476563 27.527344 23.476563 26.863281 23.3125 C 26.484375 23.984375 26.101563 24.667969 25.730469 25.363281 C 27.148438 26.054688 28.640625 26.515625 30.136719 27.011719 C 31.726563 27.539063 33.308594 28.164063 34.832031 28.867188 C 36.414063 29.589844 38.015625 30.203125 39.636719 30.839844 C 40.125 31.035156 40.585938 31.230469 41.0625 31.367188 C 41.046875 30.8125 41.007813 30.261719 40.957031 29.71875 Z M 33.359375 13.730469 C 33.808594 13.710938 34.25 13.417969 34.71875 13.691406 C 34.96875 13.835938 35.097656 14.140625 34.960938 14.414063 C 34.835938 14.667969 34.492188 14.804688 34.238281 14.65625 C 34.226563 14.65625 34.226563 14.648438 34.21875 14.648438 C 34.210938 14.648438 34.210938 14.648438 34.199219 14.648438 C 34.238281 14.640625 34.0625 14.6875 34.035156 14.6875 C 33.839844 14.746094 33.644531 14.796875 33.449219 14.804688 C 33.15625 14.8125 32.890625 14.609375 32.871094 14.304688 C 32.84375 14.023438 33.066406 13.738281 33.359375 13.730469 Z M 32.285156 18.066406 C 32.324219 17.011719 33.046875 16.015625 34.179688 15.96875 C 35.382813 15.90625 36.25 16.828125 36.359375 17.988281 C 36.484375 19.226563 35.734375 20.320313 34.445313 20.449219 C 33.300781 20.554688 32.179688 19.902344 31.914063 18.738281 C 31.847656 18.417969 32.039063 18.164063 32.285156 18.066406 Z M 31.699219 22.65625 C 31.75 22.460938 31.816406 22.265625 31.875 22.078125 C 31.90625 21.984375 31.933594 21.894531 31.960938 21.796875 C 31.972656 21.757813 32 21.5625 31.992188 21.726563 C 32.003906 21.4375 32.167969 21.171875 32.492188 21.152344 C 32.753906 21.132813 33.085938 21.359375 33.066406 21.648438 C 33.046875 22.070313 32.871094 22.460938 32.765625 22.871094 C 32.6875 23.15625 32.429688 23.351563 32.140625 23.289063 C 31.855469 23.234375 31.628906 22.9375 31.699219 22.65625 Z M 34.433594 26.882813 C 33.625 27.070313 32.8125 26.90625 32.109375 26.492188 C 31.789063 26.5625 31.367188 26.320313 31.414063 25.878906 C 31.464844 25.421875 31.398438 24.875 31.628906 24.453125 C 31.882813 24.003906 32.363281 23.5625 32.851563 23.378906 C 33.847656 23.007813 35.195313 23.445313 35.59375 24.492188 C 35.9375 25.429688 35.46875 26.640625 34.433594 26.882813 Z M 36.375 27.882813 C 36.367188 27.84375 36.367188 27.820313 36.375 27.832031 C 36.375 27.820313 36.367188 27.804688 36.367188 27.792969 C 36.355469 27.78125 36.335938 27.746094 36.320313 27.726563 C 36.308594 27.714844 36.21875 27.636719 36.210938 27.628906 C 36.210938 27.628906 36.113281 27.558594 36.125 27.570313 C 35.929688 27.453125 35.710938 27.355469 35.507813 27.257813 C 34.882813 26.953125 35.359375 25.988281 35.984375 26.289063 C 36.632813 26.601563 37.421875 26.972656 37.449219 27.804688 C 37.480469 28.484375 36.40625 28.574219 36.375 27.882813 Z "/>
<path style=" stroke:none;fill-rule:nonzero;fill:#EF4823;fill-opacity:1;" d="M 35.304688 18.183594 C 35.242188 17.617188 34.929688 16.960938 34.265625 17.03125 C 33.691406 17.089844 33.351563 17.558594 33.359375 18.125 C 33.367188 18.386719 33.210938 18.5625 33.027344 18.640625 C 33.242188 19.128906 33.703125 19.433594 34.289063 19.375 C 34.941406 19.316406 35.371094 18.867188 35.304688 18.183594 Z "/>
<path style=" stroke:none;fill-rule:nonzero;fill:#EF4823;fill-opacity:1;" d="M 34.511719 24.757813 C 34.34375 24.53125 34.042969 24.355469 33.757813 24.316406 C 33.359375 24.257813 33.125 24.433594 32.820313 24.667969 C 32.558594 24.875 32.5 25.164063 32.492188 25.476563 C 32.898438 25.769531 33.484375 25.964844 33.992188 25.886719 C 34.5 25.800781 34.863281 25.226563 34.511719 24.757813 Z "/>
<path style=" stroke:none;fill-rule:nonzero;fill:#EF4823;fill-opacity:1;" d="M 40.617188 27.195313 C 40.605469 26.972656 40.59375 26.746094 40.585938 26.523438 C 40.007813 26.554688 39.382813 27.140625 39.578125 27.765625 C 39.734375 28.25 40.300781 28.535156 40.820313 28.632813 C 40.734375 28.15625 40.644531 27.6875 40.617188 27.195313 Z "/>
<path style=" stroke:none;fill-rule:nonzero;fill:#FEBF10;fill-opacity:1;" d="M 44.160156 25.546875 C 43.953125 23.332031 43.015625 21.230469 42.5 19.082031 C 42.1875 17.785156 41.945313 16.417969 41.367188 15.207031 C 40.898438 14.21875 40.304688 13.28125 39.609375 12.433594 C 38.90625 11.5625 38.066406 10.703125 37.070313 10.167969 C 36.523438 9.875 35.828125 9.582031 35.203125 9.648438 C 35.203125 9.660156 35.195313 9.667969 35.195313 9.679688 C 34.597656 11.523438 36.523438 12.5 37.558594 13.683594 C 38.953125 15.285156 39.734375 17.1875 40.242188 19.230469 C 40.515625 20.34375 40.742188 21.464844 41.042969 22.578125 C 41.328125 23.644531 41.582031 24.628906 41.628906 25.742188 C 41.648438 26.320313 41.660156 26.894531 41.71875 27.460938 C 41.765625 27.960938 41.882813 28.449219 41.953125 28.957031 C 42.058594 29.824219 42.128906 30.695313 42.148438 31.574219 C 42.488281 31.621094 42.832031 31.671875 43.164063 31.757813 C 43.703125 29.734375 44.355469 27.65625 44.160156 25.546875 Z "/>
<path style=" stroke:none;fill-rule:nonzero;fill:#EF4823;fill-opacity:1;" d="M 39.335938 20 C 39.304688 20.019531 39.277344 20.03125 39.25 20.039063 C 38.75 20.203125 38.339844 20.527344 37.929688 20.839844 C 38.007813 20.96875 38.078125 21.101563 38.15625 21.230469 C 38.242188 21.367188 38.320313 21.515625 38.429688 21.640625 C 38.457031 21.6875 38.496094 21.726563 38.535156 21.765625 C 38.90625 21.570313 39.191406 21.242188 39.550781 21.035156 C 39.5625 21.023438 39.570313 21.023438 39.582031 21.023438 C 39.492188 20.683594 39.414063 20.34375 39.335938 20 Z "/>
<path style=" stroke:none;fill-rule:nonzero;fill:#EF4823;fill-opacity:1;" d="M 28.984375 19.992188 C 28.976563 19.960938 28.945313 19.851563 28.917969 19.765625 C 28.417969 20.613281 27.910156 21.464844 27.421875 22.324219 C 28.125 22.390625 28.730469 22.078125 28.9375 21.257813 C 29.03125 20.839844 29.0625 20.429688 28.984375 19.992188 Z "/>
<path style=" stroke:none;fill-rule:nonzero;fill:#000000;fill-opacity:1;" d="M 42.273438 34.890625 C 42.3125 34.8125 42.335938 34.726563 42.335938 34.640625 L 42.335938 34.34375 C 42.335938 33.828125 41.726563 33.742188 41.425781 34.03125 C 40.78125 33.875 40.136719 33.78125 39.492188 33.640625 C 38.613281 33.457031 37.734375 33.234375 36.855469 33.027344 C 35.175781 32.625 33.507813 32.1875 31.90625 31.550781 C 31.113281 31.238281 30.359375 30.847656 29.597656 30.496094 C 28.789063 30.125 27.949219 29.804688 27.109375 29.472656 C 25.4375 28.828125 23.769531 28.183594 22.214844 27.273438 C 22.15625 27.246094 22.109375 27.226563 22.050781 27.207031 C 22.179688 26.492188 22.480469 25.851563 22.773438 25.195313 C 23.125 24.414063 23.425781 23.613281 23.742188 22.820313 C 24.34375 21.257813 24.835938 19.65625 25.605469 18.164063 C 27 15.449219 28.886719 12.753906 28.664063 9.550781 C 28.640625 9.324219 28.527344 9.179688 28.378906 9.121094 C 28.367188 8.953125 28.28125 8.808594 28.078125 8.71875 C 22.898438 6.757813 17.023438 7.898438 12.324219 10.605469 C 8.339844 12.898438 5.59375 16.738281 4.167969 21.054688 C 2.714844 25.449219 2.578125 30.476563 3.699219 34.960938 C 4.257813 37.195313 5.253906 39.34375 6.699219 41.152344 C 8.242188 43.085938 10.292969 44.53125 12.539063 45.546875 C 17.234375 47.664063 22.753906 47.851563 27.753906 46.777344 C 32.402344 45.773438 36.804688 43.46875 39.824219 39.726563 C 40.300781 39.132813 40.742188 38.484375 41.152344 37.832031 C 41.621094 37.082031 41.945313 36.257813 42.382813 35.5 C 42.519531 35.253906 42.441406 35.03125 42.273438 34.890625 Z M 27 30.625 C 27 30.605469 27 30.585938 27 30.566406 C 27.65625 30.820313 28.308594 31.085938 28.945313 31.367188 C 29.1875 31.476563 29.421875 31.582031 29.65625 31.699219 C 29.238281 32.226563 28.945313 32.804688 28.171875 32.519531 C 27.421875 32.234375 26.964844 31.414063 27 30.625 Z M 22.636719 22.675781 C 22.507813 23 22.382813 23.320313 22.257813 23.632813 C 22.128906 23.078125 21.953125 22.53125 21.914063 21.972656 C 22.285156 21.914063 22.648438 21.804688 23.007813 21.679688 C 22.890625 22.011719 22.765625 22.34375 22.636719 22.675781 Z M 24.609375 17.742188 C 24.601563 17.726563 24.589844 17.695313 24.570313 17.675781 C 24.140625 17 24.445313 15.957031 24.882813 15.371094 C 25.105469 15.078125 25.359375 14.960938 25.722656 14.902344 C 25.878906 14.871094 26.023438 14.882813 26.160156 14.871094 C 25.664063 15.839844 25.097656 16.796875 24.609375 17.742188 Z M 26.671875 13.835938 C 26.503906 13.71875 26.269531 13.679688 26.074219 13.820313 C 26.085938 13.789063 26.035156 13.789063 25.929688 13.800781 C 25.78125 13.800781 25.644531 13.820313 25.5 13.847656 C 25.253906 13.886719 25.019531 13.945313 24.804688 14.054688 C 24.347656 14.277344 24.023438 14.679688 23.769531 15.109375 C 23.234375 16.015625 23.097656 17.351563 23.683594 18.261719 C 23.828125 18.484375 24.042969 18.535156 24.238281 18.476563 C 23.945313 19.121094 23.691406 19.785156 23.449219 20.460938 C 23.359375 20.4375 23.273438 20.449219 23.164063 20.476563 C 22.570313 20.683594 21.984375 20.917969 21.347656 20.9375 C 21.132813 20.945313 20.878906 21.140625 20.859375 21.367188 C 20.792969 22.53125 21.308594 23.582031 21.339844 24.734375 C 21.347656 24.949219 21.453125 25.085938 21.59375 25.15625 C 21.300781 25.820313 21.035156 26.503906 20.957031 27.226563 C 20.917969 27.585938 21.191406 27.820313 21.476563 27.851563 C 21.503906 27.988281 21.582031 28.113281 21.738281 28.203125 C 23.15625 29.03125 24.679688 29.648438 26.203125 30.234375 C 26.054688 30.320313 25.945313 30.476563 25.9375 30.691406 C 25.871094 31.863281 26.660156 32.988281 27.714844 33.464844 C 28.222656 33.691406 28.847656 33.75 29.355469 33.503906 C 29.863281 33.261719 30.15625 32.792969 30.5 32.371094 C 30.566406 32.292969 30.605469 32.207031 30.617188 32.117188 C 30.890625 32.246094 31.164063 32.363281 31.433594 32.480469 C 33.066406 33.144531 34.773438 33.601563 36.492188 34.003906 C 36.945313 34.109375 37.402344 34.21875 37.851563 34.324219 C 37.832031 34.34375 37.8125 34.363281 37.792969 34.382813 C 34.570313 38.425781 30.390625 41.550781 25.253906 42.605469 C 23.085938 43.054688 20.800781 43.191406 18.59375 42.976563 C 16.492188 42.773438 14.34375 42.207031 12.597656 40.976563 C 10.730469 39.667969 9.6875 37.625 8.925781 35.527344 C 8.144531 33.359375 7.714844 31.0625 7.617188 28.757813 C 8.125 29.1875 8.601563 29.648438 9.082031 30.117188 C 8.953125 30.3125 8.835938 30.507813 8.710938 30.703125 C 8.601563 30.878906 8.496094 31.054688 8.378906 31.21875 C 8.328125 31.289063 8.28125 31.347656 8.230469 31.414063 C 8.203125 31.453125 8.085938 31.542969 8.203125 31.464844 C 7.625 31.855469 8.230469 32.742188 8.808594 32.351563 C 9.109375 32.148438 9.304688 31.765625 9.492188 31.472656 C 9.714844 31.121094 9.929688 30.75 10.175781 30.410156 C 10.359375 30.164063 10.351563 29.871094 10.125 29.648438 C 9.414063 28.933594 8.691406 28.210938 7.878906 27.597656 C 7.792969 27.527344 7.703125 27.5 7.605469 27.480469 C 7.675781 25.351563 8.191406 23.308594 9.023438 21.335938 C 9.941406 19.148438 11.230469 17.097656 12.957031 15.457031 C 13.417969 15.019531 13.90625 14.648438 14.414063 14.324219 C 14.421875 14.5 14.511719 14.628906 14.636719 14.695313 C 14.707031 14.824219 14.785156 14.960938 14.84375 15.058594 C 15.046875 15.429688 15.234375 15.800781 15.417969 16.171875 C 15.535156 16.40625 15.820313 16.640625 16.101563 16.503906 C 16.667969 16.230469 17.265625 16.015625 17.859375 15.820313 C 18.113281 15.730469 18.320313 15.398438 18.191406 15.136719 C 17.917969 14.589844 17.65625 14.023438 17.539063 13.417969 C 17.507813 13.261719 17.429688 13.152344 17.324219 13.074219 C 18.066406 12.878906 18.828125 12.742188 19.609375 12.664063 C 22.128906 12.410156 24.792969 12.839844 27.273438 12.234375 C 27.117188 12.792969 26.90625 13.320313 26.671875 13.835938 Z M 16.453125 13.523438 C 16.554688 14.054688 16.726563 14.539063 16.933594 15.03125 C 16.671875 15.125 16.40625 15.226563 16.152344 15.332031 C 15.898438 14.84375 15.644531 14.375 15.382813 13.886719 C 15.371094 13.867188 15.363281 13.847656 15.34375 13.828125 C 15.691406 13.652344 16.0625 13.496094 16.4375 13.367188 C 16.445313 13.417969 16.445313 13.46875 16.453125 13.523438 Z M 40.566406 36.710938 C 40.253906 37.265625 39.914063 37.804688 39.539063 38.320313 C 38.859375 39.277344 38.054688 40.164063 37.195313 40.96875 C 35.46875 42.570313 33.390625 43.757813 31.210938 44.617188 C 26.472656 46.484375 21.023438 46.867188 16.082031 45.625 C 13.613281 45.007813 11.230469 43.886719 9.277344 42.246094 C 7.480469 40.742188 6.179688 38.742188 5.339844 36.570313 C 3.671875 32.246094 3.679688 27.136719 4.804688 22.683594 C 5.886719 18.378906 8.367188 14.480469 12.097656 11.992188 C 14.226563 10.574219 16.738281 9.597656 19.246094 9.109375 C 22.019531 8.5625 24.941406 8.660156 27.597656 9.667969 L 27.597656 10.007813 C 27.597656 10.058594 27.609375 10.097656 27.609375 10.136719 C 27.609375 10.449219 27.578125 10.761719 27.539063 11.0625 C 26.152344 11.503906 24.6875 11.484375 23.25 11.484375 C 21.777344 11.484375 20.304688 11.503906 18.835938 11.699219 C 16.28125 12.03125 14.042969 13.027344 12.15625 14.792969 C 10.429688 16.40625 9.140625 18.496094 8.183594 20.644531 C 7.226563 22.765625 6.640625 24.992188 6.542969 27.3125 C 6.4375 29.824219 6.828125 32.375 7.539063 34.785156 C 8.183594 36.960938 9.140625 39.199219 10.742188 40.839844 C 13.757813 43.945313 18.671875 44.445313 22.753906 44.070313 C 25.851563 43.796875 28.796875 42.929688 31.503906 41.40625 C 34.289063 39.84375 36.609375 37.609375 38.585938 35.125 C 38.742188 34.929688 38.730469 34.71875 38.644531 34.539063 C 38.800781 34.578125 38.945313 34.609375 39.101563 34.648438 C 39.851563 34.824219 40.617188 34.921875 41.359375 35.109375 C 41.074219 35.632813 40.851563 36.191406 40.566406 36.710938 Z "/>
<path style=" stroke:none;fill-rule:nonzero;fill:#000000;fill-opacity:1;" d="M 44.929688 23.703125 C 44.609375 22.246094 44.0625 20.851563 43.679688 19.40625 C 43.328125 18.027344 43.09375 16.570313 42.558594 15.253906 C 41.738281 13.234375 40.34375 11.308594 38.640625 9.929688 C 37.820313 9.265625 36.855469 8.738281 35.800781 8.585938 C 34.628906 8.40625 33.710938 8.976563 33.066406 9.910156 C 32.324219 10.984375 31.863281 12.226563 31.296875 13.398438 C 30.652344 14.714844 29.902344 15.976563 29.148438 17.246094 C 28.152344 18.9375 27.148438 20.625 26.171875 22.335938 C 26.113281 22.402344 26.0625 22.480469 26.035156 22.570313 C 25.546875 23.417969 25.070313 24.277344 24.609375 25.148438 C 24.492188 25.359375 24.539063 25.566406 24.667969 25.703125 C 24.667969 25.878906 24.753906 26.054688 24.949219 26.160156 C 26.425781 26.933594 28.007813 27.429688 29.578125 27.9375 C 31.203125 28.464844 32.792969 29.109375 34.335938 29.8125 C 35.917969 30.527344 37.519531 31.152344 39.140625 31.785156 C 39.851563 32.058594 40.515625 32.390625 41.269531 32.519531 C 41.914063 32.625 42.605469 32.625 43.203125 32.898438 C 43.46875 33.015625 43.710938 32.917969 43.847656 32.742188 C 43.945313 32.675781 44.03125 32.566406 44.070313 32.421875 C 44.453125 30.976563 44.882813 29.539063 45.109375 28.066406 C 45.351563 26.59375 45.253906 25.164063 44.929688 23.703125 Z M 28.917969 19.773438 C 28.945313 19.863281 28.976563 19.960938 28.984375 20 C 29.0625 20.429688 29.03125 20.851563 28.925781 21.269531 C 28.71875 22.089844 28.125 22.402344 27.414063 22.335938 C 27.910156 21.476563 28.40625 20.625 28.917969 19.773438 Z M 39.628906 30.828125 C 38.015625 30.183594 36.40625 29.578125 34.824219 28.859375 C 33.300781 28.15625 31.730469 27.527344 30.125 27 C 28.632813 26.515625 27.136719 26.054688 25.722656 25.351563 C 26.09375 24.667969 26.464844 23.984375 26.855469 23.300781 C 27.519531 23.46875 28.183594 23.46875 28.828125 23.125 C 29.453125 22.792969 29.804688 22.109375 29.980469 21.453125 C 30.1875 20.703125 30.195313 19.296875 29.511719 18.742188 C 29.746094 18.351563 29.980469 17.949219 30.203125 17.558594 C 30.976563 16.242188 31.75 14.921875 32.414063 13.546875 C 32.898438 12.519531 33.300781 11.367188 33.984375 10.449219 C 34.023438 11.726563 34.992188 12.734375 35.96875 13.625 C 37.539063 15.058594 38.46875 16.84375 39.035156 18.875 C 39.042969 18.914063 39.054688 18.957031 39.0625 18.992188 C 39.003906 18.992188 38.9375 19.003906 38.878906 19.023438 C 38.117188 19.265625 37.539063 19.8125 36.894531 20.253906 C 36.660156 20.421875 36.582031 20.761719 36.75 20.996094 C 37.1875 21.621094 37.480469 22.617188 38.292969 22.859375 C 38.839844 23.027344 39.367188 22.507813 39.824219 22.148438 C 39.835938 22.167969 39.835938 22.195313 39.84375 22.214844 C 40.109375 23.300781 40.429688 24.316406 40.527344 25.429688 C 39.328125 25.410156 38.300781 26.679688 38.496094 27.851563 C 38.679688 28.992188 39.882813 29.589844 40.949219 29.707031 C 41.007813 30.253906 41.035156 30.800781 41.054688 31.347656 C 40.578125 31.21875 40.117188 31.023438 39.628906 30.828125 Z M 39.238281 20.039063 C 39.265625 20.03125 39.304688 20.007813 39.328125 20 C 39.40625 20.34375 39.484375 20.683594 39.5625 21.023438 C 39.550781 21.023438 39.539063 21.035156 39.53125 21.035156 C 39.171875 21.238281 38.875 21.570313 38.515625 21.765625 C 38.476563 21.726563 38.4375 21.6875 38.40625 21.640625 C 38.308594 21.511719 38.222656 21.367188 38.132813 21.230469 C 38.054688 21.101563 37.976563 20.96875 37.910156 20.839844 C 38.339844 20.527344 38.75 20.203125 39.238281 20.039063 Z M 40.578125 26.523438 C 40.585938 26.75 40.59375 26.972656 40.605469 27.195313 C 40.632813 27.6875 40.734375 28.15625 40.8125 28.632813 C 40.292969 28.535156 39.71875 28.25 39.570313 27.765625 C 39.375 27.136719 40 26.550781 40.578125 26.523438 Z M 43.15625 31.757813 C 42.820313 31.671875 42.480469 31.609375 42.140625 31.570313 C 42.117188 30.695313 42.0625 29.824219 41.945313 28.953125 C 41.875 28.457031 41.757813 27.96875 41.710938 27.460938 C 41.648438 26.882813 41.640625 26.308594 41.621094 25.742188 C 41.574219 24.628906 41.320313 23.640625 41.035156 22.578125 C 40.742188 21.472656 40.515625 20.339844 40.234375 19.226563 C 39.726563 17.1875 38.945313 15.28125 37.550781 13.679688 C 36.515625 12.488281 34.589844 11.523438 35.1875 9.675781 C 35.1875 9.667969 35.195313 9.65625 35.195313 9.648438 C 35.820313 9.578125 36.515625 9.871094 37.0625 10.164063 C 38.058594 10.703125 38.886719 11.5625 39.601563 12.429688 C 40.292969 13.28125 40.890625 14.21875 41.359375 15.203125 C 41.933594 16.414063 42.179688 17.78125 42.492188 19.082031 C 43.007813 21.238281 43.945313 23.328125 44.152344 25.546875 C 44.355469 27.65625 43.703125 29.734375 43.15625 31.757813 Z "/>
<path style=" stroke:none;fill-rule:nonzero;fill:#000000;fill-opacity:1;" d="M 18.828125 30.03125 C 18.261719 28.894531 16.945313 28.742188 16.054688 29.550781 C 15.273438 30.265625 14.941406 31.601563 15.214844 32.609375 C 15.253906 32.742188 15.320313 32.832031 15.410156 32.890625 C 15.410156 32.890625 15.410156 32.898438 15.410156 32.898438 C 15.65625 33.992188 17.429688 33.984375 18.144531 33.398438 C 19.054688 32.664063 19.335938 31.054688 18.828125 30.03125 Z M 17.648438 32.375 C 17.492188 32.597656 17.285156 32.65625 17.023438 32.6875 C 16.867188 32.703125 16.710938 32.695313 16.550781 32.664063 C 16.394531 32.636719 16.445313 32.625 16.425781 32.539063 C 16.394531 32.390625 16.316406 32.296875 16.230469 32.246094 C 16.023438 31.492188 16.941406 29.199219 17.820313 30.421875 C 18.183594 30.929688 17.976563 31.894531 17.648438 32.375 Z "/>
<path style=" stroke:none;fill-rule:nonzero;fill:#000000;fill-opacity:1;" d="M 18.742188 17.929688 C 17.617188 16.757813 15.507813 18.507813 16.179688 19.726563 C 16.066406 19.882813 16.027344 20.109375 16.164063 20.320313 C 16.75 21.242188 17.902344 21.484375 18.71875 20.703125 C 19.5 19.953125 19.472656 18.703125 18.742188 17.929688 Z M 17.335938 20.007813 C 17.453125 19.765625 17.429688 19.433594 17.140625 19.25 C 17.078125 19.210938 17.109375 19.179688 17.101563 19.199219 C 17.109375 19.101563 17.1875 18.984375 17.304688 18.867188 C 17.492188 18.679688 17.8125 18.5625 17.96875 18.679688 C 18.632813 19.1875 17.960938 20.390625 17.335938 20.007813 Z "/>
<path style=" stroke:none;fill-rule:nonzero;fill:#000000;fill-opacity:1;" d="M 26.582031 38.28125 C 26.101563 37.324219 24.804688 36.796875 23.867188 37.402344 C 23.28125 37.78125 23.007813 38.496094 22.882813 39.199219 C 22.605469 39.375 22.480469 39.773438 22.792969 40.058594 C 22.792969 40.058594 22.800781 40.070313 22.8125 40.070313 C 22.8125 40.078125 22.8125 40.078125 22.8125 40.085938 C 22.800781 40.507813 23.191406 40.632813 23.503906 40.527344 C 24.1875 40.851563 24.96875 40.867188 25.683594 40.5 C 26.453125 40.085938 27.011719 39.140625 26.582031 38.28125 Z M 25.15625 39.5625 C 24.757813 39.796875 24.296875 39.726563 23.917969 39.53125 C 23.964844 39.140625 24.09375 38.742188 24.316406 38.4375 C 24.667969 37.976563 25.304688 38.28125 25.585938 38.679688 C 25.839844 39.042969 25.4375 39.394531 25.15625 39.5625 Z "/>
<path style=" stroke:none;fill-rule:nonzero;fill:#000000;fill-opacity:1;" d="M 13.738281 24.0625 C 13.300781 23.164063 12.234375 22.617188 11.25 22.804688 C 10.683594 22.910156 10.253906 23.261719 10 23.769531 C 9.773438 24.210938 9.875 24.707031 9.84375 25.183594 C 9.6875 25.390625 9.65625 25.683594 9.914063 25.898438 C 10.703125 26.570313 11.765625 27.273438 12.824219 26.765625 C 13.808594 26.296875 14.210938 25.03125 13.738281 24.0625 Z M 12.324219 25.820313 C 11.855469 26.046875 11.296875 25.664063 10.890625 25.332031 C 10.898438 24.835938 10.789063 24.21875 11.25 23.925781 C 11.757813 23.601563 12.429688 24.042969 12.726563 24.433594 C 13.054688 24.882813 12.8125 25.585938 12.324219 25.820313 Z "/>
<path style=" stroke:none;fill-rule:nonzero;fill:#000000;fill-opacity:1;" d="M 16.140625 34.992188 C 14.863281 34.84375 13.945313 35.867188 14.015625 37.101563 C 13.640625 37.011719 13.195313 37.324219 13.359375 37.78125 C 13.757813 38.859375 14.765625 39.425781 15.898438 39.335938 C 16.90625 39.25 17.882813 38.5625 18.046875 37.53125 C 18.25 36.335938 17.324219 35.125 16.140625 34.992188 Z M 16.960938 37.492188 C 16.582031 38.546875 15.007813 38.476563 14.472656 37.625 C 14.773438 37.664063 15.117188 37.46875 15.078125 37.070313 C 15.027344 36.414063 15.429688 35.945313 16.101563 36.0625 C 16.6875 36.171875 17.167969 36.921875 16.960938 37.492188 Z "/>
<path style=" stroke:none;fill-rule:nonzero;fill:#000000;fill-opacity:1;" d="M 36.359375 17.988281 C 36.242188 16.828125 35.371094 15.90625 34.179688 15.96875 C 33.046875 16.023438 32.324219 17.011719 32.285156 18.066406 C 32.039063 18.164063 31.847656 18.417969 31.925781 18.742188 C 32.1875 19.890625 33.300781 20.554688 34.453125 20.449219 C 35.734375 20.320313 36.484375 19.226563 36.359375 17.988281 Z M 34.277344 19.375 C 33.703125 19.433594 33.234375 19.132813 33.015625 18.640625 C 33.203125 18.5625 33.359375 18.390625 33.351563 18.125 C 33.339844 17.558594 33.679688 17.089844 34.257813 17.03125 C 34.929688 16.960938 35.242188 17.609375 35.292969 18.183594 C 35.371094 18.867188 34.941406 19.316406 34.277344 19.375 Z "/>
<path style=" stroke:none;fill-rule:nonzero;fill:#000000;fill-opacity:1;" d="M 35.585938 24.492188 C 35.183594 23.449219 33.835938 23.007813 32.839844 23.378906 C 32.351563 23.5625 31.875 24.003906 31.621094 24.453125 C 31.386719 24.875 31.453125 25.421875 31.40625 25.878906 C 31.355469 26.320313 31.777344 26.5625 32.101563 26.492188 C 32.804688 26.90625 33.613281 27.070313 34.421875 26.882813 C 35.46875 26.640625 35.9375 25.429688 35.585938 24.492188 Z M 33.984375 25.890625 C 33.476563 25.96875 32.890625 25.773438 32.480469 25.480469 C 32.5 25.167969 32.558594 24.863281 32.8125 24.667969 C 33.117188 24.433594 33.351563 24.269531 33.75 24.316406 C 34.03125 24.355469 34.335938 24.53125 34.5 24.757813 C 34.863281 25.226563 34.5 25.800781 33.984375 25.890625 Z "/>
<path style=" stroke:none;fill-rule:nonzero;fill:#000000;fill-opacity:1;" d="M 19.875 23.25 C 19.609375 23.117188 19.289063 23.234375 19.148438 23.496094 C 19.09375 23.601563 18.914063 23.789063 18.808594 23.867188 C 18.625 24.023438 18.429688 24.179688 18.242188 24.355469 C 18.039063 24.5625 18.085938 24.929688 18.289063 25.117188 C 18.523438 25.320313 18.835938 25.273438 19.054688 25.070313 C 19.054688 25.070313 19.132813 25 19.121094 25 C 19.160156 24.96875 19.1875 24.941406 19.226563 24.914063 C 19.355469 24.804688 19.472656 24.707031 19.601563 24.601563 C 19.804688 24.414063 19.980469 24.21875 20.105469 23.976563 C 20.253906 23.71875 20.125 23.378906 19.875 23.25 Z "/>
<path style=" stroke:none;fill-rule:nonzero;fill:#000000;fill-opacity:1;" d="M 14.851563 18.328125 C 14.355469 18.234375 13.847656 18.222656 13.339844 18.222656 C 13.039063 18.222656 12.84375 18.523438 12.84375 18.796875 C 12.851563 19.199219 13.152344 19.382813 13.515625 19.394531 C 13.613281 19.394531 13.710938 19.367188 13.789063 19.304688 C 14.074219 19.316406 14.355469 19.335938 14.648438 19.394531 C 15.320313 19.511719 15.527344 18.457031 14.851563 18.328125 Z "/>
<path style=" stroke:none;fill-rule:nonzero;fill:#000000;fill-opacity:1;" d="M 20.789063 14.5 C 20.515625 14.375 20.226563 14.484375 20.070313 14.714844 C 19.875 15 19.695313 15.3125 19.679688 15.671875 C 19.667969 15.96875 19.992188 16.191406 20.253906 16.171875 C 20.390625 16.164063 20.527344 16.09375 20.617188 15.984375 C 20.695313 15.898438 20.722656 15.808594 20.734375 15.710938 C 20.734375 15.710938 20.734375 15.703125 20.734375 15.703125 C 20.734375 15.710938 20.734375 15.722656 20.734375 15.734375 C 20.734375 15.722656 20.734375 15.710938 20.734375 15.703125 C 20.742188 15.671875 20.75 15.644531 20.773438 15.613281 C 20.859375 15.566406 20.9375 15.488281 20.976563 15.390625 C 21.007813 15.300781 21.042969 15.214844 21.0625 15.125 C 21.132813 14.882813 21.015625 14.609375 20.789063 14.5 Z "/>
<path style=" stroke:none;fill-rule:nonzero;fill:#000000;fill-opacity:1;" d="M 12.882813 29.929688 C 12.179688 30.351563 11.515625 30.917969 11.476563 31.789063 C 11.464844 32.078125 11.789063 32.304688 12.050781 32.285156 C 12.375 32.265625 12.53125 32.003906 12.546875 31.710938 C 12.566406 31.359375 13.203125 30.996094 13.484375 30.832031 C 14.082031 30.457031 13.476563 29.570313 12.882813 29.929688 Z "/>
<path style=" stroke:none;fill-rule:nonzero;fill:#000000;fill-opacity:1;" d="M 24.335938 32.636719 C 24.148438 31.765625 23.144531 31.6875 22.421875 31.6875 C 22.128906 31.6875 21.90625 31.992188 21.921875 32.265625 C 21.945313 32.578125 22.207031 32.765625 22.5 32.765625 C 22.734375 32.765625 22.859375 32.765625 23.09375 32.804688 C 23.210938 32.820313 23.195313 32.820313 23.300781 32.882813 C 23.273438 32.859375 23.273438 32.882813 23.289063 32.890625 C 23.300781 32.921875 23.320313 32.988281 23.328125 32.988281 C 23.390625 33.273438 23.757813 33.40625 24.015625 33.320313 C 24.304688 33.222656 24.40625 32.929688 24.335938 32.636719 Z "/>
<path style=" stroke:none;fill-rule:nonzero;fill:#000000;fill-opacity:1;" d="M 32.34375 35.175781 C 32.285156 34.929688 32.023438 34.824219 31.796875 34.8125 C 31.289063 34.804688 30.761719 34.734375 30.273438 34.882813 C 29.960938 34.734375 29.453125 34.921875 29.441406 35.390625 C 29.421875 36.269531 29.167969 37.136719 29.246094 38.027344 C 29.277344 38.328125 29.53125 38.523438 29.824219 38.523438 C 30.625 38.515625 31.816406 38.476563 32.332031 37.753906 C 32.8125 37.101563 32.519531 35.898438 32.34375 35.175781 Z M 31.457031 37.167969 C 31.464844 37.089844 31.386719 37.207031 31.289063 37.246094 C 31.144531 37.304688 30.984375 37.34375 30.839844 37.375 C 30.664063 37.402344 30.488281 37.421875 30.3125 37.441406 C 30.332031 36.945313 30.421875 36.453125 30.480469 35.957031 C 30.761719 35.851563 31.09375 35.851563 31.40625 35.871094 C 31.484375 36.289063 31.53125 36.757813 31.457031 37.167969 Z "/>
<path style=" stroke:none;fill-rule:nonzero;fill:#000000;fill-opacity:1;" d="M 21.71875 37.898438 C 21.75 37.539063 21.523438 37.257813 21.152344 37.265625 C 20.59375 37.277344 20.046875 37.363281 19.492188 37.460938 C 19.210938 37.507813 19.054688 37.726563 19.023438 37.949219 C 19.003906 38.007813 18.992188 38.066406 18.992188 38.132813 C 18.984375 39.023438 18.914063 39.902344 19.089844 40.773438 C 19.207031 41.347656 20 41.375 20.148438 40.945313 C 20.226563 40.96875 20.300781 40.96875 20.390625 40.945313 C 20.839844 40.851563 21.269531 40.820313 21.6875 40.59375 C 21.855469 40.5 21.933594 40.292969 21.921875 40.109375 C 21.90625 39.367188 21.660156 38.632813 21.71875 37.898438 Z M 20.070313 39.921875 C 20.039063 39.433594 20.046875 38.945313 20.058594 38.445313 C 20.253906 38.417969 20.460938 38.390625 20.664063 38.367188 C 20.695313 38.847656 20.78125 39.316406 20.828125 39.796875 C 20.585938 39.863281 20.304688 39.875 20.070313 39.921875 Z "/>
<path style=" stroke:none;fill-rule:nonzero;fill:#000000;fill-opacity:1;" d="M 22.609375 35.359375 C 22.050781 35.117188 21.453125 35.203125 20.859375 35.203125 C 20.164063 35.214844 20.253906 36.289063 20.9375 36.28125 C 21.308594 36.28125 21.777344 36.171875 22.117188 36.320313 C 22.765625 36.601563 23.242188 35.644531 22.609375 35.359375 Z "/>
<path style=" stroke:none;fill-rule:nonzero;fill:#000000;fill-opacity:1;" d="M 32.480469 21.152344 C 32.15625 21.171875 32.003906 21.4375 31.984375 21.726563 C 31.992188 21.554688 31.960938 21.757813 31.953125 21.796875 C 31.933594 21.894531 31.894531 21.992188 31.867188 22.078125 C 31.804688 22.273438 31.738281 22.460938 31.6875 22.65625 C 31.609375 22.9375 31.835938 23.234375 32.109375 23.28125 C 32.414063 23.339844 32.664063 23.144531 32.734375 22.859375 C 32.84375 22.453125 33.015625 22.070313 33.039063 21.640625 C 33.078125 21.347656 32.742188 21.132813 32.480469 21.152344 Z "/>
<path style=" stroke:none;fill-rule:nonzero;fill:#000000;fill-opacity:1;" d="M 34.71875 13.679688 C 34.25 13.417969 33.808594 13.710938 33.359375 13.71875 C 33.066406 13.730469 32.84375 14.015625 32.859375 14.296875 C 32.882813 14.601563 33.144531 14.804688 33.4375 14.796875 C 33.632813 14.785156 33.828125 14.734375 34.023438 14.679688 C 34.054688 14.667969 34.226563 14.628906 34.1875 14.640625 C 34.199219 14.640625 34.207031 14.640625 34.207031 14.640625 C 34.207031 14.640625 34.21875 14.648438 34.226563 14.648438 C 34.484375 14.796875 34.824219 14.65625 34.949219 14.40625 C 35.085938 14.128906 34.96875 13.828125 34.71875 13.679688 Z "/>
<path style=" stroke:none;fill-rule:nonzero;fill:#000000;fill-opacity:1;" d="M 35.984375 26.28125 C 35.359375 25.976563 34.890625 26.933594 35.507813 27.246094 C 35.714844 27.34375 35.929688 27.441406 36.125 27.558594 C 36.113281 27.558594 36.210938 27.617188 36.210938 27.617188 C 36.21875 27.628906 36.308594 27.714844 36.320313 27.714844 C 36.328125 27.734375 36.359375 27.773438 36.367188 27.78125 C 36.367188 27.792969 36.378906 27.8125 36.378906 27.820313 C 36.378906 27.8125 36.378906 27.832031 36.378906 27.871094 C 36.40625 28.5625 37.480469 28.476563 37.453125 27.792969 C 37.421875 26.972656 36.632813 26.601563 35.984375 26.28125 Z "/>
<path style=" stroke:none;fill-rule:nonzero;fill:#000000;fill-opacity:1;" d="M 11.984375 36.804688 C 11.765625 36.609375 11.414063 36.632813 11.21875 36.855469 C 10.984375 37.128906 10.984375 37.5 10.984375 37.84375 C 10.984375 38.132813 11.289063 38.359375 11.5625 38.339844 C 11.875 38.320313 12.0625 38.058594 12.0625 37.765625 C 12.0625 37.726563 12.0625 37.675781 12.0625 37.636719 C 12.0625 37.625 12.0625 37.617188 12.0625 37.597656 C 12.0625 37.570313 12.070313 37.539063 12.070313 37.511719 C 12.070313 37.519531 12.0625 37.53125 12.050781 37.539063 C 12.050781 37.53125 12.050781 37.53125 12.058594 37.519531 C 12.058594 37.511719 12.070313 37.511719 12.070313 37.5 C 12.070313 37.5 12.070313 37.5 12.078125 37.492188 C 12.207031 37.265625 12.179688 36.984375 11.984375 36.804688 Z "/>
<path style=" stroke:none;fill-rule:nonzero;fill:#000000;fill-opacity:1;" d="M 12.078125 37.492188 C 12.070313 37.5 12.070313 37.507813 12.070313 37.507813 C 12.089844 37.492188 12.089844 37.480469 12.078125 37.492188 Z "/>
<path style=" stroke:none;fill-rule:nonzero;fill:#000000;fill-opacity:1;" d="M 21.242188 28.722656 C 21.171875 28.703125 21.113281 28.671875 21.046875 28.632813 C 21.015625 28.613281 20.984375 28.605469 20.957031 28.585938 C 20.996094 28.613281 20.996094 28.613281 20.945313 28.574219 C 20.820313 28.488281 20.703125 28.398438 20.578125 28.3125 C 20.332031 28.144531 20.03125 28.117188 19.8125 28.359375 C 19.636719 28.554688 19.617188 28.957031 19.863281 29.121094 C 20.15625 29.316406 20.417969 29.570313 20.761719 29.6875 C 21.035156 29.785156 21.335938 29.726563 21.484375 29.445313 C 21.601563 29.210938 21.515625 28.820313 21.242188 28.722656 Z "/>
</g>
</svg>
