<?xml version="1.0" encoding="UTF-8"?>
<svg xmlns="http://www.w3.org/2000/svg" xmlns:xlink="http://www.w3.org/1999/xlink" width="50pt" height="50pt" viewBox="0 0 50 50" version="1.1">
<g id="surface1">
<path style=" stroke:none;fill-rule:nonzero;fill:#B0EDCC;fill-opacity:1;" d="M 23.886719 15.332031 L 26.410156 16.765625 L 27.34375 17.96875 L 33.59375 17.96875 L 33.375 16.199219 L 38.71875 12.957031 L 38.3125 12.289063 C 36.078125 8.597656 31.273438 7.421875 27.582031 9.660156 C 25.472656 10.941406 24.183594 13.0625 23.886719 15.332031 "/>
<path style=" stroke:none;fill-rule:nonzero;fill:#F283A5;fill-opacity:1;" d="M 28.90625 14.84375 C 28.90625 19.160156 25.410156 22.65625 21.09375 22.65625 C 16.777344 22.65625 13.28125 19.160156 13.28125 14.84375 C 13.28125 10.527344 16.777344 7.03125 21.09375 7.03125 C 25.410156 7.03125 28.90625 10.527344 28.90625 14.84375 Z "/>
<path style=" stroke:none;fill-rule:nonzero;fill:#CED9ED;fill-opacity:1;" d="M 45.703125 21.875 L 4.296875 21.875 C 3.21875 21.875 2.34375 21 2.34375 19.921875 C 2.34375 18.84375 3.21875 17.96875 4.296875 17.96875 L 45.703125 17.96875 C 46.78125 17.96875 47.65625 18.84375 47.65625 19.921875 C 47.65625 21 46.78125 21.875 45.703125 21.875 Z "/>
<path style=" stroke:none;fill-rule:nonzero;fill:#CED9ED;fill-opacity:1;" d="M 44.53125 21.875 C 44.007813 28.695313 40.570313 34.578125 35.15625 37.851563 L 35.15625 41.40625 L 14.84375 41.40625 L 14.84375 37.851563 C 9.429688 34.578125 5.992188 28.695313 5.46875 21.875 Z "/>
<path style=" stroke:none;fill-rule:nonzero;fill:#B5C4E0;fill-opacity:1;" d="M 44.039063 25 C 44.503906 24 44.855469 22.957031 45.066406 21.875 L 4.933594 21.875 C 5.144531 22.957031 5.496094 24 5.960938 25 Z "/>
<path style=" stroke:none;fill-rule:nonzero;fill:#5DBC9D;fill-opacity:1;" d="M 17.1875 17.96875 C 17.1875 14.941406 12.5 8.59375 4.6875 8.59375 C 4.6875 14.0625 7.8125 17.96875 7.8125 17.96875 "/>
<path style=" stroke:none;fill-rule:nonzero;fill:#5DBC9D;fill-opacity:1;" d="M 32.8125 17.1875 C 32.8125 14.160156 37.5 8.59375 45.3125 8.59375 C 45.3125 14.0625 42.1875 17.96875 42.1875 17.96875 "/>
<path style=" stroke:none;fill-rule:nonzero;fill:#8D6C9F;fill-opacity:1;" d="M 10.9375 31.25 C 11.371094 31.25 11.71875 30.902344 11.71875 30.46875 L 11.71875 28.90625 C 11.71875 28.472656 11.371094 28.125 10.9375 28.125 C 10.503906 28.125 10.15625 28.472656 10.15625 28.90625 L 10.15625 30.46875 C 10.15625 30.902344 10.503906 31.25 10.9375 31.25 Z "/>
<path style=" stroke:none;fill-rule:nonzero;fill:#8D6C9F;fill-opacity:1;" d="M 14.84375 31.25 C 15.277344 31.25 15.625 30.902344 15.625 30.46875 L 15.625 28.90625 C 15.625 28.472656 15.277344 28.125 14.84375 28.125 C 14.410156 28.125 14.0625 28.472656 14.0625 28.90625 L 14.0625 30.46875 C 14.0625 30.902344 14.410156 31.25 14.84375 31.25 Z "/>
<path style=" stroke:none;fill-rule:nonzero;fill:#8D6C9F;fill-opacity:1;" d="M 18.75 31.25 C 19.183594 31.25 19.53125 30.902344 19.53125 30.46875 L 19.53125 28.90625 C 19.53125 28.472656 19.183594 28.125 18.75 28.125 C 18.316406 28.125 17.96875 28.472656 17.96875 28.90625 L 17.96875 30.46875 C 17.96875 30.902344 18.316406 31.25 18.75 31.25 Z "/>
<path style=" stroke:none;fill-rule:nonzero;fill:#8D6C9F;fill-opacity:1;" d="M 22.65625 31.25 C 23.089844 31.25 23.4375 30.902344 23.4375 30.46875 L 23.4375 28.90625 C 23.4375 28.472656 23.089844 28.125 22.65625 28.125 C 22.222656 28.125 21.875 28.472656 21.875 28.90625 L 21.875 30.46875 C 21.875 30.902344 22.222656 31.25 22.65625 31.25 Z "/>
<path style=" stroke:none;fill-rule:nonzero;fill:#8D6C9F;fill-opacity:1;" d="M 26.5625 31.25 C 26.996094 31.25 27.34375 30.902344 27.34375 30.46875 L 27.34375 28.90625 C 27.34375 28.472656 26.996094 28.125 26.5625 28.125 C 26.128906 28.125 25.78125 28.472656 25.78125 28.90625 L 25.78125 30.46875 C 25.78125 30.902344 26.128906 31.25 26.5625 31.25 Z "/>
<path style=" stroke:none;fill-rule:nonzero;fill:#8D6C9F;fill-opacity:1;" d="M 30.46875 31.25 C 30.902344 31.25 31.25 30.902344 31.25 30.46875 L 31.25 28.90625 C 31.25 28.472656 30.902344 28.125 30.46875 28.125 C 30.035156 28.125 29.6875 28.472656 29.6875 28.90625 L 29.6875 30.46875 C 29.6875 30.902344 30.035156 31.25 30.46875 31.25 Z "/>
<path style=" stroke:none;fill-rule:nonzero;fill:#8D6C9F;fill-opacity:1;" d="M 34.375 31.25 C 34.808594 31.25 35.15625 30.902344 35.15625 30.46875 L 35.15625 28.90625 C 35.15625 28.472656 34.808594 28.125 34.375 28.125 C 33.941406 28.125 33.59375 28.472656 33.59375 28.90625 L 33.59375 30.46875 C 33.59375 30.902344 33.941406 31.25 34.375 31.25 Z "/>
<path style=" stroke:none;fill-rule:nonzero;fill:#8D6C9F;fill-opacity:1;" d="M 38.28125 31.25 C 38.714844 31.25 39.0625 30.902344 39.0625 30.46875 L 39.0625 28.90625 C 39.0625 28.472656 38.714844 28.125 38.28125 28.125 C 37.847656 28.125 37.5 28.472656 37.5 28.90625 L 37.5 30.46875 C 37.5 30.902344 37.847656 31.25 38.28125 31.25 Z "/>
<path style=" stroke:none;fill-rule:nonzero;fill:#8D6C9F;fill-opacity:1;" d="M 45.703125 17.1875 L 43.652344 17.1875 C 44.628906 15.550781 46.09375 12.460938 46.09375 8.59375 C 46.09375 8.160156 45.746094 7.8125 45.3125 7.8125 C 42.199219 7.8125 39.503906 8.675781 37.363281 9.941406 C 34.59375 7.460938 30.535156 7.035156 27.304688 8.921875 C 25.738281 7.28125 23.535156 6.25 21.09375 6.25 C 17.988281 6.25 15.148438 7.929688 13.632813 10.589844 C 11.359375 8.976563 8.304688 7.8125 4.6875 7.8125 C 4.253906 7.8125 3.90625 8.160156 3.90625 8.59375 C 3.90625 12.460938 5.371094 15.550781 6.347656 17.1875 L 4.296875 17.1875 C 2.789063 17.1875 1.5625 18.414063 1.5625 19.921875 C 1.5625 21.429688 2.789063 22.65625 4.296875 22.65625 L 4.710938 22.65625 C 4.960938 29.136719 8.269531 35.113281 13.691406 38.75 C 13.921875 38.90625 14.0625 39.152344 14.0625 39.410156 L 14.0625 40.625 C 14.0625 41.488281 14.761719 42.1875 15.625 42.1875 L 34.375 42.1875 C 35.238281 42.1875 35.9375 41.488281 35.9375 40.625 L 35.9375 39.410156 C 35.9375 39.152344 36.078125 38.90625 36.308594 38.75 C 41.730469 35.109375 45.039063 29.136719 45.289063 22.65625 L 45.703125 22.65625 C 47.210938 22.65625 48.4375 21.429688 48.4375 19.921875 C 48.4375 18.414063 47.210938 17.1875 45.703125 17.1875 Z M 41.789063 17.1875 L 38.273438 17.1875 C 38.621094 15.335938 39.90625 14.195313 40.714844 13.476563 C 40.898438 13.316406 41.054688 13.175781 41.179688 13.050781 C 41.484375 12.746094 41.484375 12.253906 41.179688 11.949219 C 40.871094 11.640625 40.378906 11.640625 40.074219 11.949219 C 39.96875 12.050781 39.832031 12.171875 39.679688 12.308594 C 38.734375 13.144531 37.066406 14.652344 36.703125 17.1875 L 33.59375 17.1875 C 33.59375 14.933594 37.304688 9.757813 44.507813 9.394531 C 44.277344 13.308594 42.421875 16.28125 41.789063 17.1875 Z M 36.019531 10.847656 C 33.492188 12.761719 32.03125 15.234375 32.03125 17.1875 L 29.355469 17.1875 C 29.570313 16.429688 29.6875 15.644531 29.6875 14.84375 C 29.6875 13.117188 29.171875 11.511719 28.289063 10.164063 C 30.785156 8.8125 33.828125 9.089844 36.019531 10.847656 Z M 21.09375 7.8125 C 24.972656 7.8125 28.125 10.964844 28.125 14.84375 C 28.125 15.652344 27.980469 16.4375 27.714844 17.1875 L 17.96875 17.1875 C 17.96875 15.480469 16.847656 13.375 14.878906 11.589844 C 16.089844 9.285156 18.46875 7.8125 21.09375 7.8125 Z M 5.492188 9.394531 C 12.695313 9.757813 16.40625 14.933594 16.40625 17.1875 L 13.980469 17.1875 C 13.617188 14.652344 11.949219 13.144531 11.003906 12.308594 C 10.851563 12.171875 10.714844 12.050781 10.609375 11.949219 C 10.304688 11.640625 9.8125 11.640625 9.507813 11.949219 C 9.199219 12.253906 9.199219 12.746094 9.507813 13.050781 C 9.628906 13.175781 9.785156 13.316406 9.96875 13.476563 C 10.777344 14.195313 12.0625 15.335938 12.410156 17.1875 L 8.210938 17.1875 C 7.578125 16.285156 5.722656 13.324219 5.492188 9.394531 Z M 35.4375 37.453125 C 34.773438 37.898438 34.375 38.632813 34.375 39.410156 L 34.375 40.625 L 15.625 40.625 L 15.625 39.410156 C 15.625 38.632813 15.226563 37.898438 14.5625 37.453125 C 9.574219 34.105469 6.519531 28.617188 6.273438 22.65625 L 43.726563 22.65625 C 43.480469 28.617188 40.425781 34.105469 35.4375 37.453125 Z M 45.703125 21.09375 L 4.296875 21.09375 C 3.652344 21.09375 3.125 20.566406 3.125 19.921875 C 3.125 19.277344 3.652344 18.75 4.296875 18.75 L 45.703125 18.75 C 46.347656 18.75 46.875 19.277344 46.875 19.921875 C 46.875 20.566406 46.347656 21.09375 45.703125 21.09375 Z "/>
</g>
</svg>
