<?xml version="1.0" encoding="utf-8"?>
<!-- Generator: Adobe Illustrator 16.0.0, SVG Export Plug-In . SVG Version: 6.00 Build 0)  -->
<!DOCTYPE svg PUBLIC "-//W3C//DTD SVG 1.1//EN" "http://www.w3.org/Graphics/SVG/1.1/DTD/svg11.dtd">
<svg version="1.1" id="salad" xmlns="http://www.w3.org/2000/svg" xmlns:xlink="http://www.w3.org/1999/xlink" x="0px" y="0px"
	 width="512px" height="512px" viewBox="0 0 512 512" enable-background="new 0 0 512 512" xml:space="preserve">
<path fill="#010101" d="M448.887,231.816h-8.397h-1.031c6.281-17.469,7.656-38.047,7.82-41.227l0.491-8.555l-8.594,0.172
	c-3.281,0.062-25.297,0.812-43.438,7.305c-3.375-10.461-8.945-19.953-16.22-27.883c14.312-9.094,33.531-7.477,46.031,5.008
	l7.938,7.93l11.219-11.242l-7.938-7.93c-10.155-10.172-23.516-15.32-36.883-15.438l5.109-5.109c14.43-14.406,37.883-14.414,52.312,0
	l11.228-11.234c-10.164-10.172-23.5-15.312-36.853-15.438l5.086-5.109c7.859-7.844,12.212-18.32,12.212-29.445
	c0-11.117-4.337-21.57-12.212-29.438L425.566,55.41c4.844,4.867,7.53,11.336,7.53,18.211s-2.688,13.359-7.53,18.219l-5.125,5.102
	c-0.125-13.359-5.259-26.688-15.438-36.867l-7.945-7.953l-11.211,11.242l7.906,7.945c14.445,14.43,14.445,37.898,0,52.305
	l-5.094,5.117c-0.125-13.367-5.267-26.711-15.438-36.883l-7.944-7.938l-11.22,11.234l7.945,7.93
	c12.758,12.781,14.156,32.648,4.297,47.039c-7.608-5.156-16.266-8.781-25.522-10.883c-3.125-7.641-6.931-15.703-14.961-19.555
	c-8.703-4.203-18.306-1.352-26.781,1.141c-4.938,1.477-10.539,3.117-13.57,2.438c-2.78-0.633-6.944-4.43-10.633-7.797
	c-6.672-6.039-14.203-12.891-24.156-12.891c-9.984,0-17.516,6.859-24.156,12.906c-3.703,3.352-7.875,7.156-10.641,7.781
	c-3.031,0.68-8.648-0.961-13.57-2.438c-8.469-2.492-18.078-5.344-26.781-1.141c-8.844,4.258-12.633,13.633-15.953,21.906
	c-1.898,4.695-4.055,10.023-6.367,11.883c-2.352,1.883-8.047,2.797-13.078,3.602c-8.773,1.43-18.727,3.023-24.812,10.656
	c-2.875,3.602-4.188,7.688-4.773,11.617c-22.977,7.672-40.281,27.883-43.727,52.484H52.473c-4.977,0-9.008,4.031-9.008,9.016
	c0,39.82,11.328,78.516,32.773,111.859c19.836,30.883,47.398,55.852,79.898,72.578v33.522c0,4.984,4.039,9.017,9.023,9.017h171.055
	c4.984,0,9.008-4.031,9.008-9.017v-33.522c32.523-16.711,60.062-41.695,79.906-72.578c21.438-33.344,32.773-72.039,32.773-111.859
	C457.91,235.848,453.879,231.816,448.887,231.816z M430.621,198.621c-1.336,11.008-4.203,24.133-8.445,33.195h-5.883h-19.211
	c1.453-5.797,2.305-11.688,2.305-17.617v-1.828c0-2.352-0.125-4.664-0.336-6.953C408.168,201.777,420.34,199.527,430.621,198.621z
	 M220.832,231.816h-25.609c-0.516-3.578-1.281-7.055-2.328-10.43l44.242-14.016L220.832,231.816z M383.496,212.371v1.828
	c0,5.938-1.016,11.828-2.867,17.617h-42c-16.055-17.219-38.445-32.805-55.875-38.641l-5.031,15.07
	c11.297,3.766,25.547,12.812,38.017,23.57h-9.578h-66.234l34.906-52.359c0.562-0.812,1.188-1.555,1.772-2.328
	c26.134,2.445,51.376,26.359,61.398,36.992l11.555-10.93c-12.03-12.773-33.914-32.555-59.108-39.602
	c9.772-6.758,21.477-10.547,33.733-10.547C356.902,153.035,383.496,179.66,383.496,212.371z M176.293,148.309
	c2.008-4.992,4.516-11.188,7.078-12.43c2.445-1.156,8.758,0.695,13.836,2.203c7.055,2.078,15.047,4.461,22.688,2.719
	c7.359-1.664,13.172-6.938,18.766-12.016c4.023-3.664,9.023-8.227,12.039-8.227c2.977,0,8.008,4.562,12.03,8.211
	c5.578,5.094,11.367,10.367,18.773,12.031c7.609,1.742,15.617-0.641,22.664-2.719c5.086-1.508,11.406-3.359,13.844-2.203
	c0.562,0.281,1.117,0.875,1.664,1.562c-22.141,1.32-42.414,12.25-55.688,30.086l-89.953-13.828
	C174.832,151.926,175.574,150.113,176.293,148.309z M143.02,174.848c5.859-0.961,12.352-2.008,17.812-4.953l91.859,14.125
	l-2.305,3.453l-66,16.586c-10.883-15.727-28.492-26.422-48.656-27.883C138.059,175.645,140.668,175.23,143.02,174.848z
	 M131.043,194.004c22.727,0,41.719,16.289,45.922,37.812H85.082C89.301,210.301,108.293,194.004,131.043,194.004z M327.206,449.816
	H174.144v-21.125h153.062V449.816z M409.988,342.957c-18.711,29.117-44.938,52.5-75.883,67.719H167.27
	c-30.953-15.219-57.172-38.602-75.875-67.719c-17.953-27.914-28.141-59.93-29.695-93.133h378
	C438.129,283.027,427.934,315.043,409.988,342.957z"/>
</svg>
