<svg xmlns="http://www.w3.org/2000/svg" xmlns:xlink="http://www.w3.org/1999/xlink" width="50pt" height="50pt" version="1.1" viewBox="0 0 50 50"><g id="surface1"><path style="stroke:none;fill-rule:nonzero;fill:#ffd039;fill-opacity:1" d="M 21.171875 44.53125 L 10.46875 44.53125 C 9.492188 44.53125 8.671875 43.710938 8.671875 42.734375 L 8.671875 21.601563 C 8.671875 19.609375 10.273438 18.007813 12.265625 18.007813 L 19.414063 18.007813 C 21.40625 18.007813 23.007813 19.609375 23.007813 21.601563 L 23.007813 42.773438 C 22.96875 43.710938 22.1875 44.53125 21.171875 44.53125"/><path style="stroke:none;fill-rule:nonzero;fill:#e5bb33;fill-opacity:1" d="M 19.414063 18.007813 L 15.507813 18.007813 C 17.5 18.007813 19.101563 19.609375 19.101563 21.601563 L 19.101563 42.773438 C 19.101563 43.632813 18.476563 44.375 17.65625 44.53125 L 21.171875 44.53125 C 22.1875 44.53125 22.96875 43.710938 23.007813 42.773438 L 23.007813 21.601563 C 22.96875 19.609375 21.367188 18.007813 19.414063 18.007813"/><path style="stroke:none;fill-rule:nonzero;fill:#a5a4aa;fill-opacity:1" d="M 21.171875 18.007813 L 10.46875 18.007813 L 10.46875 16.210938 C 10.46875 15.234375 11.289063 14.414063 12.265625 14.414063 L 19.414063 14.414063 C 20.390625 14.414063 21.210938 15.234375 21.210938 16.210938 Z"/><path style="stroke:none;fill-rule:nonzero;fill:#fff;fill-opacity:1" d="M 15.117188 14.414063 L 12.265625 14.414063 C 11.289063 14.414063 10.46875 15.234375 10.46875 16.210938 L 10.46875 18.007813 L 13.320313 18.007813 L 13.320313 16.210938 C 13.320313 15.234375 14.101563 14.414063 15.117188 14.414063 Z"/><path style="stroke:none;fill-rule:nonzero;fill:#a5a4aa;fill-opacity:1" d="M 17.617188 14.414063 L 14.023438 14.414063 L 14.648438 6.523438 C 14.6875 5.9375 15.195313 5.46875 15.820313 5.46875 C 16.445313 5.46875 16.914063 5.9375 16.992188 6.523438 Z"/><path style="stroke:none;fill-rule:nonzero;fill:#f48884;fill-opacity:1" d="M 39.921875 44.53125 L 29.21875 44.53125 C 28.242188 44.53125 27.421875 43.710938 27.421875 42.734375 L 27.421875 21.601563 C 27.421875 19.609375 29.023438 18.007813 31.015625 18.007813 L 38.164063 18.007813 C 40.15625 18.007813 41.757813 19.609375 41.757813 21.601563 L 41.757813 42.773438 C 41.71875 43.710938 40.9375 44.53125 39.921875 44.53125"/><path style="stroke:none;fill-rule:nonzero;fill:#e5e5e5;fill-opacity:1" d="M 38.203125 18.007813 L 34.296875 18.007813 L 38.203125 18.007813 C 40.15625 18.007813 41.757813 19.609375 41.757813 21.601563 L 41.757813 42.773438 C 41.71875 43.710938 40.9375 44.53125 39.921875 44.53125 L 36.445313 44.53125 C 36.328125 44.570313 36.210938 44.570313 36.09375 44.570313 L 40 44.570313 C 40.976563 44.570313 41.796875 43.75 41.796875 42.773438 L 41.796875 21.601563 C 41.796875 19.609375 40.195313 18.007813 38.203125 18.007813"/><path style="stroke:none;fill-rule:nonzero;fill:#db7a77;fill-opacity:1" d="M 38.164063 18.007813 L 34.296875 18.007813 C 36.289063 18.007813 37.890625 19.609375 37.890625 21.601563 L 37.890625 42.773438 C 37.890625 43.632813 37.265625 44.375 36.445313 44.53125 L 39.921875 44.53125 C 40.9375 44.53125 41.71875 43.710938 41.757813 42.773438 L 41.757813 21.601563 C 41.757813 19.609375 40.15625 18.007813 38.164063 18.007813"/><path style="stroke:none;fill-rule:nonzero;fill:#a5a4aa;fill-opacity:1" d="M 39.921875 18.007813 L 29.21875 18.007813 L 29.21875 16.210938 C 29.21875 15.234375 30.039063 14.414063 31.015625 14.414063 L 38.164063 14.414063 C 39.140625 14.414063 39.960938 15.234375 39.960938 16.210938 Z"/><path style="stroke:none;fill-rule:nonzero;fill:#fff;fill-opacity:1" d="M 33.867188 14.414063 L 31.015625 14.414063 C 30.039063 14.414063 29.21875 15.234375 29.21875 16.210938 L 29.21875 18.007813 L 32.070313 18.007813 L 32.070313 16.210938 C 32.070313 15.234375 32.851563 14.414063 33.867188 14.414063 Z"/><path style="stroke:none;fill-rule:nonzero;fill:#a5a4aa;fill-opacity:1" d="M 36.367188 14.414063 L 32.773438 14.414063 L 33.398438 6.523438 C 33.4375 5.9375 33.945313 5.46875 34.570313 5.46875 C 35.195313 5.46875 35.664063 5.9375 35.742188 6.523438 Z"/><path style="stroke:none;fill-rule:nonzero;fill:#f8f7fb;fill-opacity:1" d="M 8.671875 25.15625 L 14.0625 25.15625 C 15.039063 25.15625 15.859375 25.976563 15.859375 26.953125 L 15.859375 33.789063 C 15.859375 34.765625 15.039063 35.585938 14.0625 35.585938 L 8.671875 35.585938"/><path style="stroke:none;fill-rule:nonzero;fill:#f8f7fb;fill-opacity:1" d="M 27.421875 25.15625 L 32.8125 25.15625 C 33.789063 25.15625 34.609375 25.976563 34.609375 26.953125 L 34.609375 33.789063 C 34.609375 34.765625 33.789063 35.585938 32.8125 35.585938 L 27.421875 35.585938"/><path style="stroke:none;fill-rule:nonzero;fill:#454b54;fill-opacity:1" d="M 21.171875 45.703125 L 10.46875 45.703125 C 8.828125 45.703125 7.5 44.375 7.5 42.734375 L 7.5 21.601563 C 7.5 18.984375 9.648438 16.835938 12.265625 16.835938 L 19.414063 16.835938 C 22.03125 16.835938 24.179688 18.984375 24.179688 21.601563 L 24.179688 42.773438 C 24.140625 44.375 22.8125 45.703125 21.171875 45.703125 Z M 12.226563 19.179688 C 10.898438 19.179688 9.804688 20.273438 9.804688 21.601563 L 9.804688 42.773438 C 9.804688 43.125 10.078125 43.398438 10.429688 43.398438 L 21.171875 43.398438 C 21.523438 43.398438 21.796875 43.125 21.796875 42.773438 L 21.796875 21.601563 C 21.796875 20.273438 20.703125 19.179688 19.375 19.179688 Z"/><path style="stroke:none;fill-rule:nonzero;fill:#454b54;fill-opacity:1" d="M 21.171875 19.179688 L 10.46875 19.179688 C 9.804688 19.179688 9.296875 18.671875 9.296875 18.007813 L 9.296875 16.210938 C 9.296875 14.570313 10.625 13.242188 12.265625 13.242188 L 19.414063 13.242188 C 21.054688 13.242188 22.382813 14.570313 22.382813 16.210938 L 22.382813 18.007813 C 22.34375 18.632813 21.835938 19.179688 21.171875 19.179688 Z M 11.640625 16.835938 L 20.039063 16.835938 L 20.039063 16.210938 C 20.039063 15.859375 19.765625 15.585938 19.414063 15.585938 L 12.226563 15.585938 C 11.875 15.585938 11.601563 15.859375 11.601563 16.210938 L 11.601563 16.835938 Z"/><path style="stroke:none;fill-rule:nonzero;fill:#454b54;fill-opacity:1" d="M 17.617188 15.585938 L 14.023438 15.585938 C 13.710938 15.585938 13.398438 15.429688 13.164063 15.195313 C 12.929688 14.960938 12.8125 14.648438 12.851563 14.296875 L 13.476563 6.40625 C 13.554688 5.195313 14.609375 4.257813 15.820313 4.257813 C 17.03125 4.257813 18.046875 5.195313 18.164063 6.40625 L 18.75 14.179688 C 18.75 14.257813 18.789063 14.335938 18.789063 14.414063 C 18.789063 15.078125 18.28125 15.585938 17.617188 15.585938 Z M 15.3125 13.242188 L 16.367188 13.242188 L 15.820313 6.640625 Z"/><path style="stroke:none;fill-rule:nonzero;fill:#454b54;fill-opacity:1" d="M 39.921875 45.703125 L 29.21875 45.703125 C 27.578125 45.703125 26.25 44.375 26.25 42.734375 L 26.25 21.601563 C 26.25 18.984375 28.398438 16.835938 31.015625 16.835938 L 38.164063 16.835938 C 40.78125 16.835938 42.929688 18.984375 42.929688 21.601563 L 42.929688 42.773438 C 42.890625 44.375 41.5625 45.703125 39.921875 45.703125 Z M 30.976563 19.179688 C 29.648438 19.179688 28.554688 20.273438 28.554688 21.601563 L 28.554688 42.773438 C 28.554688 43.125 28.828125 43.398438 29.179688 43.398438 L 39.921875 43.398438 C 40.273438 43.398438 40.546875 43.125 40.546875 42.773438 L 40.546875 21.601563 C 40.546875 20.273438 39.453125 19.179688 38.125 19.179688 Z"/><path style="stroke:none;fill-rule:nonzero;fill:#454b54;fill-opacity:1" d="M 39.921875 19.179688 L 29.21875 19.179688 C 28.554688 19.179688 28.046875 18.671875 28.046875 18.007813 L 28.046875 16.210938 C 28.046875 14.570313 29.375 13.242188 31.015625 13.242188 L 38.164063 13.242188 C 39.804688 13.242188 41.132813 14.570313 41.132813 16.210938 L 41.132813 18.007813 C 41.09375 18.632813 40.585938 19.179688 39.921875 19.179688 Z M 30.390625 16.835938 L 38.789063 16.835938 L 38.789063 16.210938 C 38.789063 15.859375 38.515625 15.585938 38.164063 15.585938 L 30.976563 15.585938 C 30.625 15.585938 30.351563 15.859375 30.351563 16.210938 Z"/><path style="stroke:none;fill-rule:nonzero;fill:#454b54;fill-opacity:1" d="M 36.367188 15.585938 C 35.78125 15.585938 35.234375 15.117188 35.195313 14.492188 L 34.570313 6.640625 L 33.945313 14.53125 C 33.90625 15.195313 33.320313 15.664063 32.695313 15.625 C 32.03125 15.585938 31.5625 15 31.601563 14.375 L 32.226563 6.484375 C 32.304688 5.273438 33.359375 4.335938 34.570313 4.335938 C 35.78125 4.335938 36.796875 5.273438 36.914063 6.484375 L 37.539063 14.375 C 37.578125 15.039063 37.109375 15.585938 36.445313 15.625 C 36.40625 15.585938 36.40625 15.585938 36.367188 15.585938 Z"/></g></svg>