<svg width="512" height="512" xmlns="http://www.w3.org/2000/svg">

 <g>
  <title>background</title>
  <rect fill="none" id="canvas_background" height="402" width="582" y="-1" x="-1"/>
 </g>
 <g>
  <title>Layer 1</title>
  <path id="svg_1" d="m195.616,481.479c-4.96,0 -8.995,-4.04 -8.995,-9.009l0,-36.344c0,-4.946 4.035,-8.97 8.995,-8.97c4.946,0 8.981,4.021 8.995,8.967l0,36.347c0,4.968 -4.035,9.009 -8.995,9.009z" fill="#ffffff"/>
  <path id="svg_2" d="m83.596,509.891c-11.975,0 -21.728,-9.747 -21.74,-21.728l0,-59.91c0,-11.255 6.253,-21.371 16.319,-26.399l4.428,-2.228c-2.869,-3.771 -4.437,-8.385 -4.437,-13.126l0,-23.439c0,-11.987 9.748,-21.74 21.729,-21.74l104.979,0c11.981,0 21.729,9.753 21.729,21.74l0,23.439c0,4.756 -1.57,9.37 -4.443,13.127l4.438,2.227c10.052,5.022 16.305,15.139 16.317,26.398l0,59.91c0,11.98 -9.754,21.729 -21.742,21.729l-137.577,0l0,0zm2.644,-91.955c-3.935,1.957 -6.378,5.91 -6.378,10.317l0,59.909c0,2.062 1.675,3.74 3.733,3.74l137.59,0c2.068,0 3.751,-1.679 3.751,-3.74l0,-59.909c0,-4.408 -2.445,-8.36 -6.381,-10.315l-19.369,-9.672l-93.593,0l-19.353,9.67zm13.655,-58.604c-2.068,0 -3.752,1.684 -3.752,3.754l0,23.438c0,2.068 1.684,3.752 3.752,3.752l104.965,0c2.069,0 3.753,-1.684 3.753,-3.752l0,-23.438c0,-2.07 -1.684,-3.754 -3.753,-3.754l-104.965,0z" fill="#ffffff"/>
  <path id="svg_3" d="m403.038,392.33c-4.959,0 -8.994,4.035 -8.994,8.994l0,16.298c0,4.967 4.035,9.008 8.994,9.008s8.993,-4.041 8.993,-9.008l0,-16.298c0,-4.959 -4.034,-8.994 -8.993,-8.994z" fill="#ffffff"/>
  <path id="svg_4" d="m403.038,196.672c-4.959,0 -8.994,4.029 -8.994,8.981l0,163.051c0,5.042 3.951,8.991 8.994,8.991c4.959,0 8.993,-4.033 8.993,-8.991l0,-163.051c0,-4.952 -4.024,-8.981 -8.993,-8.981z" fill="#ffffff"/>
  <path id="svg_5" d="m433.825,161.081l-4.434,-2.215c2.872,-3.767 4.44,-8.38 4.44,-13.127l0,-23.427c0,-11.984 -9.748,-21.734 -21.729,-21.734l-23.025,0l-12.898,-91.852c-0.637,-4.405 -4.467,-7.726 -8.909,-7.726l-15.297,0c-4.457,0 -8.287,3.323 -8.908,7.73l-12.899,91.848l-23.026,0c-11.98,0 -21.729,9.75 -21.729,21.734l0,23.427c0,4.748 1.567,9.362 4.438,13.128l-4.431,2.214c-10.065,5.02 -16.319,15.139 -16.319,26.407l0,300.687c0,11.976 9.754,21.717 21.742,21.717l137.562,0c11.987,0 21.74,-9.747 21.74,-21.729l0,-300.676c0.002,-11.269 -6.252,-21.387 -16.318,-26.406zm-130.44,-38.769c0,-2.068 1.685,-3.75 3.754,-3.75l46.196,0c4.979,0 9.03,-4.029 9.03,-8.982c0,-4.956 -4.051,-8.988 -9.03,-8.988l-5.001,0l11.318,-80.382l12.716,90.622l0.003,0.054l0.021,0.071c0.013,0.077 0.026,0.159 0.034,0.173c0.019,0.088 0.043,0.185 0.07,0.281l0.032,0.122c0.026,0.125 0.064,0.271 0.107,0.407c0.023,0.106 0.057,0.222 0.104,0.391l0.035,0.127l0.067,0.114c0.034,0.058 0.059,0.119 0.08,0.178c0.042,0.142 0.103,0.287 0.152,0.394c0.067,0.165 0.147,0.324 0.241,0.509l0.037,0.083l0.059,0.075c0.031,0.058 0.062,0.114 0.07,0.122c0.283,0.489 0.557,0.911 0.856,1.327l0.085,0.136l0.128,0.093c0.108,0.114 0.209,0.222 0.298,0.337l0.073,0.093l0.086,0.072c0.04,0.033 0.08,0.063 0.114,0.099l0.047,0.051l0.317,0.274c0.064,0.064 0.143,0.125 0.252,0.206c0.092,0.092 0.25,0.23 0.428,0.343l0.259,0.167c0.043,0.03 0.092,0.061 0.146,0.087l0.101,0.101l0.081,0.044l0.045,0.116l0.439,0.151c0.076,0.026 0.11,0.047 0.12,0.053l0.121,0.08l0.138,0.042c0.035,0.011 0.067,0.026 0.136,0.063l0.051,0.028l0.056,0.022c0.152,0.062 0.339,0.125 0.415,0.144l0.179,0.063c-0.005,-0.002 -0.046,-0.018 -0.104,-0.054l0.21,0.103l0.133,0.04c0.168,0.051 0.293,0.086 0.474,0.114c0.03,0.007 0.062,0.014 0.099,0.021l0.038,0.019l0.152,0.025c0.237,0.04 0.406,0.066 0.691,0.1l0.077,0.02l0.079,0.008c0.292,0.028 0.581,0.042 0.876,0.042l30.852,0c2.068,0 3.753,1.683 3.753,3.75l0,23.427c0,2.069 -1.685,3.753 -3.753,3.753l-104.929,0c-2.068,0 -3.753,-1.684 -3.753,-3.751l0.039,-23.43zm128.769,365.85c0,2.062 -1.684,3.74 -3.751,3.74l-137.562,0c-2.069,0 -3.753,-1.679 -3.753,-3.74l0,-300.675c0,-4.402 2.443,-8.358 6.378,-10.324l19.366,-9.677l93.578,0l19.373,9.68c3.952,1.947 6.408,5.902 6.408,10.321l-0.037,300.675z" fill="#fffcfc"/>
  <path id="svg_6" d="m145.049,343.37l0,-155.883c0,-11.266 6.253,-21.384 16.318,-26.407l4.425,-2.214c-2.867,-3.762 -4.433,-8.375 -4.433,-13.128l0,-23.427c0,-11.984 9.747,-21.734 21.729,-21.734l23.021,0l12.904,-91.847c0.622,-4.407 4.452,-7.73 8.91,-7.73l15.295,0c4.45,0 8.276,3.328 8.897,7.741l12.912,91.85l8.203,0l-1.303,1.625c-3.592,4.48 -5.914,9.835 -6.719,15.486l-0.122,0.859l-7.886,0c-0.307,0 -0.613,-0.014 -0.892,-0.042l-0.078,-0.008l-0.104,-0.021c-0.247,-0.033 -0.44,-0.06 -0.659,-0.098l-0.074,-0.013l-0.071,-0.024c-0.054,-0.009 -0.104,-0.02 -0.149,-0.031c-0.197,-0.034 -0.384,-0.082 -0.585,-0.15l0.166,-1.003l-0.31,0.951l-0.174,-0.06c-0.073,-0.017 -0.255,-0.08 -0.41,-0.141l-0.061,-0.024l-0.058,-0.032c-0.066,-0.037 -0.094,-0.048 -0.123,-0.058l-0.084,-0.025l-0.078,-0.04c-0.122,-0.062 -0.191,-0.099 -0.273,-0.133l-0.145,-0.059l-0.119,-0.1l-0.15,-0.065l-0.053,-0.029l-0.049,-0.036c-0.069,-0.049 -0.168,-0.113 -0.248,-0.162l-0.302,-0.195c-0.157,-0.101 -0.31,-0.229 -0.419,-0.33c-0.129,-0.096 -0.215,-0.164 -0.287,-0.235l-0.32,-0.275l-0.051,-0.055c-0.027,-0.03 -0.062,-0.056 -0.096,-0.084l-0.072,-0.062l-0.082,-0.094c-0.097,-0.12 -0.201,-0.234 -0.316,-0.355l-0.113,-0.088l-0.098,-0.141c-0.312,-0.434 -0.615,-0.865 -0.877,-1.359c0,0.002 -0.084,-0.137 -0.084,-0.137l-0.113,-0.214c-0.068,-0.136 -0.135,-0.271 -0.19,-0.409c-0.036,-0.069 -0.103,-0.216 -0.151,-0.388l-0.143,-0.367l-0.027,-0.092c-0.035,-0.119 -0.067,-0.235 -0.094,-0.355c-0.041,-0.128 -0.078,-0.27 -0.105,-0.393c0,0 -0.1,-0.505 -0.11,-0.574l-0.028,-0.085l0,-0.051l-12.744,-90.657l-11.313,80.417l5.03,0c4.963,0 9.001,4.03 9.001,8.983c0,4.956 -4.038,8.988 -9.001,8.988l-46.202,0c-2.068,0 -3.752,1.683 -3.752,3.75l0,23.439c0,2.069 1.684,3.753 3.752,3.753l82.097,0l0.113,0.87c0.055,0.414 0.09,0.833 0.125,1.25c0.061,0.72 0.118,1.4 0.274,2.036l0.164,0.663l-0.558,0.394c-4.306,3.041 -8.033,7.176 -11.079,12.293l-0.29,0.488l-65.187,0l-19.354,9.677c-3.934,1.966 -6.378,5.922 -6.378,10.324l0,155.882l-17.99,0z" fill="#ffffff"/>
 </g>
</svg>